ISO-10303-21;
HEADER;
FILE_DESCRIPTION (( 'STEP AP214' ),
    '1' );
FILE_NAME ('SY3000-26-10A.STEP',
    '2026-05-04T05:59:12',
    ( '' ),
    ( '' ),
    'SwSTEP 2.0',
    'SolidWorks 2020',
    '' );
FILE_SCHEMA (( 'AUTOMOTIVE_DESIGN' ));
ENDSEC;

DATA;
#1 = DIRECTION ( 'NONE',  ( 0.000000000000000000, 1.000000000000000000, 0.000000000000000000 ) ) ;
#2 = ORIENTED_EDGE ( 'NONE', *, *, #767, .F. ) ;
#3 = EDGE_CURVE ( 'NONE', #1064, #853, #169, .T. ) ;
#4 = CARTESIAN_POINT ( 'NONE',  ( -9.799999999999998934, -0.5000000000000000000, -5.799999999999999822 ) ) ;
#5 = DIRECTION ( 'NONE',  ( 0.000000000000000000, 0.000000000000000000, -1.000000000000000000 ) ) ;
#6 = VERTEX_POINT ( 'NONE', #705 ) ;
#7 = LINE ( 'NONE', #1015, #1145 ) ;
#8 = ORIENTED_EDGE ( 'NONE', *, *, #730, .F. ) ;
#9 = ADVANCED_FACE ( 'NONE', ( #534 ), #771, .T. ) ;
#10 = LINE ( 'NONE', #307, #368 ) ;
#11 =( NAMED_UNIT ( * ) SI_UNIT ( $, .STERADIAN. ) SOLID_ANGLE_UNIT ( ) );
#12 = CARTESIAN_POINT ( 'NONE',  ( -9.799999999999998934, -0.5000000000000000000, -5.799999999999999822 ) ) ;
#13 = COLOUR_RGB ( '',1.000000000000000000, 1.000000000000000000, 1.000000000000000000 ) ;
#14 = VERTEX_POINT ( 'NONE', #1183 ) ;
#15 = CIRCLE ( 'NONE', #619, 1.600000000000050271 ) ;
#16 = VECTOR ( 'NONE', #844, 1000.000000000000000 ) ;
#17 = VECTOR ( 'NONE', #882, 1000.000000000000000 ) ;
#18 = LINE ( 'NONE', #763, #425 ) ;
#19 = ADVANCED_FACE ( 'NONE', ( #790 ), #609, .F. ) ;
#20 = VERTEX_POINT ( 'NONE', #67 ) ;
#21 = ORIENTED_EDGE ( 'NONE', *, *, #407, .T. ) ;
#22 = CARTESIAN_POINT ( 'NONE',  ( 15.50000000000000000, -0.5000000000000000000, -5.000000000000000000 ) ) ;
#23 = ORIENTED_EDGE ( 'NONE', *, *, #1010, .T. ) ;
#24 = DIRECTION ( 'NONE',  ( -0.000000000000000000, 1.000000000000000000, 0.000000000000000000 ) ) ;
#25 = VERTEX_POINT ( 'NONE', #809 ) ;
#26 = LINE ( 'NONE', #217, #1162 ) ;
#27 = EDGE_CURVE ( 'NONE', #802, #380, #894, .T. ) ;
#28 = VERTEX_POINT ( 'NONE', #73 ) ;
#29 = PLANE ( 'NONE',  #219 ) ;
#30 = ORIENTED_EDGE ( 'NONE', *, *, #188, .T. ) ;
#31 = CARTESIAN_POINT ( 'NONE',  ( 12.50000000000000000, 5.000000000000000000, -5.000000000000000000 ) ) ;
#32 = EDGE_CURVE ( 'NONE', #78, #656, #1089, .T. ) ;
#33 = ORIENTED_EDGE ( 'NONE', *, *, #3, .T. ) ;
#34 = TOROIDAL_SURFACE ( 'NONE', #346, 0.9999999999999560352, 0.5999999999999999778 ) ;
#35 = AXIS2_PLACEMENT_3D ( 'NONE', #1192, #176, #87 ) ;
#36 = CARTESIAN_POINT ( 'NONE',  ( 9.599999999999999645, -0.5000000000000000000, -4.500000000000000000 ) ) ;
#37 = ORIENTED_EDGE ( 'NONE', *, *, #171, .T. ) ;
#38 = LINE ( 'NONE', #766, #991 ) ;
#39 = EDGE_LOOP ( 'NONE', ( #1150, #297, #146, #762 ) ) ;
#40 = ADVANCED_FACE ( 'NONE', ( #986 ), #899, .T. ) ;
#41 = EDGE_CURVE ( 'NONE', #775, #51, #529, .T. ) ;
#42 = DIRECTION ( 'NONE',  ( 0.000000000000000000, 0.000000000000000000, -1.000000000000000000 ) ) ;
#43 = ORIENTED_EDGE ( 'NONE', *, *, #996, .T. ) ;
#44 = PLANE ( 'NONE',  #500 ) ;
#45 = DIRECTION ( 'NONE',  ( 0.000000000000000000, 0.000000000000000000, -1.000000000000000000 ) ) ;
#46 = ORIENTED_EDGE ( 'NONE', *, *, #345, .F. ) ;
#47 = DIRECTION ( 'NONE',  ( 1.000000000000000000, 0.000000000000000000, 0.000000000000000000 ) ) ;
#48 = ORIENTED_EDGE ( 'NONE', *, *, #692, .F. ) ;
#49 = FACE_OUTER_BOUND ( 'NONE', #97, .T. ) ;
#50 = FACE_OUTER_BOUND ( 'NONE', #228, .T. ) ;
#51 = VERTEX_POINT ( 'NONE', #718 ) ;
#52 = VECTOR ( 'NONE', #643, 1000.000000000000000 ) ;
#53 = CARTESIAN_POINT ( 'NONE',  ( 9.599999999999999645, -0.5000000000000000000, -4.500000000000000000 ) ) ;
#54 = EDGE_CURVE ( 'NONE', #1102, #1203, #1184, .T. ) ;
#55 = CIRCLE ( 'NONE', #734, 0.5999999999999998668 ) ;
#56 = EDGE_LOOP ( 'NONE', ( #897, #912 ) ) ;
#57 = DIRECTION ( 'NONE',  ( 1.000000000000000000, 0.000000000000000000, 0.000000000000000000 ) ) ;
#58 = VECTOR ( 'NONE', #1157, 1000.000000000000000 ) ;
#59 = DIRECTION ( 'NONE',  ( 0.000000000000000000, 1.000000000000000000, 0.000000000000000000 ) ) ;
#60 = ORIENTED_EDGE ( 'NONE', *, *, #621, .F. ) ;
#61 = CARTESIAN_POINT ( 'NONE',  ( 15.50000000000000000, -0.5000000000000000000, 5.000000000000000000 ) ) ;
#62 = DIRECTION ( 'NONE',  ( 0.000000000000000000, -1.000000000000000000, 0.000000000000000000 ) ) ;
#63 = CARTESIAN_POINT ( 'NONE',  ( -11.25677643628300117, 5.000000000000000000, -5.799999999999999822 ) ) ;
#64 = PLANE ( 'NONE',  #1065 ) ;
#65 = ORIENTED_EDGE ( 'NONE', *, *, #1199, .T. ) ;
#66 = CARTESIAN_POINT ( 'NONE',  ( 10.69999999999999929, 5.000000000000000000, 5.899999999999899991 ) ) ;
#67 = CARTESIAN_POINT ( 'NONE',  ( -9.099999999999999645, 5.000000000000000000, 5.000000000000000000 ) ) ;
#68 = LINE ( 'NONE', #419, #481 ) ;
#69 = DIRECTION ( 'NONE',  ( 0.000000000000000000, -1.000000000000000000, 0.000000000000000000 ) ) ;
#70 = VERTEX_POINT ( 'NONE', #1193 ) ;
#71 = LINE ( 'NONE', #275, #988 ) ;
#72 = AXIS2_PLACEMENT_3D ( 'NONE', #77, #447, #720 ) ;
#73 = CARTESIAN_POINT ( 'NONE',  ( 10.14322356371709866, 5.000000000000000000, 5.799999999999999822 ) ) ;
#74 = DIRECTION ( 'NONE',  ( -0.7071067811865460184, 0.000000000000000000, 0.7071067811865489050 ) ) ;
#75 = AXIS2_PLACEMENT_3D ( 'NONE', #89, #203, #190 ) ;
#76 = VECTOR ( 'NONE', #251, 1000.000000000000000 ) ;
#77 = CARTESIAN_POINT ( 'NONE',  ( 10.69999999999999929, 5.700000000000000178, 4.299999999999950084 ) ) ;
#78 = VERTEX_POINT ( 'NONE', #378 ) ;
#79 = EDGE_CURVE ( 'NONE', #851, #820, #835, .T. ) ;
#80 = ORIENTED_EDGE ( 'NONE', *, *, #476, .T. ) ;
#81 = EDGE_CURVE ( 'NONE', #230, #70, #1023, .T. ) ;
#82 = CARTESIAN_POINT ( 'NONE',  ( 16.00000000000000000, 5.000000000000000000, -5.000000000000000000 ) ) ;
#83 = DIRECTION ( 'NONE',  ( 0.000000000000000000, -1.000000000000000000, 0.000000000000000000 ) ) ;
#84 = DIRECTION ( 'NONE',  ( 1.000000000000000000, 0.000000000000000000, 0.000000000000000000 ) ) ;
#85 = DIRECTION ( 'NONE',  ( 0.000000000000000000, -1.000000000000000000, 0.000000000000000000 ) ) ;
#86 = EDGE_LOOP ( 'NONE', ( #659, #1110 ) ) ;
#87 = DIRECTION ( 'NONE',  ( 0.000000000000000000, -1.000000000000000000, 0.000000000000000000 ) ) ;
#88 = EDGE_CURVE ( 'NONE', #965, #6, #565, .T. ) ;
#89 = CARTESIAN_POINT ( 'NONE',  ( -12.00000000000000000, -0.5000000000000000000, 4.500000000000000000 ) ) ;
#90 = LINE ( 'NONE', #854, #1204 ) ;
#91 = CARTESIAN_POINT ( 'NONE',  ( -9.799999999999998934, -0.5000000000000000000, -5.799999999999999822 ) ) ;
#92 = DIRECTION ( 'NONE',  ( 0.7071067811865470176, 0.000000000000000000, 0.7071067811865480168 ) ) ;
#93 = ADVANCED_FACE ( 'NONE', ( #1105 ), #278, .T. ) ;
#94 = VECTOR ( 'NONE', #398, 1000.000000000000000 ) ;
#95 = LINE ( 'NONE', #748, #218 ) ;
#96 = CIRCLE ( 'NONE', #349, 1.600000000000050271 ) ;
#97 = EDGE_LOOP ( 'NONE', ( #250, #303, #318, #1040 ) ) ;
#98 = CARTESIAN_POINT ( 'NONE',  ( 10.69999999999999929, 5.700000000000000178, 3.299999999999994049 ) ) ;
#99 = CARTESIAN_POINT ( 'NONE',  ( -12.40000000000000036, -0.5000000000000000000, -5.000000000000000000 ) ) ;
#100 = ORIENTED_EDGE ( 'NONE', *, *, #183, .T. ) ;
#101 = CARTESIAN_POINT ( 'NONE',  ( 10.69999999999999929, 5.700000000000000178, 5.899999999999899991 ) ) ;
#102 = ORIENTED_EDGE ( 'NONE', *, *, #333, .T. ) ;
#103 = CARTESIAN_POINT ( 'NONE',  ( -10.69999999999999929, 5.000000000000000000, -2.699999999999899369 ) ) ;
#104 = DIRECTION ( 'NONE',  ( 0.000000000000000000, -1.000000000000000000, 0.000000000000000000 ) ) ;
#105 = ORIENTED_EDGE ( 'NONE', *, *, #266, .T. ) ;
#106 = DIRECTION ( 'NONE',  ( 0.000000000000000000, -1.000000000000000000, 0.000000000000000000 ) ) ;
#107 = VERTEX_POINT ( 'NONE', #1099 ) ;
#108 = EDGE_CURVE ( 'NONE', #859, #883, #185, .T. ) ;
#109 = DIRECTION ( 'NONE',  ( 0.7071067811865480168, 0.000000000000000000, -0.7071067811865470176 ) ) ;
#110 = CARTESIAN_POINT ( 'NONE',  ( 9.799999999999998934, -0.5000000000000000000, 5.799999999999999822 ) ) ;
#111 = ORIENTED_EDGE ( 'NONE', *, *, #345, .T. ) ;
#112 = EDGE_LOOP ( 'NONE', ( #1045, #459, #306, #1058 ) ) ;
#113 = DIRECTION ( 'NONE',  ( -0.7071067811865470176, 0.000000000000000000, 0.7071067811865480168 ) ) ;
#114 = CIRCLE ( 'NONE', #946, 1.599999999999949907 ) ;
#115 = VERTEX_POINT ( 'NONE', #463 ) ;
#116 = AXIS2_PLACEMENT_3D ( 'NONE', #797, #1171, #337 ) ;
#117 = VECTOR ( 'NONE', #202, 1000.000000000000000 ) ;
#118 = FACE_OUTER_BOUND ( 'NONE', #513, .T. ) ;
#119 = ADVANCED_FACE ( 'NONE', ( #549 ), #920, .T. ) ;
#120 = SURFACE_SIDE_STYLE ('',( #400 ) ) ;
#121 = ORIENTED_EDGE ( 'NONE', *, *, #1039, .F. ) ;
#122 = DIRECTION ( 'NONE',  ( 0.000000000000000000, 0.000000000000000000, 1.000000000000000000 ) ) ;
#123 = ORIENTED_EDGE ( 'NONE', *, *, #354, .F. ) ;
#124 = ADVANCED_FACE ( 'NONE', ( #554 ), #456, .T. ) ;
#125 = ORIENTED_EDGE ( 'NONE', *, *, #1084, .F. ) ;
#126 = DIRECTION ( 'NONE',  ( 0.000000000000000000, 1.000000000000000000, 0.000000000000000000 ) ) ;
#127 = EDGE_LOOP ( 'NONE', ( #1043, #468, #121, #204, #132, #614 ) ) ;
#128 = DIRECTION ( 'NONE',  ( -1.000000000000000000, -0.000000000000000000, -0.000000000000000000 ) ) ;
#129 = ORIENTED_EDGE ( 'NONE', *, *, #319, .T. ) ;
#130 = DIRECTION ( 'NONE',  ( 0.000000000000000000, 1.000000000000000000, 0.000000000000000000 ) ) ;
#131 = EDGE_CURVE ( 'NONE', #1155, #903, #279, .T. ) ;
#132 = ORIENTED_EDGE ( 'NONE', *, *, #822, .F. ) ;
#133 = PRODUCT ( 'SY3000-26-10A', 'SY3000-26-10A', '', ( #550 ) ) ;
#134 = CIRCLE ( 'NONE', #197, 0.5999999999999998668 ) ;
#135 = VECTOR ( 'NONE', #148, 1000.000000000000000 ) ;
#136 = LINE ( 'NONE', #36, #582 ) ;
#137 = ORIENTED_EDGE ( 'NONE', *, *, #993, .F. ) ;
#138 = DIRECTION ( 'NONE',  ( 0.000000000000000000, -1.000000000000000000, 0.000000000000000000 ) ) ;
#139 = DIRECTION ( 'NONE',  ( 0.000000000000000000, -1.000000000000000000, 0.000000000000000000 ) ) ;
#140 = EDGE_LOOP ( 'NONE', ( #220, #707, #409, #1026 ) ) ;
#141 = EDGE_CURVE ( 'NONE', #245, #1174, #737, .T. ) ;
#142 = DIRECTION ( 'NONE',  ( 0.000000000000000000, -1.000000000000000000, 0.000000000000000000 ) ) ;
#143 = ORIENTED_EDGE ( 'NONE', *, *, #538, .T. ) ;
#144 = CARTESIAN_POINT ( 'NONE',  ( -15.50000000000000000, -0.5000000000000000000, -5.000000000000000000 ) ) ;
#145 = FACE_OUTER_BOUND ( 'NONE', #1169, .T. ) ;
#146 = ORIENTED_EDGE ( 'NONE', *, *, #1156, .F. ) ;
#147 = EDGE_CURVE ( 'NONE', #702, #952, #559, .T. ) ;
#148 = DIRECTION ( 'NONE',  ( 0.000000000000000000, 0.000000000000000000, 1.000000000000000000 ) ) ;
#149 = ORIENTED_EDGE ( 'NONE', *, *, #514, .F. ) ;
#150 = DIRECTION ( 'NONE',  ( 0.000000000000000000, -1.000000000000000000, 0.000000000000000000 ) ) ;
#151 = EDGE_LOOP ( 'NONE', ( #842, #954, #209, #1009, #358, #974 ) ) ;
#152 = VECTOR ( 'NONE', #1200, 1000.000000000000000 ) ;
#153 = PRESENTATION_LAYER_ASSIGNMENT (  '', '', ( #674 ) ) ;
#154 = CARTESIAN_POINT ( 'NONE',  ( 12.50000000000000000, 5.000000000000000000, -5.000000000000000000 ) ) ;
#155 = VECTOR ( 'NONE', #973, 1000.000000000000000 ) ;
#156 = EDGE_CURVE ( 'NONE', #580, #606, #1031, .T. ) ;
#157 = CARTESIAN_POINT ( 'NONE',  ( 10.69999999999999929, 5.000000000000000000, 4.299999999999950084 ) ) ;
#158 = CARTESIAN_POINT ( 'NONE',  ( 12.50000000000000000, -0.5000000000000000000, -5.000000000000000000 ) ) ;
#159 = VECTOR ( 'NONE', #1173, 1000.000000000000000 ) ;
#160 = LINE ( 'NONE', #1091, #403 ) ;
#161 = ORIENTED_EDGE ( 'NONE', *, *, #370, .F. ) ;
#162 = CARTESIAN_POINT ( 'NONE',  ( -9.099999999999999645, 5.000000000000000000, 5.000000000000000000 ) ) ;
#163 = ORIENTED_EDGE ( 'NONE', *, *, #807, .F. ) ;
#164 = FACE_OUTER_BOUND ( 'NONE', #589, .T. ) ;
#165 = EDGE_CURVE ( 'NONE', #965, #802, #1019, .T. ) ;
#166 = DIRECTION ( 'NONE',  ( -1.000000000000000000, 0.000000000000000000, 0.000000000000000000 ) ) ;
#167 = VERTEX_POINT ( 'NONE', #289 ) ;
#168 = LINE ( 'NONE', #336, #583 ) ;
#169 = LINE ( 'NONE', #980, #462 ) ;
#170 = DIRECTION ( 'NONE',  ( 0.000000000000000000, -1.000000000000000000, 0.000000000000000000 ) ) ;
#171 = EDGE_CURVE ( 'NONE', #1068, #193, #632, .T. ) ;
#172 = DIRECTION ( 'NONE',  ( 0.000000000000000000, -1.000000000000000000, 0.000000000000000000 ) ) ;
#173 = ORIENTED_EDGE ( 'NONE', *, *, #662, .T. ) ;
#174 = ADVANCED_FACE ( 'NONE', ( #195 ), #347, .T. ) ;
#175 = VERTEX_POINT ( 'NONE', #840 ) ;
#176 = DIRECTION ( 'NONE',  ( 0.000000000000000000, 0.000000000000000000, -1.000000000000000000 ) ) ;
#177 = PRODUCT_DEFINITION_FORMATION_WITH_SPECIFIED_SOURCE ( 'ANY', '', #133, .NOT_KNOWN. ) ;
#178 = DIRECTION ( 'NONE',  ( 0.000000000000000000, -1.000000000000000000, 0.000000000000000000 ) ) ;
#179 = APPLICATION_PROTOCOL_DEFINITION ( 'draft international standard', 'automotive_design', 1998, #804 ) ;
#180 = VECTOR ( 'NONE', #695, 1000.000000000000000 ) ;
#181 = DIRECTION ( 'NONE',  ( 0.000000000000000000, 0.000000000000000000, -1.000000000000000000 ) ) ;
#182 = ORIENTED_EDGE ( 'NONE', *, *, #407, .F. ) ;
#183 = EDGE_CURVE ( 'NONE', #440, #28, #543, .T. ) ;
#184 = CARTESIAN_POINT ( 'NONE',  ( 10.69999999999999929, 5.700000000000000178, 2.699999999999999734 ) ) ;
#185 = LINE ( 'NONE', #365, #540 ) ;
#186 = DIRECTION ( 'NONE',  ( 0.000000000000000000, 0.000000000000000000, 1.000000000000000000 ) ) ;
#187 = CARTESIAN_POINT ( 'NONE',  ( 16.00000000000000000, 0.000000000000000000, -5.000000000000000000 ) ) ;
#188 = EDGE_CURVE ( 'NONE', #1155, #475, #238, .T. ) ;
#189 = DIRECTION ( 'NONE',  ( 0.000000000000000000, -1.000000000000000000, 0.000000000000000000 ) ) ;
#190 = DIRECTION ( 'NONE',  ( 1.000000000000000000, 0.000000000000000000, 0.000000000000000000 ) ) ;
#191 = PRODUCT_DEFINITION_CONTEXT ( 'detailed design', #313, 'design' ) ;
#192 = CARTESIAN_POINT ( 'NONE',  ( 9.099999999999999645, 5.000000000000000000, -5.000000000000000000 ) ) ;
#193 = VERTEX_POINT ( 'NONE', #1147 ) ;
#194 = CARTESIAN_POINT ( 'NONE',  ( 16.00000000000000000, 5.000000000000000000, -5.000000000000000000 ) ) ;
#195 = FACE_OUTER_BOUND ( 'NONE', #1078, .T. ) ;
#196 = EDGE_CURVE ( 'NONE', #779, #245, #850, .T. ) ;
#197 = AXIS2_PLACEMENT_3D ( 'NONE', #1178, #1077, #351 ) ;
#198 = DIRECTION ( 'NONE',  ( 0.000000000000000000, 0.000000000000000000, -1.000000000000000000 ) ) ;
#199 = AXIS2_PLACEMENT_3D ( 'NONE', #1197, #104, #930 ) ;
#200 = AXIS2_PLACEMENT_3D ( 'NONE', #270, #557, #631 ) ;
#201 = ORIENTED_EDGE ( 'NONE', *, *, #1079, .F. ) ;
#202 = DIRECTION ( 'NONE',  ( 0.000000000000000000, -1.000000000000000000, 0.000000000000000000 ) ) ;
#203 = DIRECTION ( 'NONE',  ( 0.000000000000000000, 0.000000000000000000, 1.000000000000000000 ) ) ;
#204 = ORIENTED_EDGE ( 'NONE', *, *, #41, .F. ) ;
#205 = EDGE_CURVE ( 'NONE', #1176, #851, #1135, .T. ) ;
#206 = DIRECTION ( 'NONE',  ( -1.000000000000000000, 0.000000000000000000, 0.000000000000000000 ) ) ;
#207 = ORIENTED_EDGE ( 'NONE', *, *, #607, .F. ) ;
#208 = DIRECTION ( 'NONE',  ( 0.000000000000000000, -1.000000000000000000, 0.000000000000000000 ) ) ;
#209 = ORIENTED_EDGE ( 'NONE', *, *, #507, .T. ) ;
#210 = LINE ( 'NONE', #466, #867 ) ;
#211 = ORIENTED_EDGE ( 'NONE', *, *, #465, .T. ) ;
#212 = EDGE_CURVE ( 'NONE', #482, #1191, #136, .T. ) ;
#213 = LINE ( 'NONE', #414, #17 ) ;
#214 = LINE ( 'NONE', #396, #733 ) ;
#215 = UNCERTAINTY_MEASURE_WITH_UNIT (LENGTH_MEASURE( 1.000000000000000082E-05 ), #497, 'distance_accuracy_value', 'NONE');
#216 = ORIENTED_EDGE ( 'NONE', *, *, #730, .T. ) ;
#217 = CARTESIAN_POINT ( 'NONE',  ( -9.599999999999999645, -0.5000000000000000000, 4.500000000000000000 ) ) ;
#218 = VECTOR ( 'NONE', #374, 1000.000000000000000 ) ;
#219 = AXIS2_PLACEMENT_3D ( 'NONE', #680, #299, #1129 ) ;
#220 = ORIENTED_EDGE ( 'NONE', *, *, #1017, .T. ) ;
#221 = VECTOR ( 'NONE', #1118, 1000.000000000000000 ) ;
#222 = PLANE ( 'NONE',  #259 ) ;
#223 = VERTEX_POINT ( 'NONE', #302 ) ;
#224 = CARTESIAN_POINT ( 'NONE',  ( -10.69999999999999929, 5.000000000000000000, -4.299999999999950084 ) ) ;
#225 = VERTEX_POINT ( 'NONE', #1036 ) ;
#226 = EDGE_CURVE ( 'NONE', #1203, #503, #55, .T. ) ;
#227 = PLANE ( 'NONE',  #1202 ) ;
#228 = EDGE_LOOP ( 'NONE', ( #516, #23, #806, #1004 ) ) ;
#229 = LINE ( 'NONE', #593, #927 ) ;
#230 = VERTEX_POINT ( 'NONE', #957 ) ;
#231 = VERTEX_POINT ( 'NONE', #389 ) ;
#232 = LINE ( 'NONE', #499, #558 ) ;
#233 = EDGE_CURVE ( 'NONE', #375, #440, #862, .T. ) ;
#234 = CARTESIAN_POINT ( 'NONE',  ( -16.00000000000000000, 5.000000000000000000, 5.000000000000000000 ) ) ;
#235 = ORIENTED_EDGE ( 'NONE', *, *, #914, .F. ) ;
#236 = PRODUCT_DEFINITION_SHAPE ( 'NONE', 'NONE',  #1116 ) ;
#237 = CIRCLE ( 'NONE', #789, 1.600000000000050271 ) ;
#238 = CIRCLE ( 'NONE', #911, 0.9999999999999540368 ) ;
#239 = CIRCLE ( 'NONE', #970, 1.599999999999949907 ) ;
#240 = CARTESIAN_POINT ( 'NONE',  ( 15.50000000000000000, -0.5000000000000000000, 5.000000000000000000 ) ) ;
#241 = ORIENTED_EDGE ( 'NONE', *, *, #568, .F. ) ;
#242 = CARTESIAN_POINT ( 'NONE',  ( -15.50000000000000000, -0.5000000000000000000, 5.000000000000000000 ) ) ;
#243 = EDGE_CURVE ( 'NONE', #28, #78, #214, .T. ) ;
#244 = FACE_OUTER_BOUND ( 'NONE', #1016, .T. ) ;
#245 = VERTEX_POINT ( 'NONE', #967 ) ;
#246 = CARTESIAN_POINT ( 'NONE',  ( -15.50000000000000000, -0.5000000000000000000, -5.000000000000000000 ) ) ;
#247 = DIRECTION ( 'NONE',  ( 0.000000000000000000, -1.000000000000000000, 0.000000000000000000 ) ) ;
#248 =( LENGTH_UNIT ( ) NAMED_UNIT ( * ) SI_UNIT ( .MILLI., .METRE. ) );
#249 = CYLINDRICAL_SURFACE ( 'NONE', #442, 1.599999999999949907 ) ;
#250 = ORIENTED_EDGE ( 'NONE', *, *, #874, .T. ) ;
#251 = DIRECTION ( 'NONE',  ( 1.000000000000000000, 0.000000000000000000, 0.000000000000000000 ) ) ;
#252 = ORIENTED_EDGE ( 'NONE', *, *, #165, .F. ) ;
#253 = DIRECTION ( 'NONE',  ( 0.000000000000000000, 0.000000000000000000, -1.000000000000000000 ) ) ;
#254 = DIRECTION ( 'NONE',  ( 1.000000000000000000, 0.000000000000000000, 0.000000000000000000 ) ) ;
#255 = ORIENTED_EDGE ( 'NONE', *, *, #947, .F. ) ;
#256 = ADVANCED_FACE ( 'NONE', ( #961 ), #29, .T. ) ;
#257 = AXIS2_PLACEMENT_3D ( 'NONE', #157, #62, #445 ) ;
#258 = PLANE ( 'NONE',  #872 ) ;
#259 = AXIS2_PLACEMENT_3D ( 'NONE', #586, #941, #770 ) ;
#260 = ORIENTED_EDGE ( 'NONE', *, *, #141, .F. ) ;
#261 = LINE ( 'NONE', #429, #672 ) ;
#262 = ORIENTED_EDGE ( 'NONE', *, *, #141, .T. ) ;
#263 = MANIFOLD_SOLID_BREP ( 'Imported1', #715 ) ;
#264 = CARTESIAN_POINT ( 'NONE',  ( -15.50000000000000000, -0.5000000000000000000, 5.000000000000000000 ) ) ;
#265 = ORIENTED_EDGE ( 'NONE', *, *, #514, .T. ) ;
#266 = EDGE_CURVE ( 'NONE', #1174, #225, #661, .T. ) ;
#267 = CARTESIAN_POINT ( 'NONE',  ( -10.69999999999999929, 5.700000000000000178, -4.299999999999950084 ) ) ;
#268 = VERTEX_POINT ( 'NONE', #492 ) ;
#269 = ORIENTED_EDGE ( 'NONE', *, *, #568, .T. ) ;
#270 = CARTESIAN_POINT ( 'NONE',  ( 15.50000000000000000, -0.5000000000000000000, 5.000000000000000000 ) ) ;
#271 = DIRECTION ( 'NONE',  ( 0.000000000000000000, -1.000000000000000000, 0.000000000000000000 ) ) ;
#272 = CARTESIAN_POINT ( 'NONE',  ( 16.00000000000000000, 0.000000000000000000, -5.000000000000000000 ) ) ;
#273 = ORIENTED_EDGE ( 'NONE', *, *, #1039, .T. ) ;
#274 = EDGE_LOOP ( 'NONE', ( #781, #1095, #390, #584 ) ) ;
#275 = CARTESIAN_POINT ( 'NONE',  ( -16.00000000000000000, 5.000000000000000000, 5.000000000000000000 ) ) ;
#276 = AXIS2_PLACEMENT_3D ( 'NONE', #1132, #300, #1107 ) ;
#277 = AXIS2_PLACEMENT_3D ( 'NONE', #1166, #615, #791 ) ;
#278 = PLANE ( 'NONE',  #869 ) ;
#279 = CIRCLE ( 'NONE', #1201, 0.5999999999999998668 ) ;
#280 = VECTOR ( 'NONE', #847, 1000.000000000000000 ) ;
#281 = PLANE ( 'NONE',  #1047 ) ;
#282 = EDGE_CURVE ( 'NONE', #863, #580, #308, .T. ) ;
#283 = LINE ( 'NONE', #82, #1090 ) ;
#284 = DIRECTION ( 'NONE',  ( 1.000000000000000000, 0.000000000000000000, -1.224646799147353207E-16 ) ) ;
#285 = LINE ( 'NONE', #474, #1198 ) ;
#286 = ORIENTED_EDGE ( 'NONE', *, *, #282, .F. ) ;
#287 = ADVANCED_FACE ( 'NONE', ( #1051 ), #222, .T. ) ;
#288 = CARTESIAN_POINT ( 'NONE',  ( 9.599999999999999645, 5.000000000000000000, -4.500000000000000000 ) ) ;
#289 = CARTESIAN_POINT ( 'NONE',  ( -9.599999999999999645, 5.000000000000000000, 4.500000000000000000 ) ) ;
#290 = DIRECTION ( 'NONE',  ( 0.000000000000000000, 1.000000000000000000, 0.000000000000000000 ) ) ;
#291 = CARTESIAN_POINT ( 'NONE',  ( -12.40000000000000036, -0.5000000000000000000, -5.000000000000000000 ) ) ;
#292 = CARTESIAN_POINT ( 'NONE',  ( -9.000000000000158096, -0.5000000000000000000, -5.000000000000000000 ) ) ;
#293 = ORIENTED_EDGE ( 'NONE', *, *, #147, .T. ) ;
#294 = CIRCLE ( 'NONE', #72, 1.599999999999949907 ) ;
#295 = CARTESIAN_POINT ( 'NONE',  ( 16.00000000000000000, 0.000000000000000000, 5.000000000000000000 ) ) ;
#296 = AXIS2_PLACEMENT_3D ( 'NONE', #1093, #142, #42 ) ;
#297 = ORIENTED_EDGE ( 'NONE', *, *, #495, .F. ) ;
#298 = CARTESIAN_POINT ( 'NONE',  ( -12.50000000000000000, 5.000000000000000000, 5.000000000000000000 ) ) ;
#299 = DIRECTION ( 'NONE',  ( 0.000000000000000000, 0.000000000000000000, -1.000000000000000000 ) ) ;
#300 = DIRECTION ( 'NONE',  ( 0.000000000000000000, -1.000000000000000000, 0.000000000000000000 ) ) ;
#301 = LINE ( 'NONE', #665, #852 ) ;
#302 = CARTESIAN_POINT ( 'NONE',  ( 9.599999999999999645, 5.000000000000000000, -4.500000000000000000 ) ) ;
#303 = ORIENTED_EDGE ( 'NONE', *, *, #1071, .F. ) ;
#304 = FACE_OUTER_BOUND ( 'NONE', #648, .T. ) ;
#305 = ADVANCED_FACE ( 'NONE', ( #1057 ), #227, .T. ) ;
#306 = ORIENTED_EDGE ( 'NONE', *, *, #266, .F. ) ;
#307 = CARTESIAN_POINT ( 'NONE',  ( -12.00000000000000000, 5.000000000000000000, 4.500000000000000000 ) ) ;
#308 = LINE ( 'NONE', #571, #329 ) ;
#309 = ORIENTED_EDGE ( 'NONE', *, *, #319, .F. ) ;
#310 = DIRECTION ( 'NONE',  ( 0.000000000000000000, 1.000000000000000000, 0.000000000000000000 ) ) ;
#311 = VECTOR ( 'NONE', #206, 1000.000000000000000 ) ;
#312 = EDGE_CURVE ( 'NONE', #606, #115, #898, .T. ) ;
#313 = APPLICATION_CONTEXT ( 'automotive_design' ) ;
#314 = AXIS2_PLACEMENT_3D ( 'NONE', #1006, #741, #1121 ) ;
#315 = SURFACE_STYLE_USAGE ( .BOTH. , #120 ) ;
#316 = ORIENTED_EDGE ( 'NONE', *, *, #212, .F. ) ;
#317 = CARTESIAN_POINT ( 'NONE',  ( 9.000000000000119016, -0.5000000000000000000, 5.000000000000000000 ) ) ;
#318 = ORIENTED_EDGE ( 'NONE', *, *, #1122, .F. ) ;
#319 = EDGE_CURVE ( 'NONE', #903, #656, #999, .T. ) ;
#320 = DIRECTION ( 'NONE',  ( 0.000000000000000000, 0.000000000000000000, -1.000000000000000000 ) ) ;
#321 = ORIENTED_EDGE ( 'NONE', *, *, #3, .F. ) ;
#322 = CARTESIAN_POINT ( 'NONE',  ( -9.799999999999998934, 5.000000000000000000, -5.799999999999999822 ) ) ;
#323 = ORIENTED_EDGE ( 'NONE', *, *, #1109, .T. ) ;
#324 = LINE ( 'NONE', #61, #677 ) ;
#325 = EDGE_LOOP ( 'NONE', ( #629, #48, #399, #592 ) ) ;
#326 = CARTESIAN_POINT ( 'NONE',  ( 15.50000000000000000, 0.000000000000000000, 5.000000000000000000 ) ) ;
#327 = DIRECTION ( 'NONE',  ( 0.000000000000000000, 0.000000000000000000, -1.000000000000000000 ) ) ;
#328 = ORIENTED_EDGE ( 'NONE', *, *, #1071, .T. ) ;
#329 = VECTOR ( 'NONE', #673, 999.9999999999998863 ) ;
#330 = LINE ( 'NONE', #796, #1029 ) ;
#331 = DIRECTION ( 'NONE',  ( 0.000000000000000000, 0.000000000000000000, -1.000000000000000000 ) ) ;
#332 = LINE ( 'NONE', #1177, #987 ) ;
#333 = EDGE_CURVE ( 'NONE', #1203, #1102, #1050, .T. ) ;
#334 = CARTESIAN_POINT ( 'NONE',  ( 9.799999999999998934, 5.000000000000000000, 5.799999999999999822 ) ) ;
#335 = VERTEX_POINT ( 'NONE', #613 ) ;
#336 = CARTESIAN_POINT ( 'NONE',  ( 16.00000000000000000, 5.000000000000000000, 5.000000000000000000 ) ) ;
#337 = DIRECTION ( 'NONE',  ( 1.000000000000000000, 0.000000000000000000, 0.000000000000000000 ) ) ;
#338 =( NAMED_UNIT ( * ) SI_UNIT ( $, .STERADIAN. ) SOLID_ANGLE_UNIT ( ) );
#339 = EDGE_LOOP ( 'NONE', ( #111, #573, #255, #173 ) ) ;
#340 = EDGE_CURVE ( 'NONE', #1191, #886, #330, .T. ) ;
#341 = LINE ( 'NONE', #515, #135 ) ;
#342 = CARTESIAN_POINT ( 'NONE',  ( -10.69999999999999929, 6.299999999999999822, -5.299999999999999822 ) ) ;
#343 = CARTESIAN_POINT ( 'NONE',  ( 10.69999999999999929, 5.000000000000000000, 4.299999999999950084 ) ) ;
#344 = ORIENTED_EDGE ( 'NONE', *, *, #607, .T. ) ;
#345 = EDGE_CURVE ( 'NONE', #107, #618, #341, .T. ) ;
#346 = AXIS2_PLACEMENT_3D ( 'NONE', #969, #138, #581 ) ;
#347 = TOROIDAL_SURFACE ( 'NONE', #598, 0.9999999999999560352, 0.5999999999999999778 ) ;
#348 = CARTESIAN_POINT ( 'NONE',  ( -9.000000000000158096, -0.5000000000000000000, -5.000000000000000000 ) ) ;
#349 = AXIS2_PLACEMENT_3D ( 'NONE', #940, #576, #327 ) ;
#350 = DIRECTION ( 'NONE',  ( -1.000000000000000000, 0.000000000000000000, 0.000000000000000000 ) ) ;
#351 = DIRECTION ( 'NONE',  ( 0.000000000000000000, 0.000000000000000000, -1.000000000000000000 ) ) ;
#352 = EDGE_LOOP ( 'NONE', ( #43, #831, #1141, #293 ) ) ;
#353 = DIRECTION ( 'NONE',  ( -0.7071067811865480168, 0.000000000000000000, -0.7071067811865470176 ) ) ;
#354 = EDGE_CURVE ( 'NONE', #603, #78, #753, .T. ) ;
#355 = DIRECTION ( 'NONE',  ( 0.000000000000000000, 0.000000000000000000, 1.000000000000000000 ) ) ;
#356 =( NAMED_UNIT ( * ) SI_UNIT ( $, .STERADIAN. ) SOLID_ANGLE_UNIT ( ) );
#357 = CARTESIAN_POINT ( 'NONE',  ( 9.099999999999999645, -0.5000000000000000000, -5.000000000000000000 ) ) ;
#358 = ORIENTED_EDGE ( 'NONE', *, *, #88, .F. ) ;
#359 = ORIENTED_EDGE ( 'NONE', *, *, #739, .T. ) ;
#360 = PLANE ( 'NONE',  #35 ) ;
#361 = DIRECTION ( 'NONE',  ( 1.000000000000000000, 0.000000000000000000, 0.000000000000000000 ) ) ;
#362 = CARTESIAN_POINT ( 'NONE',  ( -11.59999999999999964, 5.000000000000000000, -5.799999999999999822 ) ) ;
#363 = CARTESIAN_POINT ( 'NONE',  ( 10.69999999999999929, 6.299999999999999822, 3.299999999999995826 ) ) ;
#364 = VECTOR ( 'NONE', #504, 1000.000000000000000 ) ;
#365 = CARTESIAN_POINT ( 'NONE',  ( 16.00000000000000000, 0.000000000000000000, 5.000000000000000000 ) ) ;
#366 = UNCERTAINTY_MEASURE_WITH_UNIT (LENGTH_MEASURE( 1.000000000000000082E-05 ), #1076, 'distance_accuracy_value', 'NONE');
#367 = VECTOR ( 'NONE', #984, 1000.000000000000000 ) ;
#368 = VECTOR ( 'NONE', #381, 1000.000000000000000 ) ;
#369 = CARTESIAN_POINT ( 'NONE',  ( -9.599999999999999645, -0.5000000000000000000, 4.500000000000000000 ) ) ;
#370 = EDGE_CURVE ( 'NONE', #1174, #859, #168, .T. ) ;
#371 = VERTEX_POINT ( 'NONE', #154 ) ;
#372 = DIRECTION ( 'NONE',  ( 0.000000000000000000, 1.000000000000000000, 0.000000000000000000 ) ) ;
#373 = CARTESIAN_POINT ( 'NONE',  ( 15.50000000000000000, -0.5000000000000000000, -5.000000000000000000 ) ) ;
#374 = DIRECTION ( 'NONE',  ( -1.000000000000000000, 0.000000000000000000, 0.000000000000000000 ) ) ;
#375 = VERTEX_POINT ( 'NONE', #704 ) ;
#376 = ADVANCED_FACE ( 'NONE', ( #1170 ), #1181, .T. ) ;
#377 = FACE_OUTER_BOUND ( 'NONE', #861, .T. ) ;
#378 = CARTESIAN_POINT ( 'NONE',  ( 11.25677643628289992, 5.000000000000000000, 5.799999999999999822 ) ) ;
#379 = DIRECTION ( 'NONE',  ( 0.000000000000000000, 0.000000000000000000, -1.000000000000000000 ) ) ;
#380 = VERTEX_POINT ( 'NONE', #625 ) ;
#381 = DIRECTION ( 'NONE',  ( 1.000000000000000000, 0.000000000000000000, 0.000000000000000000 ) ) ;
#382 = DIRECTION ( 'NONE',  ( -0.7071067811865460184, 0.000000000000000000, -0.7071067811865489050 ) ) ;
#383 = AXIS2_PLACEMENT_3D ( 'NONE', #926, #198, #841 ) ;
#384 = DIRECTION ( 'NONE',  ( 0.000000000000000000, -1.000000000000000000, 0.000000000000000000 ) ) ;
#385 = AXIS2_PLACEMENT_3D ( 'NONE', #292, #1206, #271 ) ;
#386 = VECTOR ( 'NONE', #1021, 1000.000000000000000 ) ;
#387 = ORIENTED_EDGE ( 'NONE', *, *, #993, .T. ) ;
#388 = CARTESIAN_POINT ( 'NONE',  ( -12.50000000000000000, 5.000000000000000000, 5.000000000000000000 ) ) ;
#389 = CARTESIAN_POINT ( 'NONE',  ( -10.69999999999999929, 5.700000000000000178, -2.699999999999899369 ) ) ;
#390 = ORIENTED_EDGE ( 'NONE', *, *, #996, .F. ) ;
#391 = EDGE_CURVE ( 'NONE', #20, #375, #416, .T. ) ;
#392 = VERTEX_POINT ( 'NONE', #348 ) ;
#393 = DIRECTION ( 'NONE',  ( -1.000000000000000000, 0.000000000000000000, 0.000000000000000000 ) ) ;
#394 = ORIENTED_EDGE ( 'NONE', *, *, #495, .T. ) ;
#395 = DIRECTION ( 'NONE',  ( 0.000000000000000000, 0.000000000000000000, -1.000000000000000000 ) ) ;
#396 = CARTESIAN_POINT ( 'NONE',  ( 9.799999999999998934, 5.000000000000000000, 5.799999999999999822 ) ) ;
#397 = ORIENTED_EDGE ( 'NONE', *, *, #79, .F. ) ;
#398 = DIRECTION ( 'NONE',  ( 0.000000000000000000, -1.000000000000000000, 0.000000000000000000 ) ) ;
#399 = ORIENTED_EDGE ( 'NONE', *, *, #1002, .F. ) ;
#400 = SURFACE_STYLE_FILL_AREA ( #1061 ) ;
#401 = ORIENTED_EDGE ( 'NONE', *, *, #79, .T. ) ;
#402 = DIRECTION ( 'NONE',  ( 0.000000000000000000, 0.000000000000000000, 1.000000000000000000 ) ) ;
#403 = VECTOR ( 'NONE', #526, 1000.000000000000000 ) ;
#404 = AXIS2_PLACEMENT_3D ( 'NONE', #432, #1087, #994 ) ;
#405 = ORIENTED_EDGE ( 'NONE', *, *, #441, .T. ) ;
#406 = AXIS2_PLACEMENT_3D ( 'NONE', #53, #717, #689 ) ;
#407 = EDGE_CURVE ( 'NONE', #193, #965, #324, .T. ) ;
#408 = CARTESIAN_POINT ( 'NONE',  ( 11.59999999999999964, 5.000000000000000000, 5.799999999999999822 ) ) ;
#409 = ORIENTED_EDGE ( 'NONE', *, *, #457, .F. ) ;
#410 = DIRECTION ( 'NONE',  ( -1.000000000000000000, 0.000000000000000000, 0.000000000000000000 ) ) ;
#411 = DIRECTION ( 'NONE',  ( 0.000000000000000000, 0.000000000000000000, -1.000000000000000000 ) ) ;
#412 = EDGE_LOOP ( 'NONE', ( #435, #1189, #201, #493 ) ) ;
#413 = DIRECTION ( 'NONE',  ( -1.000000000000000000, 0.000000000000000000, 0.000000000000000000 ) ) ;
#414 = CARTESIAN_POINT ( 'NONE',  ( -9.099999999999999645, -0.5000000000000000000, 5.000000000000000000 ) ) ;
#415 = ORIENTED_EDGE ( 'NONE', *, *, #822, .T. ) ;
#416 = LINE ( 'NONE', #162, #76 ) ;
#417 = ADVANCED_FACE ( 'NONE', ( #1074 ), #620, .T. ) ;
#418 = DIRECTION ( 'NONE',  ( -1.000000000000000000, 0.000000000000000000, 0.000000000000000000 ) ) ;
#419 = CARTESIAN_POINT ( 'NONE',  ( 9.599999999999999645, -0.5000000000000000000, -4.500000000000000000 ) ) ;
#420 = VECTOR ( 'NONE', #617, 1000.000000000000000 ) ;
#421 = DIRECTION ( 'NONE',  ( 1.000000000000000000, 0.000000000000000000, 0.000000000000000000 ) ) ;
#422 = ORIENTED_EDGE ( 'NONE', *, *, #708, .T. ) ;
#423 =( GEOMETRIC_REPRESENTATION_CONTEXT ( 3 ) GLOBAL_UNCERTAINTY_ASSIGNED_CONTEXT ( ( #818 ) ) GLOBAL_UNIT_ASSIGNED_CONTEXT ( ( #248, #544, #356 ) ) REPRESENTATION_CONTEXT ( 'NONE', 'WORKASPACE' ) );
#424 = VECTOR ( 'NONE', #361, 1000.000000000000000 ) ;
#425 = VECTOR ( 'NONE', #843, 1000.000000000000114 ) ;
#426 = LINE ( 'NONE', #437, #814 ) ;
#427 = ORIENTED_EDGE ( 'NONE', *, *, #436, .T. ) ;
#428 = EDGE_CURVE ( 'NONE', #115, #70, #801, .T. ) ;
#429 = CARTESIAN_POINT ( 'NONE',  ( -12.40000000000000036, 0.000000000000000000, -5.000000000000000000 ) ) ;
#430 = ORIENTED_EDGE ( 'NONE', *, *, #657, .T. ) ;
#431 = DIRECTION ( 'NONE',  ( 0.000000000000000000, -1.000000000000000000, 0.000000000000000000 ) ) ;
#432 = CARTESIAN_POINT ( 'NONE',  ( -11.59999999999999964, -0.5000000000000000000, -5.799999999999999822 ) ) ;
#433 = CARTESIAN_POINT ( 'NONE',  ( 9.000000000000119016, -0.5000000000000000000, 5.000000000000000000 ) ) ;
#434 = DIRECTION ( 'NONE',  ( -0.7071067811865070496, 0.000000000000000000, -0.7071067811865879849 ) ) ;
#435 = ORIENTED_EDGE ( 'NONE', *, *, #649, .T. ) ;
#436 = EDGE_CURVE ( 'NONE', #886, #945, #426, .T. ) ;
#437 = CARTESIAN_POINT ( 'NONE',  ( 9.099999999999999645, 5.000000000000000000, -5.000000000000000000 ) ) ;
#438 = CARTESIAN_POINT ( 'NONE',  ( -9.799999999999998934, 5.000000000000000000, -5.799999999999999822 ) ) ;
#439 = DIRECTION ( 'NONE',  ( -1.000000000000000000, 0.000000000000000000, 0.000000000000000000 ) ) ;
#440 = VERTEX_POINT ( 'NONE', #709 ) ;
#441 = EDGE_CURVE ( 'NONE', #503, #231, #832, .T. ) ;
#442 = AXIS2_PLACEMENT_3D ( 'NONE', #343, #150, #545 ) ;
#443 = DIRECTION ( 'NONE',  ( 0.000000000000000000, 0.000000000000000000, -1.000000000000000000 ) ) ;
#444 = VECTOR ( 'NONE', #372, 1000.000000000000000 ) ;
#445 = DIRECTION ( 'NONE',  ( 0.000000000000000000, 0.000000000000000000, -1.000000000000000000 ) ) ;
#446 = SURFACE_STYLE_FILL_AREA ( #517 ) ;
#447 = DIRECTION ( 'NONE',  ( 0.000000000000000000, -1.000000000000000000, 0.000000000000000000 ) ) ;
#448 = EDGE_LOOP ( 'NONE', ( #473, #491, #1053, #359 ) ) ;
#449 = ADVANCED_FACE ( 'NONE', ( #1085 ), #258, .F. ) ;
#450 = LINE ( 'NONE', #194, #913 ) ;
#451 = CARTESIAN_POINT ( 'NONE',  ( 9.799999999999998934, -0.5000000000000000000, 5.799999999999999822 ) ) ;
#452 = APPLICATION_PROTOCOL_DEFINITION ( 'draft international standard', 'automotive_design', 1998, #313 ) ;
#453 = CARTESIAN_POINT ( 'NONE',  ( 9.099999999999999645, -0.5000000000000000000, -5.000000000000000000 ) ) ;
#454 = ORIENTED_EDGE ( 'NONE', *, *, #798, .F. ) ;
#455 = LINE ( 'NONE', #640, #464 ) ;
#456 = PLANE ( 'NONE',  #385 ) ;
#457 = EDGE_CURVE ( 'NONE', #1115, #20, #783, .T. ) ;
#458 = FACE_OUTER_BOUND ( 'NONE', #112, .T. ) ;
#459 = ORIENTED_EDGE ( 'NONE', *, *, #507, .F. ) ;
#460 = FACE_OUTER_BOUND ( 'NONE', #595, .T. ) ;
#461 = STYLED_ITEM ( 'NONE', ( #1172 ), #703 ) ;
#462 = VECTOR ( 'NONE', #418, 1000.000000000000000 ) ;
#463 = CARTESIAN_POINT ( 'NONE',  ( -15.50000000000000000, -0.5000000000000000000, 5.000000000000000000 ) ) ;
#464 = VECTOR ( 'NONE', #923, 1000.000000000000000 ) ;
#465 = EDGE_CURVE ( 'NONE', #193, #14, #1066, .T. ) ;
#466 = CARTESIAN_POINT ( 'NONE',  ( 12.00000000000000000, -0.5000000000000000000, -4.500000000000000000 ) ) ;
#467 = DIRECTION ( 'NONE',  ( 0.000000000000000000, 1.000000000000000000, 0.000000000000000000 ) ) ;
#468 = ORIENTED_EDGE ( 'NONE', *, *, #937, .F. ) ;
#469 = CARTESIAN_POINT ( 'NONE',  ( -11.59999999999999964, -0.5000000000000000000, -5.799999999999999822 ) ) ;
#470 = VERTEX_POINT ( 'NONE', #184 ) ;
#471 = DIRECTION ( 'NONE',  ( 0.000000000000000000, -1.000000000000000000, 0.000000000000000000 ) ) ;
#472 = DIRECTION ( 'NONE',  ( 0.000000000000000000, 0.000000000000000000, -1.000000000000000000 ) ) ;
#473 = ORIENTED_EDGE ( 'NONE', *, *, #914, .T. ) ;
#474 = CARTESIAN_POINT ( 'NONE',  ( -9.000000000000158096, -0.5000000000000000000, -5.000000000000000000 ) ) ;
#475 = VERTEX_POINT ( 'NONE', #363 ) ;
#476 = EDGE_CURVE ( 'NONE', #903, #470, #239, .T. ) ;
#477 = LINE ( 'NONE', #1140, #280 ) ;
#478 = VECTOR ( 'NONE', #959, 1000.000000000000000 ) ;
#479 = DIRECTION ( 'NONE',  ( 0.000000000000000000, 0.000000000000000000, 1.000000000000000000 ) ) ;
#480 = ORIENTED_EDGE ( 'NONE', *, *, #1022, .F. ) ;
#481 = VECTOR ( 'NONE', #535, 1000.000000000000000 ) ;
#482 = VERTEX_POINT ( 'NONE', #653 ) ;
#483 = PLANE ( 'NONE',  #732 ) ;
#484 = VECTOR ( 'NONE', #109, 1000.000000000000000 ) ;
#485 = ORIENTED_EDGE ( 'NONE', *, *, #956, .T. ) ;
#486 = PLANE ( 'NONE',  #795 ) ;
#487 = EDGE_CURVE ( 'NONE', #1068, #245, #1018, .T. ) ;
#488 = DIRECTION ( 'NONE',  ( 0.000000000000000000, 0.000000000000000000, -1.000000000000000000 ) ) ;
#489 = EDGE_LOOP ( 'NONE', ( #1092, #1011, #137, #46 ) ) ;
#490 = DIRECTION ( 'NONE',  ( 0.000000000000000000, -1.000000000000000000, 0.000000000000000000 ) ) ;
#491 = ORIENTED_EDGE ( 'NONE', *, *, #436, .F. ) ;
#492 = CARTESIAN_POINT ( 'NONE',  ( -9.599999999999999645, -0.5000000000000000000, 4.500000000000000000 ) ) ;
#493 = ORIENTED_EDGE ( 'NONE', *, *, #282, .T. ) ;
#494 = CARTESIAN_POINT ( 'NONE',  ( -10.69999999999999929, 5.000000000000000000, -4.299999999999950084 ) ) ;
#495 = EDGE_CURVE ( 'NONE', #223, #886, #645, .T. ) ;
#496 = EDGE_LOOP ( 'NONE', ( #309, #80, #1148, #1032, #624 ) ) ;
#497 =( LENGTH_UNIT ( ) NAMED_UNIT ( * ) SI_UNIT ( .MILLI., .METRE. ) );
#498 = ORIENTED_EDGE ( 'NONE', *, *, #1056, .F. ) ;
#499 = CARTESIAN_POINT ( 'NONE',  ( 11.59999999999999964, -0.5000000000000000000, 5.799999999999999822 ) ) ;
#500 = AXIS2_PLACEMENT_3D ( 'NONE', #144, #413, #122 ) ;
#501 = ADVANCED_FACE ( 'NONE', ( #650 ), #821, .T. ) ;
#502 = ORIENTED_EDGE ( 'NONE', *, *, #205, .F. ) ;
#503 = VERTEX_POINT ( 'NONE', #533 ) ;
#504 = DIRECTION ( 'NONE',  ( -0.7071067811865480168, 0.000000000000000000, 0.7071067811865470176 ) ) ;
#505 = CARTESIAN_POINT ( 'NONE',  ( -16.00000000000000000, 0.000000000000000000, 5.000000000000000000 ) ) ;
#506 = ORIENTED_EDGE ( 'NONE', *, *, #849, .T. ) ;
#507 = EDGE_CURVE ( 'NONE', #225, #883, #283, .T. ) ;
#508 = EDGE_CURVE ( 'NONE', #794, #1064, #1117, .T. ) ;
#509 = CARTESIAN_POINT ( 'NONE',  ( -9.099999999999999645, -0.5000000000000000000, 5.000000000000000000 ) ) ;
#510 = EDGE_LOOP ( 'NONE', ( #273, #216, #1179 ) ) ;
#511 = DIRECTION ( 'NONE',  ( 0.000000000000000000, 0.000000000000000000, -1.000000000000000000 ) ) ;
#512 = CARTESIAN_POINT ( 'NONE',  ( -12.50000000000000000, -0.5000000000000000000, 5.000000000000000000 ) ) ;
#513 = EDGE_LOOP ( 'NONE', ( #211, #65, #161, #260, #566, #37 ) ) ;
#514 = EDGE_CURVE ( 'NONE', #820, #779, #455, .T. ) ;
#515 = CARTESIAN_POINT ( 'NONE',  ( -16.00000000000000000, 0.000000000000000000, -5.000000000000000000 ) ) ;
#516 = ORIENTED_EDGE ( 'NONE', *, *, #1199, .F. ) ;
#517 = FILL_AREA_STYLE ('',( #711 ) ) ;
#518 = VECTOR ( 'NONE', #871, 1000.000000000000000 ) ;
#519 = CARTESIAN_POINT ( 'NONE',  ( 11.59999999999999964, -0.5000000000000000000, 5.799999999999999822 ) ) ;
#520 = ORIENTED_EDGE ( 'NONE', *, *, #1010, .F. ) ;
#521 = VECTOR ( 'NONE', #666, 1000.000000000000000 ) ;
#522 =( GEOMETRIC_REPRESENTATION_CONTEXT ( 3 ) GLOBAL_UNCERTAINTY_ASSIGNED_CONTEXT ( ( #215 ) ) GLOBAL_UNIT_ASSIGNED_CONTEXT ( ( #497, #857, #11 ) ) REPRESENTATION_CONTEXT ( 'NONE', 'WORKASPACE' ) );
#523 = AXIS2_PLACEMENT_3D ( 'NONE', #754, #845, #663 ) ;
#524 = DIRECTION ( 'NONE',  ( 0.000000000000000000, 0.000000000000000000, 1.000000000000000000 ) ) ;
#525 = ORIENTED_EDGE ( 'NONE', *, *, #243, .F. ) ;
#526 = DIRECTION ( 'NONE',  ( 0.000000000000000000, 1.000000000000000000, 0.000000000000000000 ) ) ;
#527 = ORIENTED_EDGE ( 'NONE', *, *, #777, .T. ) ;
#528 = CARTESIAN_POINT ( 'NONE',  ( -10.69999999999999929, 6.299999999999999822, -4.299999999999950084 ) ) ;
#529 = LINE ( 'NONE', #438, #1028 ) ;
#530 = DIRECTION ( 'NONE',  ( -0.7071067811865490160, 0.000000000000000000, -0.7071067811865461294 ) ) ;
#531 = FACE_OUTER_BOUND ( 'NONE', #855, .T. ) ;
#532 = ORIENTED_EDGE ( 'NONE', *, *, #634, .F. ) ;
#533 = CARTESIAN_POINT ( 'NONE',  ( -10.69999999999999929, 5.700000000000000178, -5.899999999999999467 ) ) ;
#534 = FACE_OUTER_BOUND ( 'NONE', #838, .T. ) ;
#535 = DIRECTION ( 'NONE',  ( 0.000000000000000000, 1.000000000000000000, 0.000000000000000000 ) ) ;
#536 = CARTESIAN_POINT ( 'NONE',  ( 9.799999999999998934, -0.5000000000000000000, 5.799999999999999822 ) ) ;
#537 = EDGE_LOOP ( 'NONE', ( #873, #30, #344, #960 ) ) ;
#538 = EDGE_CURVE ( 'NONE', #225, #371, #450, .T. ) ;
#539 = VECTOR ( 'NONE', #743, 1000.000000000000000 ) ;
#540 = VECTOR ( 'NONE', #472, 1000.000000000000000 ) ;
#541 = PLANE ( 'NONE',  #1146 ) ;
#542 = AXIS2_PLACEMENT_3D ( 'NONE', #98, #756, #971 ) ;
#543 = LINE ( 'NONE', #916, #694 ) ;
#544 =( NAMED_UNIT ( * ) PLANE_ANGLE_UNIT ( ) SI_UNIT ( $, .RADIAN. ) );
#545 = DIRECTION ( 'NONE',  ( 0.000000000000000000, 0.000000000000000000, -1.000000000000000000 ) ) ;
#546 = ORIENTED_EDGE ( 'NONE', *, *, #739, .F. ) ;
#547 = EDGE_CURVE ( 'NONE', #475, #1155, #562, .T. ) ;
#548 = DIRECTION ( 'NONE',  ( 1.000000000000000000, 0.000000000000000000, 0.000000000000000000 ) ) ;
#549 = FACE_OUTER_BOUND ( 'NONE', #274, .T. ) ;
#550 = PRODUCT_CONTEXT ( 'NONE', #804, 'mechanical' ) ;
#551 = PLANE ( 'NONE',  #276 ) ;
#552 = DIRECTION ( 'NONE',  ( -0.7071067811865130448, 0.000000000000000000, 0.7071067811865819897 ) ) ;
#553 = ADVANCED_FACE ( 'NONE', ( #377 ), #728, .T. ) ;
#554 = FACE_OUTER_BOUND ( 'NONE', #1062, .T. ) ;
#555 = DIRECTION ( 'NONE',  ( 0.000000000000000000, 1.000000000000000000, 0.000000000000000000 ) ) ;
#556 = ORIENTED_EDGE ( 'NONE', *, *, #156, .F. ) ;
#557 = DIRECTION ( 'NONE',  ( 1.000000000000000000, 0.000000000000000000, 0.000000000000000000 ) ) ;
#558 = VECTOR ( 'NONE', #1154, 1000.000000000000000 ) ;
#559 = LINE ( 'NONE', #742, #949 ) ;
#560 = EDGE_CURVE ( 'NONE', #572, #863, #905, .T. ) ;
#561 = EDGE_LOOP ( 'NONE', ( #759, #129, #626, #123, #480 ) ) ;
#562 = CIRCLE ( 'NONE', #697, 0.9999999999999540368 ) ;
#563 = LINE ( 'NONE', #932, #311 ) ;
#564 = LINE ( 'NONE', #388, #484 ) ;
#565 = LINE ( 'NONE', #729, #1049 ) ;
#566 = ORIENTED_EDGE ( 'NONE', *, *, #487, .F. ) ;
#567 = DIRECTION ( 'NONE',  ( 0.000000000000000000, -1.000000000000000000, 0.000000000000000000 ) ) ;
#568 = EDGE_CURVE ( 'NONE', #681, #690, #71, .T. ) ;
#569 = ORIENTED_EDGE ( 'NONE', *, *, #1056, .T. ) ;
#570 = CARTESIAN_POINT ( 'NONE',  ( -10.69999999999999929, 5.000000000000000000, -4.299999999999950084 ) ) ;
#571 = CARTESIAN_POINT ( 'NONE',  ( -11.59999999999999964, -0.5000000000000000000, -5.799999999999999822 ) ) ;
#572 = VERTEX_POINT ( 'NONE', #4 ) ;
#573 = ORIENTED_EDGE ( 'NONE', *, *, #904, .F. ) ;
#574 = FACE_OUTER_BOUND ( 'NONE', #56, .T. ) ;
#575 = ORIENTED_EDGE ( 'NONE', *, *, #465, .F. ) ;
#576 = DIRECTION ( 'NONE',  ( 0.000000000000000000, -1.000000000000000000, 0.000000000000000000 ) ) ;
#577 = VECTOR ( 'NONE', #172, 1000.000000000000000 ) ;
#578 = DIRECTION ( 'NONE',  ( 0.7071067811865460184, 0.000000000000000000, 0.7071067811865489050 ) ) ;
#579 = AXIS2_PLACEMENT_3D ( 'NONE', #158, #530, #74 ) ;
#580 = VERTEX_POINT ( 'NONE', #291 ) ;
#581 = DIRECTION ( 'NONE',  ( 0.000000000000000000, 0.000000000000000000, -1.000000000000000000 ) ) ;
#582 = VECTOR ( 'NONE', #382, 1000.000000000000114 ) ;
#583 = VECTOR ( 'NONE', #992, 1000.000000000000000 ) ;
#584 = ORIENTED_EDGE ( 'NONE', *, *, #939, .T. ) ;
#585 = ADVANCED_FACE ( 'NONE', ( #1098 ), #919, .T. ) ;
#586 = CARTESIAN_POINT ( 'NONE',  ( -15.50000000000000000, -0.5000000000000000000, 5.000000000000000000 ) ) ;
#587 = ORIENTED_EDGE ( 'NONE', *, *, #634, .T. ) ;
#588 = LINE ( 'NONE', #317, #985 ) ;
#589 = EDGE_LOOP ( 'NONE', ( #556, #286, #800, #2, #546, #316, #878, #784, #252, #182, #688, #125, #397, #502, #60, #1131, #866, #931, #1158, #1073 ) ) ;
#590 = CARTESIAN_POINT ( 'NONE',  ( 9.000000000000108358, 5.000000000000000000, 5.000000000000000000 ) ) ;
#591 = ADVANCED_FACE ( 'NONE', ( #460 ), #360, .T. ) ;
#592 = ORIENTED_EDGE ( 'NONE', *, *, #864, .T. ) ;
#593 = CARTESIAN_POINT ( 'NONE',  ( -11.59999999999999964, -0.5000000000000000000, -5.799999999999999822 ) ) ;
#594 = ORIENTED_EDGE ( 'NONE', *, *, #205, .T. ) ;
#595 = EDGE_LOOP ( 'NONE', ( #669, #1000, #630, #527 ) ) ;
#596 = ADVANCED_FACE ( 'NONE', ( #833 ), #541, .F. ) ;
#597 = CIRCLE ( 'NONE', #908, 1.599999999999949907 ) ;
#598 = AXIS2_PLACEMENT_3D ( 'NONE', #935, #178, #5 ) ;
#599 = DIRECTION ( 'NONE',  ( 0.000000000000000000, -1.000000000000000000, 0.000000000000000000 ) ) ;
#600 = ORIENTED_EDGE ( 'NONE', *, *, #649, .F. ) ;
#601 = VECTOR ( 'NONE', #552, 1000.000000000000000 ) ;
#602 = DIRECTION ( 'NONE',  ( 0.000000000000000000, 1.000000000000000000, 0.000000000000000000 ) ) ;
#603 = VERTEX_POINT ( 'NONE', #825 ) ;
#604 = CARTESIAN_POINT ( 'NONE',  ( -10.69999999999999929, 6.299999999999999822, -3.299999999999899458 ) ) ;
#605 = CARTESIAN_POINT ( 'NONE',  ( 12.40000000000000036, -0.5000000000000000000, 5.000000000000000000 ) ) ;
#606 = VERTEX_POINT ( 'NONE', #1112 ) ;
#607 = EDGE_CURVE ( 'NONE', #475, #470, #1070, .T. ) ;
#608 = CARTESIAN_POINT ( 'NONE',  ( -10.69999999999999929, 6.299999999999999822, -4.299999999999950084 ) ) ;
#609 = PLANE ( 'NONE',  #116 ) ;
#610 = CARTESIAN_POINT ( 'NONE',  ( 12.50000000000000000, -0.5000000000000000000, -5.000000000000000000 ) ) ;
#611 = ORIENTED_EDGE ( 'NONE', *, *, #428, .T. ) ;
#612 = EDGE_CURVE ( 'NONE', #690, #175, #564, .T. ) ;
#613 = CARTESIAN_POINT ( 'NONE',  ( 12.00000000000000000, 5.000000000000000000, -4.500000000000000000 ) ) ;
#614 = ORIENTED_EDGE ( 'NONE', *, *, #560, .T. ) ;
#615 = DIRECTION ( 'NONE',  ( -0.000000000000000000, 1.000000000000000000, 0.000000000000000000 ) ) ;
#616 = VECTOR ( 'NONE', #434, 1000.000000000000000 ) ;
#617 = DIRECTION ( 'NONE',  ( -1.000000000000000000, 0.000000000000000000, 0.000000000000000000 ) ) ;
#618 = VERTEX_POINT ( 'NONE', #505 ) ;
#619 = AXIS2_PLACEMENT_3D ( 'NONE', #719, #170, #253 ) ;
#620 = PLANE ( 'NONE',  #406 ) ;
#621 = EDGE_CURVE ( 'NONE', #1115, #1176, #213, .T. ) ;
#622 = ORIENTED_EDGE ( 'NONE', *, *, #243, .T. ) ;
#623 = CARTESIAN_POINT ( 'NONE',  ( 12.00000000000000000, -0.5000000000000000000, -4.500000000000000000 ) ) ;
#624 = ORIENTED_EDGE ( 'NONE', *, *, #895, .F. ) ;
#625 = CARTESIAN_POINT ( 'NONE',  ( 12.00000000000000000, -0.5000000000000000000, -4.500000000000000000 ) ) ;
#626 = ORIENTED_EDGE ( 'NONE', *, *, #32, .F. ) ;
#627 = DIRECTION ( 'NONE',  ( 0.000000000000000000, 0.000000000000000000, -1.000000000000000000 ) ) ;
#628 = CARTESIAN_POINT ( 'NONE',  ( -10.69999999999999929, 5.000000000000000000, -5.899999999999999467 ) ) ;
#629 = ORIENTED_EDGE ( 'NONE', *, *, #457, .T. ) ;
#630 = ORIENTED_EDGE ( 'NONE', *, *, #874, .F. ) ;
#631 = DIRECTION ( 'NONE',  ( 0.000000000000000000, 1.000000000000000000, 0.000000000000000000 ) ) ;
#632 = LINE ( 'NONE', #651, #16 ) ;
#633 =( NAMED_UNIT ( * ) PLANE_ANGLE_UNIT ( ) SI_UNIT ( $, .RADIAN. ) );
#634 = EDGE_CURVE ( 'NONE', #78, #779, #877, .T. ) ;
#635 = FACE_OUTER_BOUND ( 'NONE', #448, .T. ) ;
#636 = ORIENTED_EDGE ( 'NONE', *, *, #196, .F. ) ;
#637 = ADVANCED_FACE ( 'NONE', ( #244 ), #1041, .T. ) ;
#638 = AXIS2_PLACEMENT_3D ( 'NONE', #494, #676, #780 ) ;
#639 = ORIENTED_EDGE ( 'NONE', *, *, #1109, .F. ) ;
#640 = CARTESIAN_POINT ( 'NONE',  ( 11.59999999999999964, -0.5000000000000000000, 5.799999999999999822 ) ) ;
#641 = AXIS2_PLACEMENT_3D ( 'NONE', #1168, #1072, #139 ) ;
#642 = CARTESIAN_POINT ( 'NONE',  ( -12.50000000000000000, -0.5000000000000000000, 5.000000000000000000 ) ) ;
#643 = DIRECTION ( 'NONE',  ( 0.7071067811865480168, 0.000000000000000000, 0.7071067811865470176 ) ) ;
#644 = ADVANCED_FACE ( 'NONE', ( #50 ), #1134, .F. ) ;
#645 = LINE ( 'NONE', #288, #1167 ) ;
#646 = DIRECTION ( 'NONE',  ( -1.000000000000000000, 0.000000000000000000, 0.000000000000000000 ) ) ;
#647 = LINE ( 'NONE', #731, #52 ) ;
#648 = EDGE_LOOP ( 'NONE', ( #933, #639, #998, #611 ) ) ;
#649 = EDGE_CURVE ( 'NONE', #580, #1064, #301, .T. ) ;
#650 = FACE_OUTER_BOUND ( 'NONE', #972, .T. ) ;
#651 = CARTESIAN_POINT ( 'NONE',  ( 12.40000000000000036, -0.5000000000000000000, 5.000000000000000000 ) ) ;
#652 = PLANE ( 'NONE',  #383 ) ;
#653 = CARTESIAN_POINT ( 'NONE',  ( 9.599999999999999645, -0.5000000000000000000, -4.500000000000000000 ) ) ;
#654 = AXIS2_PLACEMENT_3D ( 'NONE', #660, #208, #1048 ) ;
#655 = DIRECTION ( 'NONE',  ( 0.7071067811865480168, 0.000000000000000000, -0.7071067811865470176 ) ) ;
#656 = VERTEX_POINT ( 'NONE', #1035 ) ;
#657 = EDGE_CURVE ( 'NONE', #679, #1153, #96, .T. ) ;
#658 = DIRECTION ( 'NONE',  ( 0.000000000000000000, 0.000000000000000000, -1.000000000000000000 ) ) ;
#659 = ORIENTED_EDGE ( 'NONE', *, *, #333, .F. ) ;
#660 = CARTESIAN_POINT ( 'NONE',  ( 10.69999999999999929, 5.000000000000000000, 4.299999999999950084 ) ) ;
#661 = LINE ( 'NONE', #764, #1111 ) ;
#662 = EDGE_CURVE ( 'NONE', #853, #107, #793, .T. ) ;
#663 = DIRECTION ( 'NONE',  ( 0.000000000000000000, 0.000000000000000000, -1.000000000000000000 ) ) ;
#664 = ORIENTED_EDGE ( 'NONE', *, *, #662, .F. ) ;
#665 = CARTESIAN_POINT ( 'NONE',  ( -12.40000000000000036, -0.5000000000000000000, -5.000000000000000000 ) ) ;
#666 = DIRECTION ( 'NONE',  ( 0.7071067811865480168, 0.000000000000000000, 0.7071067811865470176 ) ) ;
#667 = ORIENTED_EDGE ( 'NONE', *, *, #692, .T. ) ;
#668 = CARTESIAN_POINT ( 'NONE',  ( -9.099999999999999645, -0.5000000000000000000, 5.000000000000000000 ) ) ;
#669 = ORIENTED_EDGE ( 'NONE', *, *, #1156, .T. ) ;
#670 = ADVANCED_FACE ( 'NONE', ( #118 ), #486, .T. ) ;
#671 = FACE_OUTER_BOUND ( 'NONE', #496, .T. ) ;
#672 = VECTOR ( 'NONE', #166, 1000.000000000000000 ) ;
#673 = DIRECTION ( 'NONE',  ( -0.7071067811865320296, 0.000000000000000000, 0.7071067811865631159 ) ) ;
#674 = STYLED_ITEM ( 'NONE', ( #1152 ), #263 ) ;
#675 = ORIENTED_EDGE ( 'NONE', *, *, #955, .T. ) ;
#676 = DIRECTION ( 'NONE',  ( 0.000000000000000000, -1.000000000000000000, 0.000000000000000000 ) ) ;
#677 = VECTOR ( 'NONE', #1163, 1000.000000000000000 ) ;
#678 = VECTOR ( 'NONE', #59, 1000.000000000000000 ) ;
#679 = VERTEX_POINT ( 'NONE', #103 ) ;
#680 = CARTESIAN_POINT ( 'NONE',  ( 15.50000000000000000, -0.5000000000000000000, -5.000000000000000000 ) ) ;
#681 = VERTEX_POINT ( 'NONE', #234 ) ;
#682 = CYLINDRICAL_SURFACE ( 'NONE', #1086, 1.600000000000050271 ) ;
#683 = ORIENTED_EDGE ( 'NONE', *, *, #428, .F. ) ;
#684 = ADVANCED_FACE ( 'NONE', ( #145 ), #1128, .T. ) ;
#685 = CARTESIAN_POINT ( 'NONE',  ( -10.69999999999999929, 5.700000000000000178, -5.299999999999999822 ) ) ;
#686 = ORIENTED_EDGE ( 'NONE', *, *, #391, .T. ) ;
#687 = FACE_OUTER_BOUND ( 'NONE', #537, .T. ) ;
#688 = ORIENTED_EDGE ( 'NONE', *, *, #171, .F. ) ;
#689 = DIRECTION ( 'NONE',  ( 0.000000000000000000, -1.000000000000000000, 0.000000000000000000 ) ) ;
#690 = VERTEX_POINT ( 'NONE', #298 ) ;
#691 = LINE ( 'NONE', #963, #518 ) ;
#692 = EDGE_CURVE ( 'NONE', #167, #20, #477, .T. ) ;
#693 = MECHANICAL_DESIGN_GEOMETRIC_PRESENTATION_REPRESENTATION (  '', ( #461 ), #423 ) ;
#694 = VECTOR ( 'NONE', #747, 1000.000000000000000 ) ;
#695 = DIRECTION ( 'NONE',  ( 1.000000000000000000, 0.000000000000000000, 0.000000000000000000 ) ) ;
#696 = ORIENTED_EDGE ( 'NONE', *, *, #233, .F. ) ;
#697 = AXIS2_PLACEMENT_3D ( 'NONE', #1030, #1013, #722 ) ;
#698 = DIRECTION ( 'NONE',  ( 0.000000000000000000, -1.000000000000000000, 0.000000000000000000 ) ) ;
#699 = EDGE_LOOP ( 'NONE', ( #265, #532, #525, #1055, #749, #401 ) ) ;
#700 = EDGE_CURVE ( 'NONE', #945, #775, #18, .T. ) ;
#701 = CARTESIAN_POINT ( 'NONE',  ( -10.69999999999999929, 5.000000000000000000, -4.299999999999950084 ) ) ;
#702 = VERTEX_POINT ( 'NONE', #512 ) ;
#703 = ADVANCED_BREP_SHAPE_REPRESENTATION ( 'SY3000-26-10A', ( #263, #830 ), #1088 ) ;
#704 = CARTESIAN_POINT ( 'NONE',  ( 9.000000000000108358, 5.000000000000000000, 5.000000000000000000 ) ) ;
#705 = CARTESIAN_POINT ( 'NONE',  ( 15.50000000000000000, 0.000000000000000000, -5.000000000000000000 ) ) ;
#706 = LINE ( 'NONE', #272, #420 ) ;
#707 = ORIENTED_EDGE ( 'NONE', *, *, #391, .F. ) ;
#708 = EDGE_CURVE ( 'NONE', #175, #167, #10, .T. ) ;
#709 = CARTESIAN_POINT ( 'NONE',  ( 9.799999999999998934, 5.000000000000000000, 5.799999999999999822 ) ) ;
#710 = DIRECTION ( 'NONE',  ( -0.7071067811865460184, 0.000000000000000000, 0.7071067811865489050 ) ) ;
#711 = FILL_AREA_STYLE_COLOUR ( '', #13 ) ;
#712 = CIRCLE ( 'NONE', #523, 1.600000000000050271 ) ;
#713 = CARTESIAN_POINT ( 'NONE',  ( 11.59999999999999964, 5.000000000000000000, 5.799999999999999822 ) ) ;
#714 = ORIENTED_EDGE ( 'NONE', *, *, #849, .F. ) ;
#715 = CLOSED_SHELL ( 'NONE', ( #174, #815, #837, #684, #788, #983, #9, #449, #724, #1094, #925, #776, #553, #978, #596, #644, #19, #1180, #40, #901, #124, #813, #417, #591, #1194, #256, #585, #670, #637, #305, #501, #376, #964, #119, #93, #287, #1120, #918 ) ) ;
#716 = AXIS2_PLACEMENT_3D ( 'NONE', #856, #24, #421 ) ;
#717 = DIRECTION ( 'NONE',  ( 0.7071067811865490160, 0.000000000000000000, -0.7071067811865461294 ) ) ;
#718 = CARTESIAN_POINT ( 'NONE',  ( -10.14322356371699918, 5.000000000000000000, -5.799999999999999822 ) ) ;
#719 = CARTESIAN_POINT ( 'NONE',  ( -10.69999999999999929, 5.000000000000000000, -4.299999999999950084 ) ) ;
#720 = DIRECTION ( 'NONE',  ( 0.000000000000000000, 0.000000000000000000, -1.000000000000000000 ) ) ;
#721 = EDGE_LOOP ( 'NONE', ( #520, #575, #21, #962 ) ) ;
#722 = DIRECTION ( 'NONE',  ( 0.000000000000000000, 0.000000000000000000, -1.000000000000000000 ) ) ;
#723 = DIRECTION ( 'NONE',  ( 0.000000000000000000, 1.000000000000000000, 0.000000000000000000 ) ) ;
#724 = ADVANCED_FACE ( 'NONE', ( #671 ), #750, .T. ) ;
#725 = CARTESIAN_POINT ( 'NONE',  ( -9.000000000000158096, -0.5000000000000000000, -5.000000000000000000 ) ) ;
#726 = ORIENTED_EDGE ( 'NONE', *, *, #657, .F. ) ;
#727 = ORIENTED_EDGE ( 'NONE', *, *, #54, .T. ) ;
#728 = PLANE ( 'NONE',  #774 ) ;
#729 = CARTESIAN_POINT ( 'NONE',  ( 15.50000000000000000, -0.5000000000000000000, -5.000000000000000000 ) ) ;
#730 = EDGE_CURVE ( 'NONE', #1153, #25, #237, .T. ) ;
#731 = CARTESIAN_POINT ( 'NONE',  ( -9.599999999999999645, -0.5000000000000000000, 4.500000000000000000 ) ) ;
#732 = AXIS2_PLACEMENT_3D ( 'NONE', #12, #658, #384 ) ;
#733 = VECTOR ( 'NONE', #950, 1000.000000000000000 ) ;
#734 = AXIS2_PLACEMENT_3D ( 'NONE', #685, #128, #1042 ) ;
#735 = DIRECTION ( 'NONE',  ( -0.000000000000000000, 1.000000000000000000, 0.000000000000000000 ) ) ;
#736 = VECTOR ( 'NONE', #602, 1000.000000000000000 ) ;
#737 = LINE ( 'NONE', #1113, #1108 ) ;
#738 = FACE_OUTER_BOUND ( 'NONE', #755, .T. ) ;
#739 = EDGE_CURVE ( 'NONE', #1191, #392, #786, .T. ) ;
#740 = ORIENTED_EDGE ( 'NONE', *, *, #233, .T. ) ;
#741 = DIRECTION ( 'NONE',  ( -0.7071067811865490160, 0.000000000000000000, 0.7071067811865461294 ) ) ;
#742 = CARTESIAN_POINT ( 'NONE',  ( -12.50000000000000000, -0.5000000000000000000, 5.000000000000000000 ) ) ;
#743 = DIRECTION ( 'NONE',  ( 1.000000000000000000, 0.000000000000000000, 0.000000000000000000 ) ) ;
#744 = ORIENTED_EDGE ( 'NONE', *, *, #700, .T. ) ;
#745 = EDGE_CURVE ( 'NONE', #470, #903, #294, .T. ) ;
#746 = DIRECTION ( 'NONE',  ( 1.000000000000000000, 0.000000000000000000, 0.000000000000000000 ) ) ;
#747 = DIRECTION ( 'NONE',  ( 1.000000000000000000, 0.000000000000000000, 0.000000000000000000 ) ) ;
#748 = CARTESIAN_POINT ( 'NONE',  ( -9.799999999999998934, 5.000000000000000000, -5.799999999999999822 ) ) ;
#749 = ORIENTED_EDGE ( 'NONE', *, *, #956, .F. ) ;
#750 = CYLINDRICAL_SURFACE ( 'NONE', #654, 1.599999999999949907 ) ;
#751 = AXIS2_PLACEMENT_3D ( 'NONE', #357, #181, #69 ) ;
#752 = VECTOR ( 'NONE', #646, 1000.000000000000000 ) ;
#753 = CIRCLE ( 'NONE', #1012, 1.599999999999949907 ) ;
#754 = CARTESIAN_POINT ( 'NONE',  ( -10.69999999999999929, 5.700000000000000178, -4.299999999999950084 ) ) ;
#755 = EDGE_LOOP ( 'NONE', ( #323, #817, #664, #321, #600, #880 ) ) ;
#756 = DIRECTION ( 'NONE',  ( -1.000000000000000000, -0.000000000000000000, -0.000000000000000000 ) ) ;
#757 = DIRECTION ( 'NONE',  ( 0.7071067811865489050, 0.000000000000000000, -0.7071067811865460184 ) ) ;
#758 = ORIENTED_EDGE ( 'NONE', *, *, #1084, .T. ) ;
#759 = ORIENTED_EDGE ( 'NONE', *, *, #745, .T. ) ;
#760 = LINE ( 'NONE', #326, #885 ) ;
#761 = EDGE_CURVE ( 'NONE', #883, #6, #706, .T. ) ;
#762 = ORIENTED_EDGE ( 'NONE', *, *, #212, .T. ) ;
#763 = CARTESIAN_POINT ( 'NONE',  ( -9.000000000000119016, 5.000000000000000000, -5.000000000000000000 ) ) ;
#764 = CARTESIAN_POINT ( 'NONE',  ( 16.00000000000000000, 5.000000000000000000, 5.000000000000000000 ) ) ;
#765 = ORIENTED_EDGE ( 'NONE', *, *, #1017, .F. ) ;
#766 = CARTESIAN_POINT ( 'NONE',  ( -12.00000000000000000, -0.5000000000000000000, 4.500000000000000000 ) ) ;
#767 = EDGE_CURVE ( 'NONE', #392, #572, #989, .T. ) ;
#768 = ORIENTED_EDGE ( 'NONE', *, *, #807, .T. ) ;
#769 = CIRCLE ( 'NONE', #638, 1.600000000000050271 ) ;
#770 = DIRECTION ( 'NONE',  ( 1.000000000000000000, 0.000000000000000000, 0.000000000000000000 ) ) ;
#771 = TOROIDAL_SURFACE ( 'NONE', #1164, 1.000000000000050182, 0.5999999999999999778 ) ;
#772 = ORIENTED_EDGE ( 'NONE', *, *, #196, .T. ) ;
#773 = LINE ( 'NONE', #1059, #94 ) ;
#774 = AXIS2_PLACEMENT_3D ( 'NONE', #1196, #735, #746 ) ;
#775 = VERTEX_POINT ( 'NONE', #1096 ) ;
#776 = ADVANCED_FACE ( 'NONE', ( #1003 ), #1195, .F. ) ;
#777 = EDGE_CURVE ( 'NONE', #380, #482, #1082, .T. ) ;
#778 = FILL_AREA_STYLE_COLOUR ( '', #888 ) ;
#779 = VERTEX_POINT ( 'NONE', #713 ) ;
#780 = DIRECTION ( 'NONE',  ( 0.000000000000000000, 0.000000000000000000, -1.000000000000000000 ) ) ;
#781 = ORIENTED_EDGE ( 'NONE', *, *, #1002, .T. ) ;
#782 = EDGE_CURVE ( 'NONE', #702, #690, #160, .T. ) ;
#783 = LINE ( 'NONE', #509, #58 ) ;
#784 = ORIENTED_EDGE ( 'NONE', *, *, #27, .F. ) ;
#785 = LINE ( 'NONE', #1159, #1182 ) ;
#786 = LINE ( 'NONE', #453, #159 ) ;
#787 = CARTESIAN_POINT ( 'NONE',  ( 10.69999999999999929, 5.000000000000000000, 4.299999999999950084 ) ) ;
#788 = ADVANCED_FACE ( 'NONE', ( #997 ), #64, .F. ) ;
#789 = AXIS2_PLACEMENT_3D ( 'NONE', #570, #599, #45 ) ;
#790 = FACE_OUTER_BOUND ( 'NONE', #489, .T. ) ;
#791 = DIRECTION ( 'NONE',  ( 1.000000000000000000, 0.000000000000000000, 0.000000000000000000 ) ) ;
#792 = VECTOR ( 'NONE', #355, 1000.000000000000000 ) ;
#793 = LINE ( 'NONE', #948, #117 ) ;
#794 = VERTEX_POINT ( 'NONE', #362 ) ;
#795 = AXIS2_PLACEMENT_3D ( 'NONE', #605, #934, #976 ) ;
#796 = CARTESIAN_POINT ( 'NONE',  ( 9.099999999999999645, -0.5000000000000000000, -5.000000000000000000 ) ) ;
#797 = CARTESIAN_POINT ( 'NONE',  ( 0.000000000000000000, 0.000000000000000000, 0.000000000000000000 ) ) ;
#798 = EDGE_CURVE ( 'NONE', #231, #679, #1190, .T. ) ;
#799 = CARTESIAN_POINT ( 'NONE',  ( -10.69999999999999929, 5.000000000000000000, -2.699999999999899369 ) ) ;
#800 = ORIENTED_EDGE ( 'NONE', *, *, #560, .F. ) ;
#801 = LINE ( 'NONE', #264, #155 ) ;
#802 = VERTEX_POINT ( 'NONE', #610 ) ;
#803 = CARTESIAN_POINT ( 'NONE',  ( 9.099999999999999645, -0.5000000000000000000, -5.000000000000000000 ) ) ;
#804 = APPLICATION_CONTEXT ( 'automotive_design' ) ;
#805 = DIRECTION ( 'NONE',  ( -0.000000000000000000, 1.000000000000000000, 0.000000000000000000 ) ) ;
#806 = ORIENTED_EDGE ( 'NONE', *, *, #761, .F. ) ;
#807 = EDGE_CURVE ( 'NONE', #1102, #231, #134, .T. ) ;
#808 = DIRECTION ( 'NONE',  ( 0.000000000000000000, 0.000000000000000000, -1.000000000000000000 ) ) ;
#809 = CARTESIAN_POINT ( 'NONE',  ( -10.69999999999999929, 5.000000000000000000, -5.899999999999999467 ) ) ;
#810 = CARTESIAN_POINT ( 'NONE',  ( 10.69999999999999929, 6.299999999999999822, 5.299999999999903899 ) ) ;
#811 = VECTOR ( 'NONE', #410, 1000.000000000000000 ) ;
#812 = CARTESIAN_POINT ( 'NONE',  ( 10.69999999999999929, 5.000000000000000000, 2.700000000000000178 ) ) ;
#813 = ADVANCED_FACE ( 'NONE', ( #635 ), #1008, .T. ) ;
#814 = VECTOR ( 'NONE', #1175, 1000.000000000000000 ) ;
#815 = ADVANCED_FACE ( 'NONE', ( #981 ), #249, .T. ) ;
#816 = DIRECTION ( 'NONE',  ( 0.000000000000000000, -1.000000000000000000, 0.000000000000000000 ) ) ;
#817 = ORIENTED_EDGE ( 'NONE', *, *, #827, .T. ) ;
#818 = UNCERTAINTY_MEASURE_WITH_UNIT (LENGTH_MEASURE( 1.000000000000000082E-05 ), #248, 'distance_accuracy_value', 'NONE');
#819 = DIRECTION ( 'NONE',  ( 0.000000000000000000, -1.000000000000000000, 0.000000000000000000 ) ) ;
#820 = VERTEX_POINT ( 'NONE', #519 ) ;
#821 = PLANE ( 'NONE',  #314 ) ;
#822 = EDGE_CURVE ( 'NONE', #572, #775, #890, .T. ) ;
#823 = DIRECTION ( 'NONE',  ( 1.000000000000000000, 0.000000000000000000, 0.000000000000000000 ) ) ;
#824 = DIRECTION ( 'NONE',  ( 0.000000000000000000, 0.000000000000000000, -1.000000000000000000 ) ) ;
#825 = CARTESIAN_POINT ( 'NONE',  ( 10.69999999999999929, 5.000000000000000000, 2.699999999999999734 ) ) ;
#826 = DIRECTION ( 'NONE',  ( 0.000000000000000000, 0.000000000000000000, -1.000000000000000000 ) ) ;
#827 = EDGE_CURVE ( 'NONE', #230, #107, #261, .T. ) ;
#828 = CARTESIAN_POINT ( 'NONE',  ( -12.00000000000000000, -0.5000000000000000000, 4.500000000000000000 ) ) ;
#829 = TOROIDAL_SURFACE ( 'NONE', #1106, 1.000000000000050182, 0.5999999999999999778 ) ;
#830 = AXIS2_PLACEMENT_3D ( 'NONE', #1130, #186, #84 ) ;
#831 = ORIENTED_EDGE ( 'NONE', *, *, #612, .F. ) ;
#832 = CIRCLE ( 'NONE', #296, 1.600000000000050271 ) ;
#833 = FACE_OUTER_BOUND ( 'NONE', #339, .T. ) ;
#834 = AXIS2_PLACEMENT_3D ( 'NONE', #369, #113, #290 ) ;
#835 = LINE ( 'NONE', #451, #424 ) ;
#836 = DIRECTION ( 'NONE',  ( 0.000000000000000000, 1.000000000000000000, 0.000000000000000000 ) ) ;
#837 = ADVANCED_FACE ( 'NONE', ( #531 ), #829, .T. ) ;
#838 = EDGE_LOOP ( 'NONE', ( #163, #727, #942, #1137 ) ) ;
#839 = CARTESIAN_POINT ( 'NONE',  ( -11.59999999999999964, 5.000000000000000000, -5.799999999999999822 ) ) ;
#840 = CARTESIAN_POINT ( 'NONE',  ( -12.00000000000000000, 5.000000000000000000, 4.500000000000000000 ) ) ;
#841 = DIRECTION ( 'NONE',  ( 0.000000000000000000, -1.000000000000000000, 0.000000000000000000 ) ) ;
#842 = ORIENTED_EDGE ( 'NONE', *, *, #1122, .T. ) ;
#843 = DIRECTION ( 'NONE',  ( -0.7071067811865260344, 0.000000000000000000, -0.7071067811865690000 ) ) ;
#844 = DIRECTION ( 'NONE',  ( 1.000000000000000000, 0.000000000000000000, 0.000000000000000000 ) ) ;
#845 = DIRECTION ( 'NONE',  ( 0.000000000000000000, -1.000000000000000000, 0.000000000000000000 ) ) ;
#846 = ORIENTED_EDGE ( 'NONE', *, *, #508, .T. ) ;
#847 = DIRECTION ( 'NONE',  ( 0.7071067811865480168, 0.000000000000000000, 0.7071067811865470176 ) ) ;
#848 = VECTOR ( 'NONE', #578, 1000.000000000000114 ) ;
#849 = EDGE_CURVE ( 'NONE', #503, #25, #902, .T. ) ;
#850 = LINE ( 'NONE', #408, #1067 ) ;
#851 = VERTEX_POINT ( 'NONE', #536 ) ;
#852 = VECTOR ( 'NONE', #1160, 1000.000000000000000 ) ;
#853 = VERTEX_POINT ( 'NONE', #909 ) ;
#854 = CARTESIAN_POINT ( 'NONE',  ( 9.799999999999998934, -0.5000000000000000000, 5.799999999999999822 ) ) ;
#855 = EDGE_LOOP ( 'NONE', ( #102, #768, #1097, #1075 ) ) ;
#856 = CARTESIAN_POINT ( 'NONE',  ( 0.000000000000000000, 0.000000000000000000, 0.000000000000000000 ) ) ;
#857 =( NAMED_UNIT ( * ) PLANE_ANGLE_UNIT ( ) SI_UNIT ( $, .RADIAN. ) );
#858 = EDGE_CURVE ( 'NONE', #335, #223, #563, .T. ) ;
#859 = VERTEX_POINT ( 'NONE', #295 ) ;
#860 = CARTESIAN_POINT ( 'NONE',  ( -12.40000000000000036, 5.000000000000000000, -5.000000000000000000 ) ) ;
#861 = EDGE_LOOP ( 'NONE', ( #958, #569, #430, #1126, #846, #33, #1060, #269, #943, #422, #667, #686, #740, #100, #1161, #1037, #587, #772, #262, #105, #143, #328, #938, #394, #427, #744 ) ) ;
#862 = LINE ( 'NONE', #590, #521 ) ;
#863 = VERTEX_POINT ( 'NONE', #469 ) ;
#864 = EDGE_CURVE ( 'NONE', #268, #1115, #647, .T. ) ;
#865 = CARTESIAN_POINT ( 'NONE',  ( 12.40000000000000036, -0.5000000000000000000, 5.000000000000000000 ) ) ;
#866 = ORIENTED_EDGE ( 'NONE', *, *, #939, .F. ) ;
#867 = VECTOR ( 'NONE', #555, 1000.000000000000000 ) ;
#868 = CARTESIAN_POINT ( 'NONE',  ( 9.000000000000119016, -0.5000000000000000000, 5.000000000000000000 ) ) ;
#869 = AXIS2_PLACEMENT_3D ( 'NONE', #642, #92, #1014 ) ;
#870 = ORIENTED_EDGE ( 'NONE', *, *, #547, .T. ) ;
#871 = DIRECTION ( 'NONE',  ( 1.000000000000000000, 0.000000000000000000, 0.000000000000000000 ) ) ;
#872 = AXIS2_PLACEMENT_3D ( 'NONE', #528, #875, #411 ) ;
#873 = ORIENTED_EDGE ( 'NONE', *, *, #131, .F. ) ;
#874 = EDGE_CURVE ( 'NONE', #380, #335, #210, .T. ) ;
#875 = DIRECTION ( 'NONE',  ( 0.000000000000000000, -1.000000000000000000, 0.000000000000000000 ) ) ;
#876 = LINE ( 'NONE', #953, #1025 ) ;
#877 = LINE ( 'NONE', #334, #180 ) ;
#878 = ORIENTED_EDGE ( 'NONE', *, *, #777, .F. ) ;
#879 = DIRECTION ( 'NONE',  ( 0.000000000000000000, -1.000000000000000000, 0.000000000000000000 ) ) ;
#880 = ORIENTED_EDGE ( 'NONE', *, *, #156, .T. ) ;
#881 = CARTESIAN_POINT ( 'NONE',  ( 10.69999999999999929, 5.000000000000000000, 4.299999999999950084 ) ) ;
#882 = DIRECTION ( 'NONE',  ( 1.000000000000000000, 0.000000000000000000, 0.000000000000000000 ) ) ;
#883 = VERTEX_POINT ( 'NONE', #187 ) ;
#884 = DIRECTION ( 'NONE',  ( 0.000000000000000000, 0.000000000000000000, -1.000000000000000000 ) ) ;
#885 = VECTOR ( 'NONE', #1069, 1000.000000000000000 ) ;
#886 = VERTEX_POINT ( 'NONE', #192 ) ;
#887 = PLANE ( 'NONE',  #277 ) ;
#888 = COLOUR_RGB ( '',1.000000000000000000, 1.000000000000000000, 1.000000000000000000 ) ;
#889 = VECTOR ( 'NONE', #698, 1000.000000000000000 ) ;
#890 = LINE ( 'NONE', #917, #678 ) ;
#891 = ORIENTED_EDGE ( 'NONE', *, *, #904, .T. ) ;
#892 = MECHANICAL_DESIGN_GEOMETRIC_PRESENTATION_REPRESENTATION (  '', ( #674 ), #522 ) ;
#893 = DIRECTION ( 'NONE',  ( 1.000000000000000000, 0.000000000000000000, 0.000000000000000000 ) ) ;
#894 = LINE ( 'NONE', #1081, #928 ) ;
#895 = EDGE_CURVE ( 'NONE', #656, #28, #597, .T. ) ;
#896 = DIRECTION ( 'NONE',  ( -0.000000000000000000, 1.000000000000000000, 0.000000000000000000 ) ) ;
#897 = ORIENTED_EDGE ( 'NONE', *, *, #547, .F. ) ;
#898 = LINE ( 'NONE', #246, #367 ) ;
#899 = PLANE ( 'NONE',  #404 ) ;
#900 = SURFACE_STYLE_USAGE ( .BOTH. , #1100 ) ;
#901 = ADVANCED_FACE ( 'NONE', ( #1119 ), #483, .T. ) ;
#902 = LINE ( 'NONE', #628, #577 ) ;
#903 = VERTEX_POINT ( 'NONE', #101 ) ;
#904 = EDGE_CURVE ( 'NONE', #681, #618, #7, .T. ) ;
#905 = LINE ( 'NONE', #91, #386 ) ;
#906 = ORIENTED_EDGE ( 'NONE', *, *, #745, .F. ) ;
#907 = DIRECTION ( 'NONE',  ( 0.000000000000000000, -1.000000000000000000, 0.000000000000000000 ) ) ;
#908 = AXIS2_PLACEMENT_3D ( 'NONE', #936, #106, #379 ) ;
#909 = CARTESIAN_POINT ( 'NONE',  ( -16.00000000000000000, 5.000000000000000000, -5.000000000000000000 ) ) ;
#910 = EDGE_LOOP ( 'NONE', ( #454, #675, #506, #8, #726 ) ) ;
#911 = AXIS2_PLACEMENT_3D ( 'NONE', #1123, #83, #320 ) ;
#912 = ORIENTED_EDGE ( 'NONE', *, *, #188, .F. ) ;
#913 = VECTOR ( 'NONE', #1104, 1000.000000000000000 ) ;
#914 = EDGE_CURVE ( 'NONE', #392, #945, #285, .T. ) ;
#915 = DIRECTION ( 'NONE',  ( 1.000000000000000000, 0.000000000000000000, 0.000000000000000000 ) ) ;
#916 = CARTESIAN_POINT ( 'NONE',  ( 9.799999999999998934, 5.000000000000000000, 5.799999999999999822 ) ) ;
#917 = CARTESIAN_POINT ( 'NONE',  ( -9.799999999999998934, -0.5000000000000000000, -5.799999999999999822 ) ) ;
#918 = ADVANCED_FACE ( 'NONE', ( #738 ), #652, .T. ) ;
#919 = PLANE ( 'NONE',  #200 ) ;
#920 = PLANE ( 'NONE',  #75 ) ;
#921 = SHAPE_DEFINITION_REPRESENTATION ( #236, #703 ) ;
#922 = LINE ( 'NONE', #828, #539 ) ;
#923 = DIRECTION ( 'NONE',  ( 0.000000000000000000, 1.000000000000000000, 0.000000000000000000 ) ) ;
#924 = CARTESIAN_POINT ( 'NONE',  ( 10.69999999999999929, 5.700000000000000178, 5.299999999999905675 ) ) ;
#925 = ADVANCED_FACE ( 'NONE', ( #574 ), #551, .F. ) ;
#926 = CARTESIAN_POINT ( 'NONE',  ( -12.40000000000000036, -0.5000000000000000000, -5.000000000000000000 ) ) ;
#927 = VECTOR ( 'NONE', #130, 1000.000000000000000 ) ;
#928 = VECTOR ( 'NONE', #710, 1000.000000000000114 ) ;
#929 = CARTESIAN_POINT ( 'NONE',  ( -16.00000000000000000, 5.000000000000000000, -5.000000000000000000 ) ) ;
#930 = DIRECTION ( 'NONE',  ( 0.000000000000000000, 0.000000000000000000, -1.000000000000000000 ) ) ;
#931 = ORIENTED_EDGE ( 'NONE', *, *, #147, .F. ) ;
#932 = CARTESIAN_POINT ( 'NONE',  ( 12.00000000000000000, 5.000000000000000000, -4.500000000000000000 ) ) ;
#933 = ORIENTED_EDGE ( 'NONE', *, *, #81, .F. ) ;
#934 = DIRECTION ( 'NONE',  ( 0.000000000000000000, 0.000000000000000000, 1.000000000000000000 ) ) ;
#935 = CARTESIAN_POINT ( 'NONE',  ( 10.69999999999999929, 5.700000000000000178, 4.299999999999950084 ) ) ;
#936 = CARTESIAN_POINT ( 'NONE',  ( 10.69999999999999929, 5.000000000000000000, 4.299999999999950084 ) ) ;
#937 = EDGE_CURVE ( 'NONE', #1153, #794, #95, .T. ) ;
#938 = ORIENTED_EDGE ( 'NONE', *, *, #858, .T. ) ;
#939 = EDGE_CURVE ( 'NONE', #952, #268, #922, .T. ) ;
#940 = CARTESIAN_POINT ( 'NONE',  ( -10.69999999999999929, 5.000000000000000000, -4.299999999999950084 ) ) ;
#941 = DIRECTION ( 'NONE',  ( 0.000000000000000000, 0.000000000000000000, 1.000000000000000000 ) ) ;
#942 = ORIENTED_EDGE ( 'NONE', *, *, #226, .T. ) ;
#943 = ORIENTED_EDGE ( 'NONE', *, *, #612, .T. ) ;
#944 = PLANE ( 'NONE',  #834 ) ;
#945 = VERTEX_POINT ( 'NONE', #1020 ) ;
#946 = AXIS2_PLACEMENT_3D ( 'NONE', #881, #907, #627 ) ;
#947 = EDGE_CURVE ( 'NONE', #853, #681, #1024, .T. ) ;
#948 = CARTESIAN_POINT ( 'NONE',  ( -16.00000000000000000, 5.000000000000000000, -5.000000000000000000 ) ) ;
#949 = VECTOR ( 'NONE', #655, 1000.000000000000000 ) ;
#950 = DIRECTION ( 'NONE',  ( 1.000000000000000000, 0.000000000000000000, 0.000000000000000000 ) ) ;
#951 = AXIS2_PLACEMENT_3D ( 'NONE', #701, #471, #395 ) ;
#952 = VERTEX_POINT ( 'NONE', #1033 ) ;
#953 = CARTESIAN_POINT ( 'NONE',  ( -15.50000000000000000, -0.5000000000000000000, -5.000000000000000000 ) ) ;
#954 = ORIENTED_EDGE ( 'NONE', *, *, #538, .F. ) ;
#955 = EDGE_CURVE ( 'NONE', #231, #503, #712, .T. ) ;
#956 = EDGE_CURVE ( 'NONE', #851, #440, #90, .T. ) ;
#957 = CARTESIAN_POINT ( 'NONE',  ( -15.50000000000000000, 0.000000000000000000, -5.000000000000000000 ) ) ;
#958 = ORIENTED_EDGE ( 'NONE', *, *, #41, .T. ) ;
#959 = DIRECTION ( 'NONE',  ( 1.000000000000000000, 0.000000000000000000, 0.000000000000000000 ) ) ;
#960 = ORIENTED_EDGE ( 'NONE', *, *, #476, .F. ) ;
#961 = FACE_OUTER_BOUND ( 'NONE', #151, .T. ) ;
#962 = ORIENTED_EDGE ( 'NONE', *, *, #88, .T. ) ;
#963 = CARTESIAN_POINT ( 'NONE',  ( -16.00000000000000000, 0.000000000000000000, 5.000000000000000000 ) ) ;
#964 = ADVANCED_FACE ( 'NONE', ( #1038 ), #944, .T. ) ;
#965 = VERTEX_POINT ( 'NONE', #22 ) ;
#966 = AXIS2_PLACEMENT_3D ( 'NONE', #812, #896, #254 ) ;
#967 = CARTESIAN_POINT ( 'NONE',  ( 12.40000000000000036, 5.000000000000000000, 5.000000000000000000 ) ) ;
#968 = ORIENTED_EDGE ( 'NONE', *, *, #782, .T. ) ;
#969 = CARTESIAN_POINT ( 'NONE',  ( 10.69999999999999929, 5.700000000000000178, 4.299999999999950084 ) ) ;
#970 = AXIS2_PLACEMENT_3D ( 'NONE', #1205, #816, #443 ) ;
#971 = DIRECTION ( 'NONE',  ( 0.000000000000000000, 0.000000000000000000, 1.000000000000000000 ) ) ;
#972 = EDGE_LOOP ( 'NONE', ( #485, #696, #765, #594 ) ) ;
#973 = DIRECTION ( 'NONE',  ( 0.000000000000000000, 1.000000000000000000, 0.000000000000000000 ) ) ;
#974 = ORIENTED_EDGE ( 'NONE', *, *, #165, .T. ) ;
#975 = DIRECTION ( 'NONE',  ( 0.000000000000000000, 1.000000000000000000, 0.000000000000000000 ) ) ;
#976 = DIRECTION ( 'NONE',  ( 1.000000000000000000, 0.000000000000000000, 0.000000000000000000 ) ) ;
#977 = ORIENTED_EDGE ( 'NONE', *, *, #700, .F. ) ;
#978 = ADVANCED_FACE ( 'NONE', ( #458 ), #281, .F. ) ;
#979 = DIRECTION ( 'NONE',  ( 0.000000000000000000, 1.000000000000000000, 0.000000000000000000 ) ) ;
#980 = CARTESIAN_POINT ( 'NONE',  ( -12.40000000000000036, 5.000000000000000000, -5.000000000000000000 ) ) ;
#981 = FACE_OUTER_BOUND ( 'NONE', #561, .T. ) ;
#982 = ORIENTED_EDGE ( 'NONE', *, *, #1046, .T. ) ;
#983 = ADVANCED_FACE ( 'NONE', ( #1054 ), #682, .T. ) ;
#984 = DIRECTION ( 'NONE',  ( 0.000000000000000000, 0.000000000000000000, 1.000000000000000000 ) ) ;
#985 = VECTOR ( 'NONE', #126, 1000.000000000000000 ) ;
#986 = FACE_OUTER_BOUND ( 'NONE', #412, .T. ) ;
#987 = VECTOR ( 'NONE', #57, 1000.000000000000000 ) ;
#988 = VECTOR ( 'NONE', #548, 1000.000000000000000 ) ;
#989 = LINE ( 'NONE', #725, #616 ) ;
#990 = ORIENTED_EDGE ( 'NONE', *, *, #32, .T. ) ;
#991 = VECTOR ( 'NONE', #1044, 1000.000000000000000 ) ;
#992 = DIRECTION ( 'NONE',  ( 0.000000000000000000, -1.000000000000000000, 0.000000000000000000 ) ) ;
#993 = EDGE_CURVE ( 'NONE', #618, #70, #691, .T. ) ;
#994 = DIRECTION ( 'NONE',  ( -0.7071067811865320296, 0.000000000000000000, 0.7071067811865631159 ) ) ;
#995 = PLANE ( 'NONE',  #579 ) ;
#996 = EDGE_CURVE ( 'NONE', #952, #175, #38, .T. ) ;
#997 = FACE_OUTER_BOUND ( 'NONE', #510, .T. ) ;
#998 = ORIENTED_EDGE ( 'NONE', *, *, #312, .T. ) ;
#999 = LINE ( 'NONE', #66, #889 ) ;
#1000 = ORIENTED_EDGE ( 'NONE', *, *, #858, .F. ) ;
#1001 = CARTESIAN_POINT ( 'NONE',  ( 16.00000000000000000, 5.000000000000000000, 5.000000000000000000 ) ) ;
#1002 = EDGE_CURVE ( 'NONE', #268, #167, #26, .T. ) ;
#1003 = FACE_OUTER_BOUND ( 'NONE', #1103, .T. ) ;
#1004 = ORIENTED_EDGE ( 'NONE', *, *, #108, .F. ) ;
#1005 = ORIENTED_EDGE ( 'NONE', *, *, #767, .T. ) ;
#1006 = CARTESIAN_POINT ( 'NONE',  ( 9.000000000000119016, -0.5000000000000000000, 5.000000000000000000 ) ) ;
#1007 = CARTESIAN_POINT ( 'NONE',  ( -15.50000000000000000, 0.000000000000000000, -5.000000000000000000 ) ) ;
#1008 = PLANE ( 'NONE',  #751 ) ;
#1009 = ORIENTED_EDGE ( 'NONE', *, *, #761, .T. ) ;
#1010 = EDGE_CURVE ( 'NONE', #14, #6, #760, .T. ) ;
#1011 = ORIENTED_EDGE ( 'NONE', *, *, #81, .T. ) ;
#1012 = AXIS2_PLACEMENT_3D ( 'NONE', #787, #431, #884 ) ;
#1013 = DIRECTION ( 'NONE',  ( 0.000000000000000000, -1.000000000000000000, 0.000000000000000000 ) ) ;
#1014 = DIRECTION ( 'NONE',  ( 0.000000000000000000, -1.000000000000000000, 0.000000000000000000 ) ) ;
#1015 = CARTESIAN_POINT ( 'NONE',  ( -16.00000000000000000, 5.000000000000000000, 5.000000000000000000 ) ) ;
#1016 = EDGE_LOOP ( 'NONE', ( #1083, #636, #149, #758 ) ) ;
#1017 = EDGE_CURVE ( 'NONE', #1176, #375, #588, .T. ) ;
#1018 = LINE ( 'NONE', #1188, #444 ) ;
#1019 = LINE ( 'NONE', #373, #221 ) ;
#1020 = CARTESIAN_POINT ( 'NONE',  ( -9.000000000000119016, 5.000000000000000000, -5.000000000000000000 ) ) ;
#1021 = DIRECTION ( 'NONE',  ( -1.000000000000000000, 0.000000000000000000, 0.000000000000000000 ) ) ;
#1022 = EDGE_CURVE ( 'NONE', #470, #603, #773, .T. ) ;
#1023 = LINE ( 'NONE', #1007, #792 ) ;
#1024 = LINE ( 'NONE', #1124, #152 ) ;
#1025 = VECTOR ( 'NONE', #1138, 1000.000000000000000 ) ;
#1026 = ORIENTED_EDGE ( 'NONE', *, *, #621, .T. ) ;
#1027 = PRESENTATION_LAYER_ASSIGNMENT (  '', '', ( #461 ) ) ;
#1028 = VECTOR ( 'NONE', #350, 1000.000000000000000 ) ;
#1029 = VECTOR ( 'NONE', #979, 1000.000000000000000 ) ;
#1030 = CARTESIAN_POINT ( 'NONE',  ( 10.69999999999999929, 6.299999999999999822, 4.299999999999950084 ) ) ;
#1031 = LINE ( 'NONE', #99, #752 ) ;
#1032 = ORIENTED_EDGE ( 'NONE', *, *, #1136, .F. ) ;
#1033 = CARTESIAN_POINT ( 'NONE',  ( -12.00000000000000000, -0.5000000000000000000, 4.500000000000000000 ) ) ;
#1034 = ORIENTED_EDGE ( 'NONE', *, *, #798, .T. ) ;
#1035 = CARTESIAN_POINT ( 'NONE',  ( 10.69999999999999929, 5.000000000000000000, 5.899999999999899991 ) ) ;
#1036 = CARTESIAN_POINT ( 'NONE',  ( 16.00000000000000000, 5.000000000000000000, -5.000000000000000000 ) ) ;
#1037 = ORIENTED_EDGE ( 'NONE', *, *, #354, .T. ) ;
#1038 = FACE_OUTER_BOUND ( 'NONE', #325, .T. ) ;
#1039 = EDGE_CURVE ( 'NONE', #51, #1153, #1142, .T. ) ;
#1040 = ORIENTED_EDGE ( 'NONE', *, *, #27, .T. ) ;
#1041 = PLANE ( 'NONE',  #641 ) ;
#1042 = DIRECTION ( 'NONE',  ( 0.000000000000000000, 0.000000000000000000, 1.000000000000000000 ) ) ;
#1043 = ORIENTED_EDGE ( 'NONE', *, *, #1079, .T. ) ;
#1044 = DIRECTION ( 'NONE',  ( 0.000000000000000000, 1.000000000000000000, 0.000000000000000000 ) ) ;
#1045 = ORIENTED_EDGE ( 'NONE', *, *, #108, .T. ) ;
#1046 = EDGE_CURVE ( 'NONE', #115, #702, #1063, .T. ) ;
#1047 = AXIS2_PLACEMENT_3D ( 'NONE', #1114, #393, #402 ) ;
#1048 = DIRECTION ( 'NONE',  ( 0.000000000000000000, 0.000000000000000000, -1.000000000000000000 ) ) ;
#1049 = VECTOR ( 'NONE', #723, 1000.000000000000000 ) ;
#1050 = CIRCLE ( 'NONE', #1185, 1.000000000000050404 ) ;
#1051 = FACE_OUTER_BOUND ( 'NONE', #1143, .T. ) ;
#1052 = VECTOR ( 'NONE', #819, 1000.000000000000000 ) ;
#1053 = ORIENTED_EDGE ( 'NONE', *, *, #340, .F. ) ;
#1054 = FACE_OUTER_BOUND ( 'NONE', #910, .T. ) ;
#1055 = ORIENTED_EDGE ( 'NONE', *, *, #183, .F. ) ;
#1056 = EDGE_CURVE ( 'NONE', #51, #679, #769, .T. ) ;
#1057 = FACE_OUTER_BOUND ( 'NONE', #699, .T. ) ;
#1058 = ORIENTED_EDGE ( 'NONE', *, *, #370, .T. ) ;
#1059 = CARTESIAN_POINT ( 'NONE',  ( 10.69999999999999929, 5.000000000000000000, 2.699999999999999734 ) ) ;
#1060 = ORIENTED_EDGE ( 'NONE', *, *, #947, .T. ) ;
#1061 = FILL_AREA_STYLE ('',( #778 ) ) ;
#1062 = EDGE_LOOP ( 'NONE', ( #415, #977, #235, #1005 ) ) ;
#1063 = LINE ( 'NONE', #242, #478 ) ;
#1064 = VERTEX_POINT ( 'NONE', #860 ) ;
#1065 = AXIS2_PLACEMENT_3D ( 'NONE', #1101, #805, #1186 ) ;
#1066 = LINE ( 'NONE', #240, #736 ) ;
#1067 = VECTOR ( 'NONE', #757, 1000.000000000000114 ) ;
#1068 = VERTEX_POINT ( 'NONE', #865 ) ;
#1069 = DIRECTION ( 'NONE',  ( 0.000000000000000000, 0.000000000000000000, -1.000000000000000000 ) ) ;
#1070 = CIRCLE ( 'NONE', #542, 0.5999999999999998668 ) ;
#1071 = EDGE_CURVE ( 'NONE', #371, #335, #1149, .T. ) ;
#1072 = DIRECTION ( 'NONE',  ( 0.7071067811865470176, 0.000000000000000000, 0.7071067811865480168 ) ) ;
#1073 = ORIENTED_EDGE ( 'NONE', *, *, #312, .F. ) ;
#1074 = FACE_OUTER_BOUND ( 'NONE', #39, .T. ) ;
#1075 = ORIENTED_EDGE ( 'NONE', *, *, #226, .F. ) ;
#1076 =( LENGTH_UNIT ( ) NAMED_UNIT ( * ) SI_UNIT ( .MILLI., .METRE. ) );
#1077 = DIRECTION ( 'NONE',  ( 1.000000000000000000, 0.000000000000000000, -1.224646799147353207E-16 ) ) ;
#1078 = EDGE_LOOP ( 'NONE', ( #870, #1133, #906, #207 ) ) ;
#1079 = EDGE_CURVE ( 'NONE', #863, #794, #229, .T. ) ;
#1080 = CARTESIAN_POINT ( 'NONE',  ( -9.099999999999999645, -0.5000000000000000000, 5.000000000000000000 ) ) ;
#1081 = CARTESIAN_POINT ( 'NONE',  ( 12.50000000000000000, -0.5000000000000000000, -5.000000000000000000 ) ) ;
#1082 = LINE ( 'NONE', #623, #1125 ) ;
#1083 = ORIENTED_EDGE ( 'NONE', *, *, #487, .T. ) ;
#1084 = EDGE_CURVE ( 'NONE', #820, #1068, #232, .T. ) ;
#1085 = FACE_OUTER_BOUND ( 'NONE', #86, .T. ) ;
#1086 = AXIS2_PLACEMENT_3D ( 'NONE', #224, #490, #511 ) ;
#1087 = DIRECTION ( 'NONE',  ( -0.7071067811865631159, 0.000000000000000000, -0.7071067811865320296 ) ) ;
#1088 =( GEOMETRIC_REPRESENTATION_CONTEXT ( 3 ) GLOBAL_UNCERTAINTY_ASSIGNED_CONTEXT ( ( #366 ) ) GLOBAL_UNIT_ASSIGNED_CONTEXT ( ( #1076, #633, #338 ) ) REPRESENTATION_CONTEXT ( 'NONE', 'WORKASPACE' ) );
#1089 = CIRCLE ( 'NONE', #257, 1.599999999999949907 ) ;
#1090 = VECTOR ( 'NONE', #189, 1000.000000000000000 ) ;
#1091 = CARTESIAN_POINT ( 'NONE',  ( -12.50000000000000000, -0.5000000000000000000, 5.000000000000000000 ) ) ;
#1092 = ORIENTED_EDGE ( 'NONE', *, *, #827, .F. ) ;
#1093 = CARTESIAN_POINT ( 'NONE',  ( -10.69999999999999929, 5.700000000000000178, -4.299999999999950084 ) ) ;
#1094 = ADVANCED_FACE ( 'NONE', ( #687 ), #34, .T. ) ;
#1095 = ORIENTED_EDGE ( 'NONE', *, *, #708, .F. ) ;
#1096 = CARTESIAN_POINT ( 'NONE',  ( -9.799999999999998934, 5.000000000000000000, -5.799999999999999822 ) ) ;
#1097 = ORIENTED_EDGE ( 'NONE', *, *, #441, .F. ) ;
#1098 = FACE_OUTER_BOUND ( 'NONE', #721, .T. ) ;
#1099 = CARTESIAN_POINT ( 'NONE',  ( -16.00000000000000000, 0.000000000000000000, -5.000000000000000000 ) ) ;
#1100 = SURFACE_SIDE_STYLE ('',( #446 ) ) ;
#1101 = CARTESIAN_POINT ( 'NONE',  ( -10.69999999999999929, 5.000000000000000000, -5.899999999999999467 ) ) ;
#1102 = VERTEX_POINT ( 'NONE', #604 ) ;
#1103 = EDGE_LOOP ( 'NONE', ( #990, #1187, #622 ) ) ;
#1104 = DIRECTION ( 'NONE',  ( -1.000000000000000000, 0.000000000000000000, 0.000000000000000000 ) ) ;
#1105 = FACE_OUTER_BOUND ( 'NONE', #352, .T. ) ;
#1106 = AXIS2_PLACEMENT_3D ( 'NONE', #267, #85, #824 ) ;
#1107 = DIRECTION ( 'NONE',  ( 0.000000000000000000, 0.000000000000000000, -1.000000000000000000 ) ) ;
#1108 = VECTOR ( 'NONE', #823, 1000.000000000000000 ) ;
#1109 = EDGE_CURVE ( 'NONE', #606, #230, #876, .T. ) ;
#1110 = ORIENTED_EDGE ( 'NONE', *, *, #54, .F. ) ;
#1111 = VECTOR ( 'NONE', #488, 1000.000000000000000 ) ;
#1112 = CARTESIAN_POINT ( 'NONE',  ( -15.50000000000000000, -0.5000000000000000000, -5.000000000000000000 ) ) ;
#1113 = CARTESIAN_POINT ( 'NONE',  ( 12.40000000000000036, 5.000000000000000000, 5.000000000000000000 ) ) ;
#1114 = CARTESIAN_POINT ( 'NONE',  ( 16.00000000000000000, 5.000000000000000000, 5.000000000000000000 ) ) ;
#1115 = VERTEX_POINT ( 'NONE', #668 ) ;
#1116 = PRODUCT_DEFINITION ( 'UNKNOWN', '', #177, #191 ) ;
#1117 = LINE ( 'NONE', #839, #601 ) ;
#1118 = DIRECTION ( 'NONE',  ( -1.000000000000000000, 0.000000000000000000, 0.000000000000000000 ) ) ;
#1119 = FACE_OUTER_BOUND ( 'NONE', #127, .T. ) ;
#1120 = ADVANCED_FACE ( 'NONE', ( #304 ), #44, .T. ) ;
#1121 = DIRECTION ( 'NONE',  ( 0.000000000000000000, 1.000000000000000000, 0.000000000000000000 ) ) ;
#1122 = EDGE_CURVE ( 'NONE', #802, #371, #785, .T. ) ;
#1123 = CARTESIAN_POINT ( 'NONE',  ( 10.69999999999999929, 6.299999999999999822, 4.299999999999950084 ) ) ;
#1124 = CARTESIAN_POINT ( 'NONE',  ( -16.00000000000000000, 5.000000000000000000, -5.000000000000000000 ) ) ;
#1125 = VECTOR ( 'NONE', #439, 1000.000000000000000 ) ;
#1126 = ORIENTED_EDGE ( 'NONE', *, *, #937, .T. ) ;
#1127 = AXIS2_PLACEMENT_3D ( 'NONE', #1080, #524, #893 ) ;
#1128 = CYLINDRICAL_SURFACE ( 'NONE', #951, 1.600000000000050271 ) ;
#1129 = DIRECTION ( 'NONE',  ( 0.000000000000000000, -1.000000000000000000, 0.000000000000000000 ) ) ;
#1130 = CARTESIAN_POINT ( 'NONE',  ( 0.000000000000000000, 0.000000000000000000, 0.000000000000000000 ) ) ;
#1131 = ORIENTED_EDGE ( 'NONE', *, *, #864, .F. ) ;
#1132 = CARTESIAN_POINT ( 'NONE',  ( 10.69999999999999929, 6.299999999999999822, 4.299999999999950084 ) ) ;
#1133 = ORIENTED_EDGE ( 'NONE', *, *, #131, .T. ) ;
#1134 = PLANE ( 'NONE',  #716 ) ;
#1135 = LINE ( 'NONE', #868, #848 ) ;
#1136 = EDGE_CURVE ( 'NONE', #28, #603, #114, .T. ) ;
#1137 = ORIENTED_EDGE ( 'NONE', *, *, #955, .F. ) ;
#1138 = DIRECTION ( 'NONE',  ( 0.000000000000000000, 1.000000000000000000, 0.000000000000000000 ) ) ;
#1139 = ORIENTED_EDGE ( 'NONE', *, *, #1144, .F. ) ;
#1140 = CARTESIAN_POINT ( 'NONE',  ( -9.599999999999999645, 5.000000000000000000, 4.500000000000000000 ) ) ;
#1141 = ORIENTED_EDGE ( 'NONE', *, *, #782, .F. ) ;
#1142 = LINE ( 'NONE', #322, #811 ) ;
#1143 = EDGE_LOOP ( 'NONE', ( #968, #241, #891, #387, #683, #982 ) ) ;
#1144 = EDGE_CURVE ( 'NONE', #25, #51, #15, .T. ) ;
#1145 = VECTOR ( 'NONE', #567, 1000.000000000000000 ) ;
#1146 = AXIS2_PLACEMENT_3D ( 'NONE', #929, #915, #467 ) ;
#1147 = CARTESIAN_POINT ( 'NONE',  ( 15.50000000000000000, -0.5000000000000000000, 5.000000000000000000 ) ) ;
#1148 = ORIENTED_EDGE ( 'NONE', *, *, #1022, .T. ) ;
#1149 = LINE ( 'NONE', #31, #364 ) ;
#1150 = ORIENTED_EDGE ( 'NONE', *, *, #340, .T. ) ;
#1151 = PRODUCT_RELATED_PRODUCT_CATEGORY ( 'part', '', ( #133 ) ) ;
#1152 = PRESENTATION_STYLE_ASSIGNMENT (( #315 ) ) ;
#1153 = VERTEX_POINT ( 'NONE', #63 ) ;
#1154 = DIRECTION ( 'NONE',  ( 0.7071067811865480168, 0.000000000000000000, -0.7071067811865470176 ) ) ;
#1155 = VERTEX_POINT ( 'NONE', #810 ) ;
#1156 = EDGE_CURVE ( 'NONE', #482, #223, #68, .T. ) ;
#1157 = DIRECTION ( 'NONE',  ( 0.000000000000000000, 1.000000000000000000, 0.000000000000000000 ) ) ;
#1158 = ORIENTED_EDGE ( 'NONE', *, *, #1046, .F. ) ;
#1159 = CARTESIAN_POINT ( 'NONE',  ( 12.50000000000000000, -0.5000000000000000000, -5.000000000000000000 ) ) ;
#1160 = DIRECTION ( 'NONE',  ( 0.000000000000000000, 1.000000000000000000, 0.000000000000000000 ) ) ;
#1161 = ORIENTED_EDGE ( 'NONE', *, *, #1136, .T. ) ;
#1162 = VECTOR ( 'NONE', #310, 1000.000000000000000 ) ;
#1163 = DIRECTION ( 'NONE',  ( 0.000000000000000000, 0.000000000000000000, -1.000000000000000000 ) ) ;
#1164 = AXIS2_PLACEMENT_3D ( 'NONE', #1165, #247, #331 ) ;
#1165 = CARTESIAN_POINT ( 'NONE',  ( -10.69999999999999929, 5.700000000000000178, -4.299999999999950084 ) ) ;
#1166 = CARTESIAN_POINT ( 'NONE',  ( 0.000000000000000000, -0.5000000000000000000, 0.000000000000000000 ) ) ;
#1167 = VECTOR ( 'NONE', #353, 1000.000000000000000 ) ;
#1168 = CARTESIAN_POINT ( 'NONE',  ( 11.59999999999999964, -0.5000000000000000000, 5.799999999999999822 ) ) ;
#1169 = EDGE_LOOP ( 'NONE', ( #405, #1034, #498, #1139, #714 ) ) ;
#1170 = FACE_OUTER_BOUND ( 'NONE', #140, .T. ) ;
#1171 = DIRECTION ( 'NONE',  ( -0.000000000000000000, 1.000000000000000000, 0.000000000000000000 ) ) ;
#1172 = PRESENTATION_STYLE_ASSIGNMENT (( #900 ) ) ;
#1173 = DIRECTION ( 'NONE',  ( -1.000000000000000000, 0.000000000000000000, 0.000000000000000000 ) ) ;
#1174 = VERTEX_POINT ( 'NONE', #1001 ) ;
#1175 = DIRECTION ( 'NONE',  ( -1.000000000000000000, 0.000000000000000000, 0.000000000000000000 ) ) ;
#1176 = VERTEX_POINT ( 'NONE', #433 ) ;
#1177 = CARTESIAN_POINT ( 'NONE',  ( 12.40000000000000036, 0.000000000000000000, 5.000000000000000000 ) ) ;
#1178 = CARTESIAN_POINT ( 'NONE',  ( -10.69999999999999929, 5.700000000000000178, -3.299999999999899458 ) ) ;
#1179 = ORIENTED_EDGE ( 'NONE', *, *, #1144, .T. ) ;
#1180 = ADVANCED_FACE ( 'NONE', ( #164 ), #887, .F. ) ;
#1181 = PLANE ( 'NONE',  #1127 ) ;
#1182 = VECTOR ( 'NONE', #975, 1000.000000000000000 ) ;
#1183 = CARTESIAN_POINT ( 'NONE',  ( 15.50000000000000000, 0.000000000000000000, 5.000000000000000000 ) ) ;
#1184 = CIRCLE ( 'NONE', #199, 1.000000000000050404 ) ;
#1185 = AXIS2_PLACEMENT_3D ( 'NONE', #608, #879, #808 ) ;
#1186 = DIRECTION ( 'NONE',  ( 1.000000000000000000, 0.000000000000000000, 0.000000000000000000 ) ) ;
#1187 = ORIENTED_EDGE ( 'NONE', *, *, #895, .T. ) ;
#1188 = CARTESIAN_POINT ( 'NONE',  ( 12.40000000000000036, -0.5000000000000000000, 5.000000000000000000 ) ) ;
#1189 = ORIENTED_EDGE ( 'NONE', *, *, #508, .F. ) ;
#1190 = LINE ( 'NONE', #799, #1052 ) ;
#1191 = VERTEX_POINT ( 'NONE', #803 ) ;
#1192 = CARTESIAN_POINT ( 'NONE',  ( 12.00000000000000000, -0.5000000000000000000, -4.500000000000000000 ) ) ;
#1193 = CARTESIAN_POINT ( 'NONE',  ( -15.50000000000000000, 0.000000000000000000, 5.000000000000000000 ) ) ;
#1194 = ADVANCED_FACE ( 'NONE', ( #49 ), #995, .T. ) ;
#1195 = PLANE ( 'NONE',  #966 ) ;
#1196 = CARTESIAN_POINT ( 'NONE',  ( 0.000000000000000000, 5.000000000000000000, 0.000000000000000000 ) ) ;
#1197 = CARTESIAN_POINT ( 'NONE',  ( -10.69999999999999929, 6.299999999999999822, -4.299999999999950084 ) ) ;
#1198 = VECTOR ( 'NONE', #1, 1000.000000000000000 ) ;
#1199 = EDGE_CURVE ( 'NONE', #14, #859, #332, .T. ) ;
#1200 = DIRECTION ( 'NONE',  ( 0.000000000000000000, 0.000000000000000000, 1.000000000000000000 ) ) ;
#1201 = AXIS2_PLACEMENT_3D ( 'NONE', #924, #284, #826 ) ;
#1202 = AXIS2_PLACEMENT_3D ( 'NONE', #110, #479, #47 ) ;
#1203 = VERTEX_POINT ( 'NONE', #342 ) ;
#1204 = VECTOR ( 'NONE', #836, 1000.000000000000000 ) ;
#1205 = CARTESIAN_POINT ( 'NONE',  ( 10.69999999999999929, 5.700000000000000178, 4.299999999999950084 ) ) ;
#1206 = DIRECTION ( 'NONE',  ( 0.7071067811865879849, 0.000000000000000000, -0.7071067811865070496 ) ) ;
ENDSEC;
END-ISO-10303-21;
