ISO-10303-21;
HEADER;
FILE_DESCRIPTION (( 'STEP AP214' ),
    '1' );
FILE_NAME ('SY9000-26-1A.STEP',
    '2026-05-04T06:01:09',
    ( '' ),
    ( '' ),
    'SwSTEP 2.0',
    'SolidWorks 2020',
    '' );
FILE_SCHEMA (( 'AUTOMOTIVE_DESIGN' ));
ENDSEC;

DATA;
#1 = EDGE_CURVE ( 'NONE', #33, #624, #380, .T. ) ;
#2 = CARTESIAN_POINT ( 'NONE',  ( -9.500000000000000000, 8.000000000000000000, -11.50000000000000000 ) ) ;
#3 = EDGE_LOOP ( 'NONE', ( #260, #409, #240, #361 ) ) ;
#4 = CARTESIAN_POINT ( 'NONE',  ( 32.09999999999999432, 8.000000000000010658, 11.94999999999999929 ) ) ;
#5 = FACE_OUTER_BOUND ( 'NONE', #541, .T. ) ;
#6 = EDGE_CURVE ( 'NONE', #439, #958, #688, .T. ) ;
#7 = ORIENTED_EDGE ( 'NONE', *, *, #775, .T. ) ;
#8 = DIRECTION ( 'NONE',  ( 1.000000000000000000, -4.720941227246152480E-31, -1.224646799147353207E-16 ) ) ;
#9 = PLANE ( 'NONE',  #689 ) ;
#10 = ORIENTED_EDGE ( 'NONE', *, *, #589, .T. ) ;
#11 = VECTOR ( 'NONE', #943, 1000.000000000000000 ) ;
#12 = LINE ( 'NONE', #352, #350 ) ;
#13 = EDGE_CURVE ( 'NONE', #219, #665, #723, .T. ) ;
#14 = CIRCLE ( 'NONE', #214, 2.041666666666670960 ) ;
#15 = CARTESIAN_POINT ( 'NONE',  ( -6.500000000000000000, 8.000000000000000000, -9.199999999999999289 ) ) ;
#16 = CARTESIAN_POINT ( 'NONE',  ( -3.499999999999940048, 8.000000000000000000, -11.50000000000000000 ) ) ;
#17 = VERTEX_POINT ( 'NONE', #969 ) ;
#18 = DIRECTION ( 'NONE',  ( -1.000000000000000000, 0.000000000000000000, -1.301042606982610054E-15 ) ) ;
#19 = DIRECTION ( 'NONE',  ( 0.000000000000000000, -1.000000000000000000, 3.854941057726240267E-15 ) ) ;
#20 = EDGE_CURVE ( 'NONE', #816, #439, #118, .T. ) ;
#21 = DIRECTION ( 'NONE',  ( 0.000000000000000000, -1.000000000000000000, 0.000000000000000000 ) ) ;
#22 = ORIENTED_EDGE ( 'NONE', *, *, #325, .F. ) ;
#23 = CARTESIAN_POINT ( 'NONE',  ( -30.09999999999999787, 8.000000000000000000, 12.00000000000000000 ) ) ;
#24 = DIRECTION ( 'NONE',  ( 0.000000000000000000, -3.784851220313034736E-15, -1.000000000000000000 ) ) ;
#25 = CARTESIAN_POINT ( 'NONE',  ( 32.09999999999999432, 8.000000000000010658, 11.94999999999999929 ) ) ;
#26 = VERTEX_POINT ( 'NONE', #1049 ) ;
#27 = LINE ( 'NONE', #266, #48 ) ;
#28 = AXIS2_PLACEMENT_3D ( 'NONE', #737, #1003, #238 ) ;
#29 = DIRECTION ( 'NONE',  ( 0.000000000000000000, 0.000000000000000000, -1.000000000000000000 ) ) ;
#30 = AXIS2_PLACEMENT_3D ( 'NONE', #15, #923, #24 ) ;
#31 = LINE ( 'NONE', #371, #11 ) ;
#32 = EDGE_CURVE ( 'NONE', #85, #739, #384, .T. ) ;
#33 = VERTEX_POINT ( 'NONE', #1054 ) ;
#34 = PRESENTATION_STYLE_ASSIGNMENT (( #618 ) ) ;
#35 = ORIENTED_EDGE ( 'NONE', *, *, #333, .T. ) ;
#36 = FACE_OUTER_BOUND ( 'NONE', #553, .T. ) ;
#37 = CARTESIAN_POINT ( 'NONE',  ( 30.09999999999999787, 0.000000000000000000, 12.00000000000000000 ) ) ;
#38 = ORIENTED_EDGE ( 'NONE', *, *, #400, .F. ) ;
#39 = EDGE_CURVE ( 'NONE', #327, #624, #659, .T. ) ;
#40 = ORIENTED_EDGE ( 'NONE', *, *, #1010, .F. ) ;
#41 = DIRECTION ( 'NONE',  ( 1.000000000000000000, 0.000000000000000000, 0.000000000000000000 ) ) ;
#42 = CARTESIAN_POINT ( 'NONE',  ( -3.499999999999940048, 8.000000000000000000, -11.50000000000000000 ) ) ;
#43 = ORIENTED_EDGE ( 'NONE', *, *, #775, .F. ) ;
#44 = DIRECTION ( 'NONE',  ( 0.7071067811865475727, 0.000000000000000000, -0.7071067811865475727 ) ) ;
#45 = ORIENTED_EDGE ( 'NONE', *, *, #621, .T. ) ;
#46 = EDGE_CURVE ( 'NONE', #127, #58, #317, .T. ) ;
#47 = CYLINDRICAL_SURFACE ( 'NONE', #417, 2.749999999999999112 ) ;
#48 = VECTOR ( 'NONE', #598, 1000.000000000000000 ) ;
#49 = ORIENTED_EDGE ( 'NONE', *, *, #974, .T. ) ;
#50 = DIRECTION ( 'NONE',  ( 0.000000000000000000, -1.000000000000000000, 3.854941057726240267E-15 ) ) ;
#51 = EDGE_LOOP ( 'NONE', ( #1046, #73, #989, #323 ) ) ;
#52 = FACE_OUTER_BOUND ( 'NONE', #713, .T. ) ;
#53 = ADVANCED_FACE ( 'NONE', ( #981 ), #657, .T. ) ;
#54 = ADVANCED_FACE ( 'NONE', ( #895 ), #414, .F. ) ;
#55 = CARTESIAN_POINT ( 'NONE',  ( -34.10000000000000142, 0.000000000000000000, 12.00000000000000000 ) ) ;
#56 = EDGE_LOOP ( 'NONE', ( #302, #22, #61, #293 ) ) ;
#57 = LINE ( 'NONE', #306, #846 ) ;
#58 = VERTEX_POINT ( 'NONE', #998 ) ;
#59 = CARTESIAN_POINT ( 'NONE',  ( 29.60000000000000142, 8.000000000000000000, 11.50000000000000000 ) ) ;
#60 = CARTESIAN_POINT ( 'NONE',  ( 32.09999999999999432, 9.439120141624499638, 9.199999999999999289 ) ) ;
#61 = ORIENTED_EDGE ( 'NONE', *, *, #359, .F. ) ;
#62 = ORIENTED_EDGE ( 'NONE', *, *, #509, .T. ) ;
#63 = LINE ( 'NONE', #229, #334 ) ;
#64 = VECTOR ( 'NONE', #21, 1000.000000000000000 ) ;
#65 = FACE_OUTER_BOUND ( 'NONE', #715, .T. ) ;
#66 = VECTOR ( 'NONE', #588, 1000.000000000000114 ) ;
#67 = EDGE_CURVE ( 'NONE', #801, #836, #555, .T. ) ;
#68 = CARTESIAN_POINT ( 'NONE',  ( 29.60000000000000142, 0.000000000000000000, 11.50000000000000000 ) ) ;
#69 =( GEOMETRIC_REPRESENTATION_CONTEXT ( 3 ) GLOBAL_UNCERTAINTY_ASSIGNED_CONTEXT ( ( #620 ) ) GLOBAL_UNIT_ASSIGNED_CONTEXT ( ( #227, #126, #479 ) ) REPRESENTATION_CONTEXT ( 'NONE', 'WORKASPACE' ) );
#70 = ORIENTED_EDGE ( 'NONE', *, *, #285, .F. ) ;
#71 = PLANE ( 'NONE',  #121 ) ;
#72 = DIRECTION ( 'NONE',  ( 0.000000000000000000, -4.248302390147273616E-15, -1.000000000000000000 ) ) ;
#73 = ORIENTED_EDGE ( 'NONE', *, *, #974, .F. ) ;
#74 = ORIENTED_EDGE ( 'NONE', *, *, #509, .F. ) ;
#75 = CARTESIAN_POINT ( 'NONE',  ( 32.09999999999999432, 10.39564016522860079, 9.199999999999999289 ) ) ;
#76 = DIRECTION ( 'NONE',  ( 0.000000000000000000, 0.000000000000000000, -1.000000000000000000 ) ) ;
#77 = DIRECTION ( 'NONE',  ( 0.000000000000000000, -3.854941057726240267E-15, -1.000000000000000000 ) ) ;
#78 = DIRECTION ( 'NONE',  ( 0.000000000000000000, 0.000000000000000000, 1.000000000000000000 ) ) ;
#79 = ORIENTED_EDGE ( 'NONE', *, *, #1031, .T. ) ;
#80 = EDGE_CURVE ( 'NONE', #730, #327, #81, .T. ) ;
#81 = CIRCLE ( 'NONE', #189, 6.999999999999880096 ) ;
#82 = DIRECTION ( 'NONE',  ( -1.000000000000000000, -0.000000000000000000, 0.000000000000000000 ) ) ;
#83 = AXIS2_PLACEMENT_3D ( 'NONE', #757, #534, #275 ) ;
#84 = AXIS2_PLACEMENT_3D ( 'NONE', #714, #951, #871 ) ;
#85 = VERTEX_POINT ( 'NONE', #670 ) ;
#86 = CARTESIAN_POINT ( 'NONE',  ( -32.09999999999999432, 8.000000000000010658, 11.94999999999999929 ) ) ;
#87 = ADVANCED_FACE ( 'NONE', ( #995 ), #832, .F. ) ;
#88 = ADVANCED_FACE ( 'NONE', ( #513 ), #97, .F. ) ;
#89 = DIRECTION ( 'NONE',  ( 1.000000000000000000, 0.000000000000000000, 0.000000000000000000 ) ) ;
#90 = ORIENTED_EDGE ( 'NONE', *, *, #124, .F. ) ;
#91 = CARTESIAN_POINT ( 'NONE',  ( -34.60000000000000142, 8.000000000000000000, 11.50000000000000000 ) ) ;
#92 = DIRECTION ( 'NONE',  ( 0.000000000000000000, -1.000000000000000000, 3.854941057726240267E-15 ) ) ;
#93 = EDGE_CURVE ( 'NONE', #279, #508, #596, .T. ) ;
#94 = ORIENTED_EDGE ( 'NONE', *, *, #778, .T. ) ;
#95 = PLANE ( 'NONE',  #1070 ) ;
#96 = CARTESIAN_POINT ( 'NONE',  ( -34.60000000000000142, 8.000000000000000000, 11.50000000000000000 ) ) ;
#97 = PLANE ( 'NONE',  #811 ) ;
#98 = ADVANCED_FACE ( 'NONE', ( #586 ), #263, .F. ) ;
#99 = ORIENTED_EDGE ( 'NONE', *, *, #699, .F. ) ;
#100 = AXIS2_PLACEMENT_3D ( 'NONE', #691, #712, #1024 ) ;
#101 = LINE ( 'NONE', #772, #160 ) ;
#102 = VECTOR ( 'NONE', #978, 1000.000000000000000 ) ;
#103 = FACE_BOUND ( 'NONE', #351, .T. ) ;
#104 = VECTOR ( 'NONE', #445, 1000.000000000000114 ) ;
#105 = DIRECTION ( 'NONE',  ( 0.000000000000000000, -1.000000000000000000, 3.854941057726240267E-15 ) ) ;
#106 = PRODUCT ( 'SY9000-26-1A', 'SY9000-26-1A', '', ( #161 ) ) ;
#107 = VERTEX_POINT ( 'NONE', #272 ) ;
#108 = FACE_OUTER_BOUND ( 'NONE', #3, .T. ) ;
#109 = DIRECTION ( 'NONE',  ( 0.000000000000000000, -1.000000000000000000, 0.000000000000000000 ) ) ;
#110 = ADVANCED_FACE ( 'NONE', ( #438 ), #192, .T. ) ;
#111 = CARTESIAN_POINT ( 'NONE',  ( -40.50000000000000000, 8.000000000000000000, 11.50000000000000000 ) ) ;
#112 = VERTEX_POINT ( 'NONE', #591 ) ;
#113 = DIRECTION ( 'NONE',  ( 0.000000000000000000, -1.000000000000000000, 0.000000000000000000 ) ) ;
#114 = CARTESIAN_POINT ( 'NONE',  ( -34.10000000000000142, 8.000000000000000000, 12.00000000000000000 ) ) ;
#115 = DIRECTION ( 'NONE',  ( 0.000000000000000000, -1.000000000000000000, 0.000000000000000000 ) ) ;
#116 = ORIENTED_EDGE ( 'NONE', *, *, #903, .T. ) ;
#117 = FACE_OUTER_BOUND ( 'NONE', #750, .T. ) ;
#118 = CIRCLE ( 'NONE', #210, 6.999999999999880984 ) ;
#119 = CIRCLE ( 'NONE', #859, 2.750000000000000000 ) ;
#120 = FACE_BOUND ( 'NONE', #177, .T. ) ;
#121 = AXIS2_PLACEMENT_3D ( 'NONE', #253, #576, #1061 ) ;
#122 = AXIS2_PLACEMENT_3D ( 'NONE', #452, #44, #957 ) ;
#123 = LINE ( 'NONE', #948, #491 ) ;
#124 = EDGE_CURVE ( 'NONE', #435, #910, #339, .T. ) ;
#125 = ORIENTED_EDGE ( 'NONE', *, *, #333, .F. ) ;
#126 =( NAMED_UNIT ( * ) PLANE_ANGLE_UNIT ( ) SI_UNIT ( $, .RADIAN. ) );
#127 = VERTEX_POINT ( 'NONE', #424 ) ;
#128 = CARTESIAN_POINT ( 'NONE',  ( -9.500000000000000000, 0.000000000000000000, -11.50000000000000000 ) ) ;
#129 = CARTESIAN_POINT ( 'NONE',  ( -6.500000000000000000, 9.439120141624506743, -7.450000000000000178 ) ) ;
#130 = ADVANCED_FACE ( 'NONE', ( #677 ), #9, .F. ) ;
#131 = ORIENTED_EDGE ( 'NONE', *, *, #482, .T. ) ;
#132 = CARTESIAN_POINT ( 'NONE',  ( -32.09999999999999432, 10.39564016522860079, 9.199999999999999289 ) ) ;
#133 = CARTESIAN_POINT ( 'NONE',  ( -6.500000000000000000, 10.39564016522860967, -7.158333333333329662 ) ) ;
#134 = ORIENTED_EDGE ( 'NONE', *, *, #300, .F. ) ;
#135 = EDGE_CURVE ( 'NONE', #1056, #826, #348, .T. ) ;
#136 = ORIENTED_EDGE ( 'NONE', *, *, #1037, .T. ) ;
#137 = CARTESIAN_POINT ( 'NONE',  ( 40.50000000000000000, 8.000000000000000000, 11.50000000000000000 ) ) ;
#138 = EDGE_CURVE ( 'NONE', #533, #884, #174, .T. ) ;
#139 = CIRCLE ( 'NONE', #928, 0.9999999999999991118 ) ;
#140 = AXIS2_PLACEMENT_3D ( 'NONE', #696, #19, #681 ) ;
#141 = CIRCLE ( 'NONE', #879, 0.9999999999999991118 ) ;
#142 = CARTESIAN_POINT ( 'NONE',  ( -6.500000000000000000, 10.39564016522860079, -9.199999999999999289 ) ) ;
#143 = ORIENTED_EDGE ( 'NONE', *, *, #547, .T. ) ;
#144 = APPLICATION_PROTOCOL_DEFINITION ( 'draft international standard', 'automotive_design', 1998, #992 ) ;
#145 = ORIENTED_EDGE ( 'NONE', *, *, #824, .F. ) ;
#146 = CARTESIAN_POINT ( 'NONE',  ( -6.500000000000000000, 3.700000000000120082, -9.199999999999999289 ) ) ;
#147 = DIRECTION ( 'NONE',  ( -1.000000000000000000, 0.000000000000000000, 0.000000000000000000 ) ) ;
#148 = EDGE_LOOP ( 'NONE', ( #402, #999, #550 ) ) ;
#149 = ORIENTED_EDGE ( 'NONE', *, *, #300, .T. ) ;
#150 = CARTESIAN_POINT ( 'NONE',  ( 34.60000000000000142, 0.000000000000000000, 11.50000000000000000 ) ) ;
#151 = DIRECTION ( 'NONE',  ( 0.000000000000000000, -1.000000000000000000, 3.854941057726240267E-15 ) ) ;
#152 = DIRECTION ( 'NONE',  ( 0.000000000000000000, 0.000000000000000000, 1.000000000000000000 ) ) ;
#153 = ORIENTED_EDGE ( 'NONE', *, *, #523, .F. ) ;
#154 =( NAMED_UNIT ( * ) PLANE_ANGLE_UNIT ( ) SI_UNIT ( $, .RADIAN. ) );
#155 = VECTOR ( 'NONE', #888, 1000.000000000000000 ) ;
#156 = CARTESIAN_POINT ( 'NONE',  ( -32.09999999999999432, 8.000000000000000000, 9.199999999999999289 ) ) ;
#157 = AXIS2_PLACEMENT_3D ( 'NONE', #454, #687, #773 ) ;
#158 = ORIENTED_EDGE ( 'NONE', *, *, #389, .T. ) ;
#159 = EDGE_CURVE ( 'NONE', #33, #719, #682, .T. ) ;
#160 = VECTOR ( 'NONE', #1026, 1000.000000000000000 ) ;
#161 = PRODUCT_CONTEXT ( 'NONE', #992, 'mechanical' ) ;
#162 = ORIENTED_EDGE ( 'NONE', *, *, #32, .F. ) ;
#163 = LINE ( 'NONE', #241, #66 ) ;
#164 = FACE_OUTER_BOUND ( 'NONE', #170, .T. ) ;
#165 = CARTESIAN_POINT ( 'NONE',  ( 32.09999999999999432, 3.700000000000120082, 9.199999999999999289 ) ) ;
#166 = ADVANCED_FACE ( 'NONE', ( #5 ), #1011, .T. ) ;
#167 = ORIENTED_EDGE ( 'NONE', *, *, #887, .T. ) ;
#168 = CARTESIAN_POINT ( 'NONE',  ( -34.10000000000000142, 0.000000000000000000, 12.00000000000000000 ) ) ;
#169 = VERTEX_POINT ( 'NONE', #847 ) ;
#170 = EDGE_LOOP ( 'NONE', ( #683, #841, #125 ) ) ;
#171 = CARTESIAN_POINT ( 'NONE',  ( 32.09999999999999432, 7.999999999999989342, 6.450000000000000178 ) ) ;
#172 = EDGE_CURVE ( 'NONE', #450, #719, #366, .T. ) ;
#173 = CIRCLE ( 'NONE', #623, 6.999999999999880096 ) ;
#174 = LINE ( 'NONE', #16, #844 ) ;
#175 = AXIS2_PLACEMENT_3D ( 'NONE', #959, #398, #627 ) ;
#176 = AXIS2_PLACEMENT_3D ( 'NONE', #488, #78, #664 ) ;
#177 = EDGE_LOOP ( 'NONE', ( #312, #650 ) ) ;
#178 = CARTESIAN_POINT ( 'NONE',  ( 30.09999999999999787, 8.000000000000000000, 12.00000000000000000 ) ) ;
#179 = EDGE_CURVE ( 'NONE', #982, #539, #674, .T. ) ;
#180 = DIRECTION ( 'NONE',  ( 0.000000000000000000, -3.854941057726240267E-15, -1.000000000000000000 ) ) ;
#181 = ORIENTED_EDGE ( 'NONE', *, *, #124, .T. ) ;
#182 = CARTESIAN_POINT ( 'NONE',  ( -9.000000000000000000, 8.000000000000000000, -12.00000000000000000 ) ) ;
#183 = FACE_OUTER_BOUND ( 'NONE', #633, .T. ) ;
#184 = DIRECTION ( 'NONE',  ( 0.000000000000000000, 0.000000000000000000, 1.000000000000000000 ) ) ;
#185 = ORIENTED_EDGE ( 'NONE', *, *, #242, .F. ) ;
#186 = CARTESIAN_POINT ( 'NONE',  ( -32.09999999999999432, 10.70000000000000107, 9.199999999999972644 ) ) ;
#187 = PLANE ( 'NONE',  #418 ) ;
#188 = DIRECTION ( 'NONE',  ( 0.000000000000000000, -1.000000000000000000, 0.000000000000000000 ) ) ;
#189 = AXIS2_PLACEMENT_3D ( 'NONE', #920, #839, #184 ) ;
#190 = ADVANCED_FACE ( 'NONE', ( #745 ), #705, .F. ) ;
#191 = ORIENTED_EDGE ( 'NONE', *, *, #6, .F. ) ;
#192 = TOROIDAL_SURFACE ( 'NONE', #1038, 1.750000000000000000, 1.000000000000000000 ) ;
#193 = DIRECTION ( 'NONE',  ( 0.000000000000000000, -1.000000000000000000, 3.854941057726240267E-15 ) ) ;
#194 = VECTOR ( 'NONE', #850, 1000.000000000000114 ) ;
#195 = CARTESIAN_POINT ( 'NONE',  ( 40.50000000000000000, 0.000000000000000000, -11.50000000000000000 ) ) ;
#196 = AXIS2_PLACEMENT_3D ( 'NONE', #75, #1065, #338 ) ;
#197 = DIRECTION ( 'NONE',  ( 1.000000000000000000, 0.000000000000000000, 0.000000000000000000 ) ) ;
#198 = ORIENTED_EDGE ( 'NONE', *, *, #662, .F. ) ;
#199 = LINE ( 'NONE', #554, #798 ) ;
#200 = FACE_OUTER_BOUND ( 'NONE', #848, .T. ) ;
#201 = DIRECTION ( 'NONE',  ( 0.000000000000000000, -4.248302390147273616E-15, -1.000000000000000000 ) ) ;
#202 = ORIENTED_EDGE ( 'NONE', *, *, #39, .T. ) ;
#203 = CARTESIAN_POINT ( 'NONE',  ( -32.09999999999999432, 8.000000000000010658, 11.94999999999999929 ) ) ;
#204 = ADVANCED_FACE ( 'NONE', ( #632 ), #628, .F. ) ;
#205 = FACE_OUTER_BOUND ( 'NONE', #1007, .T. ) ;
#206 = ADVANCED_FACE ( 'NONE', ( #390 ), #862, .T. ) ;
#207 = DIRECTION ( 'NONE',  ( 0.000000000000000000, -1.000000000000000000, 0.000000000000000000 ) ) ;
#208 = VERTEX_POINT ( 'NONE', #865 ) ;
#209 = CARTESIAN_POINT ( 'NONE',  ( -40.50000000000000000, 0.000000000000000000, 11.50000000000000000 ) ) ;
#210 = AXIS2_PLACEMENT_3D ( 'NONE', #165, #718, #152 ) ;
#211 = AXIS2_PLACEMENT_3D ( 'NONE', #738, #1068, #335 ) ;
#212 = ORIENTED_EDGE ( 'NONE', *, *, #914, .F. ) ;
#213 = LINE ( 'NONE', #466, #812 ) ;
#214 = AXIS2_PLACEMENT_3D ( 'NONE', #142, #406, #72 ) ;
#215 = PRODUCT_DEFINITION_FORMATION_WITH_SPECIFIED_SOURCE ( 'ANY', '', #106, .NOT_KNOWN. ) ;
#216 = EDGE_CURVE ( 'NONE', #533, #857, #954, .T. ) ;
#217 = DIRECTION ( 'NONE',  ( 0.000000000000000000, -1.000000000000000000, 0.000000000000000000 ) ) ;
#218 = ORIENTED_EDGE ( 'NONE', *, *, #340, .F. ) ;
#219 = VERTEX_POINT ( 'NONE', #616 ) ;
#220 = DIRECTION ( 'NONE',  ( 0.000000000000000000, -1.000000000000000000, 0.000000000000000000 ) ) ;
#221 = CARTESIAN_POINT ( 'NONE',  ( -4.000000000000000000, 0.000000000000000000, -12.00000000000000000 ) ) ;
#222 = ORIENTED_EDGE ( 'NONE', *, *, #20, .F. ) ;
#223 =( LENGTH_UNIT ( ) NAMED_UNIT ( * ) SI_UNIT ( .MILLI., .METRE. ) );
#224 = CARTESIAN_POINT ( 'NONE',  ( 29.60000000000000142, 8.000000000000000000, 11.50000000000000000 ) ) ;
#225 = DIRECTION ( 'NONE',  ( 0.000000000000000000, -1.000000000000000000, 0.000000000000000000 ) ) ;
#226 = ORIENTED_EDGE ( 'NONE', *, *, #662, .T. ) ;
#227 =( LENGTH_UNIT ( ) NAMED_UNIT ( * ) SI_UNIT ( .MILLI., .METRE. ) );
#228 = AXIS2_PLACEMENT_3D ( 'NONE', #411, #733, #254 ) ;
#229 = CARTESIAN_POINT ( 'NONE',  ( -29.60000000000000142, 8.000000000000000000, 11.50000000000000000 ) ) ;
#230 = AXIS2_PLACEMENT_3D ( 'NONE', #579, #902, #77 ) ;
#231 = VECTOR ( 'NONE', #637, 1000.000000000000000 ) ;
#232 =( GEOMETRIC_REPRESENTATION_CONTEXT ( 3 ) GLOBAL_UNCERTAINTY_ASSIGNED_CONTEXT ( ( #886 ) ) GLOBAL_UNIT_ASSIGNED_CONTEXT ( ( #223, #392, #303 ) ) REPRESENTATION_CONTEXT ( 'NONE', 'WORKASPACE' ) );
#233 = DIRECTION ( 'NONE',  ( 0.000000000000000000, -1.000000000000000000, 3.854941057726240267E-15 ) ) ;
#234 = ORIENTED_EDGE ( 'NONE', *, *, #855, .T. ) ;
#235 = SURFACE_STYLE_FILL_AREA ( #971 ) ;
#236 = VERTEX_POINT ( 'NONE', #133 ) ;
#237 = LINE ( 'NONE', #137, #947 ) ;
#238 = DIRECTION ( 'NONE',  ( 0.000000000000000000, 0.000000000000000000, -1.000000000000000000 ) ) ;
#239 = VERTEX_POINT ( 'NONE', #221 ) ;
#240 = ORIENTED_EDGE ( 'NONE', *, *, #442, .F. ) ;
#241 = CARTESIAN_POINT ( 'NONE',  ( -34.60000000000000142, 8.000000000000000000, 11.50000000000000000 ) ) ;
#242 = EDGE_CURVE ( 'NONE', #58, #977, #374, .T. ) ;
#243 = DIRECTION ( 'NONE',  ( 0.000000000000000000, -3.854941057726240267E-15, -1.000000000000000000 ) ) ;
#244 = ORIENTED_EDGE ( 'NONE', *, *, #584, .F. ) ;
#245 = ORIENTED_EDGE ( 'NONE', *, *, #1, .T. ) ;
#246 = FACE_OUTER_BOUND ( 'NONE', #496, .T. ) ;
#247 = VECTOR ( 'NONE', #115, 1000.000000000000000 ) ;
#248 = DIRECTION ( 'NONE',  ( 1.000000000000000000, 0.000000000000000000, 0.000000000000000000 ) ) ;
#249 = DIRECTION ( 'NONE',  ( 0.7071067811865474617, 0.000000000000000000, 0.7071067811865474617 ) ) ;
#250 = AXIS2_PLACEMENT_3D ( 'NONE', #426, #193, #516 ) ;
#251 = SHAPE_DEFINITION_REPRESENTATION ( #535, #448 ) ;
#252 = EDGE_LOOP ( 'NONE', ( #791, #1018, #531, #993 ) ) ;
#253 = CARTESIAN_POINT ( 'NONE',  ( 40.50000000000000000, 8.000000000000000000, 11.50000000000000000 ) ) ;
#254 = DIRECTION ( 'NONE',  ( 0.000000000000000000, -4.248302390147275983E-15, -1.000000000000000000 ) ) ;
#255 = APPLICATION_PROTOCOL_DEFINITION ( 'draft international standard', 'automotive_design', 1998, #565 ) ;
#256 = ADVANCED_FACE ( 'NONE', ( #701 ), #1028, .F. ) ;
#257 = ORIENTED_EDGE ( 'NONE', *, *, #584, .T. ) ;
#258 = DIRECTION ( 'NONE',  ( 0.000000000000000000, -3.784851220313033947E-15, -1.000000000000000000 ) ) ;
#259 = CARTESIAN_POINT ( 'NONE',  ( 30.09999999999999787, 8.000000000000000000, 12.00000000000000000 ) ) ;
#260 = ORIENTED_EDGE ( 'NONE', *, *, #840, .T. ) ;
#261 =( NAMED_UNIT ( * ) SI_UNIT ( $, .STERADIAN. ) SOLID_ANGLE_UNIT ( ) );
#262 = VECTOR ( 'NONE', #248, 1000.000000000000000 ) ;
#263 = PLANE ( 'NONE',  #604 ) ;
#264 = VECTOR ( 'NONE', #611, 1000.000000000000000 ) ;
#265 = EDGE_LOOP ( 'NONE', ( #548, #158, #198 ) ) ;
#266 = CARTESIAN_POINT ( 'NONE',  ( 40.50000000000000000, 8.000000000000000000, 11.50000000000000000 ) ) ;
#267 = DIRECTION ( 'NONE',  ( 0.000000000000000000, -3.784851220313033947E-15, -1.000000000000000000 ) ) ;
#268 = ORIENTED_EDGE ( 'NONE', *, *, #138, .F. ) ;
#269 = DIRECTION ( 'NONE',  ( 0.7071067811865474617, 0.000000000000000000, -0.7071067811865474617 ) ) ;
#270 = LINE ( 'NONE', #517, #897 ) ;
#271 = EDGE_CURVE ( 'NONE', #236, #33, #139, .T. ) ;
#272 = CARTESIAN_POINT ( 'NONE',  ( 32.09999999999999432, 9.439120141624499638, 6.450000000000000178 ) ) ;
#273 = ORIENTED_EDGE ( 'NONE', *, *, #914, .T. ) ;
#274 = DIRECTION ( 'NONE',  ( -0.7071067811865869857, 0.000000000000000000, 0.7071067811865080488 ) ) ;
#275 = DIRECTION ( 'NONE',  ( 0.000000000000000000, -3.841173411091566786E-15, -1.000000000000000000 ) ) ;
#276 = CARTESIAN_POINT ( 'NONE',  ( -32.09999999999999432, 3.700000000000120082, 9.199999999999999289 ) ) ;
#277 = EDGE_CURVE ( 'NONE', #239, #112, #782, .T. ) ;
#278 = AXIS2_PLACEMENT_3D ( 'NONE', #111, #455, #869 ) ;
#279 = VERTEX_POINT ( 'NONE', #960 ) ;
#280 = AXIS2_PLACEMENT_3D ( 'NONE', #431, #929, #370 ) ;
#281 = LINE ( 'NONE', #1019, #931 ) ;
#282 = VECTOR ( 'NONE', #853, 1000.000000000000000 ) ;
#283 = LINE ( 'NONE', #615, #264 ) ;
#284 = LINE ( 'NONE', #467, #470 ) ;
#285 = EDGE_CURVE ( 'NONE', #1060, #977, #284, .T. ) ;
#286 = ORIENTED_EDGE ( 'NONE', *, *, #680, .T. ) ;
#287 = FACE_OUTER_BOUND ( 'NONE', #702, .T. ) ;
#288 = ADVANCED_FACE ( 'NONE', ( #794 ), #47, .T. ) ;
#289 = CARTESIAN_POINT ( 'NONE',  ( -3.499999999999940048, 8.000000000000000000, -11.50000000000000000 ) ) ;
#290 = DIRECTION ( 'NONE',  ( 0.000000000000000000, -3.784851220313034736E-15, -1.000000000000000000 ) ) ;
#291 = ORIENTED_EDGE ( 'NONE', *, *, #67, .T. ) ;
#292 = CARTESIAN_POINT ( 'NONE',  ( 32.09999999999999432, 9.439120141624519178, 11.94999999999999929 ) ) ;
#293 = ORIENTED_EDGE ( 'NONE', *, *, #408, .T. ) ;
#294 = DIRECTION ( 'NONE',  ( 0.000000000000000000, -3.841173411091566786E-15, -1.000000000000000000 ) ) ;
#295 = DIRECTION ( 'NONE',  ( 1.000000000000000000, 0.000000000000000000, 0.000000000000000000 ) ) ;
#296 = VERTEX_POINT ( 'NONE', #381 ) ;
#297 = AXIS2_PLACEMENT_3D ( 'NONE', #717, #151, #654 ) ;
#298 = DIRECTION ( 'NONE',  ( 0.000000000000000000, -1.000000000000000000, 3.854941057726240267E-15 ) ) ;
#299 = AXIS2_PLACEMENT_3D ( 'NONE', #983, #997, #1072 ) ;
#300 = EDGE_CURVE ( 'NONE', #453, #1056, #443, .T. ) ;
#301 = DIRECTION ( 'NONE',  ( 0.000000000000000000, -1.000000000000000000, 3.854941057726240267E-15 ) ) ;
#302 = ORIENTED_EDGE ( 'NONE', *, *, #277, .T. ) ;
#303 =( NAMED_UNIT ( * ) SI_UNIT ( $, .STERADIAN. ) SOLID_ANGLE_UNIT ( ) );
#304 = DIRECTION ( 'NONE',  ( 0.000000000000000000, 0.000000000000000000, 1.000000000000000000 ) ) ;
#305 = EDGE_LOOP ( 'NONE', ( #746, #996, #852, #502 ) ) ;
#306 = CARTESIAN_POINT ( 'NONE',  ( 34.60000000000000142, 8.000000000000000000, 11.50000000000000000 ) ) ;
#307 = ORIENTED_EDGE ( 'NONE', *, *, #699, .T. ) ;
#308 = LINE ( 'NONE', #59, #641 ) ;
#309 = LINE ( 'NONE', #809, #231 ) ;
#310 = ORIENTED_EDGE ( 'NONE', *, *, #359, .T. ) ;
#311 = CARTESIAN_POINT ( 'NONE',  ( -32.09999999999999432, 7.999999999999989342, 6.450000000000000178 ) ) ;
#312 = ORIENTED_EDGE ( 'NONE', *, *, #423, .T. ) ;
#313 = DIRECTION ( 'NONE',  ( -0.7071067811865869857, 0.000000000000000000, -0.7071067811865080488 ) ) ;
#314 = AXIS2_PLACEMENT_3D ( 'NONE', #2, #909, #197 ) ;
#315 = AXIS2_PLACEMENT_3D ( 'NONE', #542, #41, #473 ) ;
#316 = CARTESIAN_POINT ( 'NONE',  ( 40.50000000000000000, 0.000000000000000000, 11.50000000000000000 ) ) ;
#317 = LINE ( 'NONE', #68, #449 ) ;
#318 = EDGE_LOOP ( 'NONE', ( #291, #94 ) ) ;
#319 = CARTESIAN_POINT ( 'NONE',  ( -3.499999999999940048, 0.000000000000000000, -11.50000000000000000 ) ) ;
#320 = EDGE_CURVE ( 'NONE', #107, #1029, #875, .T. ) ;
#321 = CARTESIAN_POINT ( 'NONE',  ( 34.60000000000000142, 8.000000000000000000, 11.50000000000000000 ) ) ;
#322 = CARTESIAN_POINT ( 'NONE',  ( -6.500000000000000000, 9.439120141624492533, -10.94999999999999929 ) ) ;
#323 = ORIENTED_EDGE ( 'NONE', *, *, #559, .T. ) ;
#324 = SURFACE_STYLE_USAGE ( .BOTH. , #823 ) ;
#325 = EDGE_CURVE ( 'NONE', #921, #112, #123, .T. ) ;
#326 = DIRECTION ( 'NONE',  ( 0.000000000000000000, -3.784851220313033947E-15, -1.000000000000000000 ) ) ;
#327 = VERTEX_POINT ( 'NONE', #530 ) ;
#328 = ORIENTED_EDGE ( 'NONE', *, *, #753, .F. ) ;
#329 = CARTESIAN_POINT ( 'NONE',  ( -34.60000000000000142, 0.000000000000000000, 11.50000000000000000 ) ) ;
#330 = VECTOR ( 'NONE', #697, 1000.000000000000000 ) ;
#331 = EDGE_CURVE ( 'NONE', #1029, #836, #1040, .T. ) ;
#332 = VECTOR ( 'NONE', #967, 1000.000000000000114 ) ;
#333 = EDGE_CURVE ( 'NONE', #327, #236, #347, .T. ) ;
#334 = VECTOR ( 'NONE', #1051, 1000.000000000000000 ) ;
#335 = DIRECTION ( 'NONE',  ( 1.000000000000000000, 0.000000000000000000, 0.000000000000000000 ) ) ;
#336 = AXIS2_PLACEMENT_3D ( 'NONE', #614, #369, #842 ) ;
#337 = ORIENTED_EDGE ( 'NONE', *, *, #46, .T. ) ;
#338 = DIRECTION ( 'NONE',  ( 0.000000000000000000, -4.248302390147275983E-15, -1.000000000000000000 ) ) ;
#339 = LINE ( 'NONE', #915, #64 ) ;
#340 = EDGE_CURVE ( 'NONE', #557, #857, #31, .T. ) ;
#341 = ORIENTED_EDGE ( 'NONE', *, *, #442, .T. ) ;
#342 = CARTESIAN_POINT ( 'NONE',  ( -9.000000000000000000, 0.000000000000000000, -12.00000000000000000 ) ) ;
#343 = CARTESIAN_POINT ( 'NONE',  ( 32.09999999999999432, 8.000000000000000000, 9.199999999999999289 ) ) ;
#344 = ORIENTED_EDGE ( 'NONE', *, *, #271, .T. ) ;
#345 = CARTESIAN_POINT ( 'NONE',  ( -6.500000000000000000, 7.999999999999989342, -11.94999999999999929 ) ) ;
#346 = FACE_OUTER_BOUND ( 'NONE', #425, .T. ) ;
#347 = CIRCLE ( 'NONE', #966, 2.041666666666670960 ) ;
#348 = LINE ( 'NONE', #835, #793 ) ;
#349 = CIRCLE ( 'NONE', #175, 2.041666666666670071 ) ;
#350 = VECTOR ( 'NONE', #527, 1000.000000000000000 ) ;
#351 = EDGE_LOOP ( 'NONE', ( #694, #62 ) ) ;
#352 = CARTESIAN_POINT ( 'NONE',  ( -34.10000000000000142, 8.000000000000000000, 12.00000000000000000 ) ) ;
#353 = CARTESIAN_POINT ( 'NONE',  ( 32.09999999999999432, 3.700000000000120082, 9.199999999999999289 ) ) ;
#354 = EDGE_CURVE ( 'NONE', #816, #958, #505, .T. ) ;
#355 = DIRECTION ( 'NONE',  ( -0.7071067811865869857, 0.000000000000000000, -0.7071067811865080488 ) ) ;
#356 = ORIENTED_EDGE ( 'NONE', *, *, #39, .F. ) ;
#357 = PLANE ( 'NONE',  #661 ) ;
#358 = CARTESIAN_POINT ( 'NONE',  ( -30.09999999999999787, 0.000000000000000000, 12.00000000000000000 ) ) ;
#359 = EDGE_CURVE ( 'NONE', #884, #921, #477, .T. ) ;
#360 = DIRECTION ( 'NONE',  ( 0.000000000000000000, -1.000000000000000000, 3.854941057726240267E-15 ) ) ;
#361 = ORIENTED_EDGE ( 'NONE', *, *, #325, .T. ) ;
#362 = CARTESIAN_POINT ( 'NONE',  ( 32.09999999999999432, 9.439120141624506743, 10.94999999999999929 ) ) ;
#363 = FACE_BOUND ( 'NONE', #318, .T. ) ;
#364 = CARTESIAN_POINT ( 'NONE',  ( -6.500000000000000000, 10.39564016522860079, -9.199999999999999289 ) ) ;
#365 = ADVANCED_FACE ( 'NONE', ( #346 ), #498, .F. ) ;
#366 = CIRCLE ( 'NONE', #385, 2.749999999999999112 ) ;
#367 = ORIENTED_EDGE ( 'NONE', *, *, #908, .F. ) ;
#368 = VECTOR ( 'NONE', #644, 1000.000000000000000 ) ;
#369 = DIRECTION ( 'NONE',  ( -1.000000000000000000, -0.000000000000000000, 0.000000000000000000 ) ) ;
#370 = DIRECTION ( 'NONE',  ( 1.000000000000000000, 0.000000000000000000, 0.000000000000000000 ) ) ;
#371 = CARTESIAN_POINT ( 'NONE',  ( 40.50000000000000000, 0.000000000000000000, -11.50000000000000000 ) ) ;
#372 = EDGE_LOOP ( 'NONE', ( #499, #807, #202, #986 ) ) ;
#373 = LINE ( 'NONE', #446, #194 ) ;
#374 = LINE ( 'NONE', #37, #330 ) ;
#375 = ORIENTED_EDGE ( 'NONE', *, *, #753, .T. ) ;
#376 = FACE_OUTER_BOUND ( 'NONE', #878, .T. ) ;
#377 = EDGE_CURVE ( 'NONE', #1064, #127, #815, .T. ) ;
#378 = ORIENTED_EDGE ( 'NONE', *, *, #159, .T. ) ;
#379 = CARTESIAN_POINT ( 'NONE',  ( -6.500000000000000000, 9.439120141624499638, -11.94999999999999929 ) ) ;
#380 = CIRCLE ( 'NONE', #984, 2.749999999999999112 ) ;
#381 = CARTESIAN_POINT ( 'NONE',  ( 40.50000000000000000, 8.000000000000000000, 11.50000000000000000 ) ) ;
#382 = ORIENTED_EDGE ( 'NONE', *, *, #634, .F. ) ;
#383 = CARTESIAN_POINT ( 'NONE',  ( 34.10000000000000142, 8.000000000000000000, 12.00000000000000000 ) ) ;
#384 = CIRCLE ( 'NONE', #518, 2.750000000000000000 ) ;
#385 = AXIS2_PLACEMENT_3D ( 'NONE', #606, #105, #1016 ) ;
#386 = ORIENTED_EDGE ( 'NONE', *, *, #377, .F. ) ;
#387 = FACE_OUTER_BOUND ( 'NONE', #305, .T. ) ;
#388 = CIRCLE ( 'NONE', #845, 2.749999999999999112 ) ;
#389 = EDGE_CURVE ( 'NONE', #982, #26, #173, .T. ) ;
#390 = FACE_OUTER_BOUND ( 'NONE', #656, .T. ) ;
#391 = ORIENTED_EDGE ( 'NONE', *, *, #277, .F. ) ;
#392 =( NAMED_UNIT ( * ) PLANE_ANGLE_UNIT ( ) SI_UNIT ( $, .RADIAN. ) );
#393 = ORIENTED_EDGE ( 'NONE', *, *, #423, .F. ) ;
#394 = DIRECTION ( 'NONE',  ( -1.239088197126311771E-16, 0.000000000000000000, -1.000000000000000000 ) ) ;
#395 = ADVANCED_FACE ( 'NONE', ( #578 ), #728, .T. ) ;
#396 = DIRECTION ( 'NONE',  ( 1.000000000000000000, -4.720941227246152480E-31, -1.224646799147353207E-16 ) ) ;
#397 = ORIENTED_EDGE ( 'NONE', *, *, #482, .F. ) ;
#398 = DIRECTION ( 'NONE',  ( 0.000000000000000000, -1.000000000000000000, 3.854941057726240267E-15 ) ) ;
#399 = CARTESIAN_POINT ( 'NONE',  ( -9.000000000000000000, 8.000000000000000000, -12.00000000000000000 ) ) ;
#400 = EDGE_CURVE ( 'NONE', #754, #726, #119, .T. ) ;
#401 = CARTESIAN_POINT ( 'NONE',  ( -6.500000000000000000, 9.439120141624510296, -9.199999999999999289 ) ) ;
#402 = ORIENTED_EDGE ( 'NONE', *, *, #354, .F. ) ;
#403 = AXIS2_PLACEMENT_3D ( 'NONE', #649, #233, #820 ) ;
#404 = CIRCLE ( 'NONE', #675, 2.750000000000000000 ) ;
#405 = PRESENTATION_LAYER_ASSIGNMENT (  '', '', ( #900 ) ) ;
#406 = DIRECTION ( 'NONE',  ( 0.000000000000000000, -1.000000000000000000, 3.854941057726240267E-15 ) ) ;
#407 = DIRECTION ( 'NONE',  ( 0.000000000000000000, -3.784851220313034736E-15, -1.000000000000000000 ) ) ;
#408 = EDGE_CURVE ( 'NONE', #884, #239, #985, .T. ) ;
#409 = ORIENTED_EDGE ( 'NONE', *, *, #860, .F. ) ;
#410 = CARTESIAN_POINT ( 'NONE',  ( -40.50000000000000000, 0.000000000000000000, -11.50000000000000000 ) ) ;
#411 = CARTESIAN_POINT ( 'NONE',  ( 32.09999999999999432, 10.39564016522860079, 9.199999999999999289 ) ) ;
#412 = ORIENTED_EDGE ( 'NONE', *, *, #692, .F. ) ;
#413 = CARTESIAN_POINT ( 'NONE',  ( -6.500000000000000000, 3.700000000000120082, -9.199999999999999289 ) ) ;
#414 = PLANE ( 'NONE',  #211 ) ;
#415 = ORIENTED_EDGE ( 'NONE', *, *, #216, .F. ) ;
#416 = DIRECTION ( 'NONE',  ( 0.000000000000000000, -1.000000000000000000, 0.000000000000000000 ) ) ;
#417 = AXIS2_PLACEMENT_3D ( 'NONE', #788, #851, #290 ) ;
#418 = AXIS2_PLACEMENT_3D ( 'NONE', #114, #29, #1027 ) ;
#419 = TOROIDAL_SURFACE ( 'NONE', #560, 1.750000000000000000, 1.000000000000000000 ) ;
#420 = DIRECTION ( 'NONE',  ( 0.000000000000000000, 0.000000000000000000, 1.000000000000000000 ) ) ;
#421 = ORIENTED_EDGE ( 'NONE', *, *, #825, .T. ) ;
#422 =( LENGTH_UNIT ( ) NAMED_UNIT ( * ) SI_UNIT ( .MILLI., .METRE. ) );
#423 = EDGE_CURVE ( 'NONE', #726, #754, #758, .T. ) ;
#424 = CARTESIAN_POINT ( 'NONE',  ( 29.60000000000000142, 0.000000000000000000, 11.50000000000000000 ) ) ;
#425 = EDGE_LOOP ( 'NONE', ( #149, #40, #784, #833 ) ) ;
#426 = CARTESIAN_POINT ( 'NONE',  ( -32.09999999999999432, 9.439120141624499638, 9.199999999999999289 ) ) ;
#427 = DIRECTION ( 'NONE',  ( 0.000000000000000000, 0.000000000000000000, -1.000000000000000000 ) ) ;
#428 = ADVANCED_FACE ( 'NONE', ( #164 ), #882, .T. ) ;
#429 = ORIENTED_EDGE ( 'NONE', *, *, #589, .F. ) ;
#430 = CARTESIAN_POINT ( 'NONE',  ( -30.09999999999999787, 8.000000000000000000, 12.00000000000000000 ) ) ;
#431 = CARTESIAN_POINT ( 'NONE',  ( 0.000000000000000000, 8.000000000000000000, 0.000000000000000000 ) ) ;
#432 = VECTOR ( 'NONE', #752, 1000.000000000000000 ) ;
#433 = DIRECTION ( 'NONE',  ( 0.000000000000000000, -1.000000000000000000, 3.854941057726240267E-15 ) ) ;
#434 =( GEOMETRIC_REPRESENTATION_CONTEXT ( 3 ) GLOBAL_UNCERTAINTY_ASSIGNED_CONTEXT ( ( #582 ) ) GLOBAL_UNIT_ASSIGNED_CONTEXT ( ( #422, #154, #261 ) ) REPRESENTATION_CONTEXT ( 'NONE', 'WORKASPACE' ) );
#435 = VERTEX_POINT ( 'NONE', #321 ) ;
#436 = LINE ( 'NONE', #684, #104 ) ;
#437 = DIRECTION ( 'NONE',  ( 0.7071067811865475727, 0.000000000000000000, -0.7071067811865475727 ) ) ;
#438 = FACE_OUTER_BOUND ( 'NONE', #950, .T. ) ;
#439 = VERTEX_POINT ( 'NONE', #493 ) ;
#440 = DIRECTION ( 'NONE',  ( 0.7071067811865490160, 0.000000000000000000, 0.7071067811865461294 ) ) ;
#441 = SPHERICAL_SURFACE ( 'NONE', #157, 6.999999999999880096 ) ;
#442 = EDGE_CURVE ( 'NONE', #921, #219, #486, .T. ) ;
#443 = LINE ( 'NONE', #1034, #538 ) ;
#444 = ORIENTED_EDGE ( 'NONE', *, *, #408, .F. ) ;
#445 = DIRECTION ( 'NONE',  ( 0.7071067811865474617, 0.000000000000000000, -0.7071067811865474617 ) ) ;
#446 = CARTESIAN_POINT ( 'NONE',  ( -34.60000000000000142, 0.000000000000000000, 11.50000000000000000 ) ) ;
#447 = DIRECTION ( 'NONE',  ( 0.000000000000000000, 0.000000000000000000, 1.000000000000000000 ) ) ;
#448 = ADVANCED_BREP_SHAPE_REPRESENTATION ( 'SY9000-26-1A', ( #756, #176 ), #232 ) ;
#449 = VECTOR ( 'NONE', #249, 1000.000000000000114 ) ;
#450 = VERTEX_POINT ( 'NONE', #552 ) ;
#451 = MECHANICAL_DESIGN_GEOMETRIC_PRESENTATION_REPRESENTATION (  '', ( #540 ), #434 ) ;
#452 = CARTESIAN_POINT ( 'NONE',  ( -34.60000000000000142, 8.000000000000000000, 11.50000000000000000 ) ) ;
#453 = VERTEX_POINT ( 'NONE', #410 ) ;
#454 = CARTESIAN_POINT ( 'NONE',  ( -6.500000000000000000, 3.700000000000120082, -9.199999999999999289 ) ) ;
#455 = DIRECTION ( 'NONE',  ( 0.000000000000000000, 0.000000000000000000, -1.000000000000000000 ) ) ;
#456 = EDGE_CURVE ( 'NONE', #236, #327, #14, .T. ) ;
#457 = ORIENTED_EDGE ( 'NONE', *, *, #331, .T. ) ;
#458 = DIRECTION ( 'NONE',  ( 0.000000000000000000, -1.000000000000000000, 0.000000000000000000 ) ) ;
#459 = ORIENTED_EDGE ( 'NONE', *, *, #474, .F. ) ;
#460 = FACE_OUTER_BOUND ( 'NONE', #265, .T. ) ;
#461 = CARTESIAN_POINT ( 'NONE',  ( -4.000000000000000000, 0.000000000000000000, -12.00000000000000000 ) ) ;
#462 = ORIENTED_EDGE ( 'NONE', *, *, #523, .T. ) ;
#463 = LINE ( 'NONE', #469, #991 ) ;
#464 = EDGE_CURVE ( 'NONE', #665, #279, #309, .T. ) ;
#465 = ORIENTED_EDGE ( 'NONE', *, *, #135, .F. ) ;
#466 = CARTESIAN_POINT ( 'NONE',  ( -3.499999999999940048, 0.000000000000000000, -11.50000000000000000 ) ) ;
#467 = CARTESIAN_POINT ( 'NONE',  ( 34.10000000000000142, 8.000000000000000000, 12.00000000000000000 ) ) ;
#468 = ORIENTED_EDGE ( 'NONE', *, *, #46, .F. ) ;
#469 = CARTESIAN_POINT ( 'NONE',  ( -40.50000000000000000, 8.000000000000000000, 11.50000000000000000 ) ) ;
#470 = VECTOR ( 'NONE', #225, 1000.000000000000000 ) ;
#471 = CIRCLE ( 'NONE', #30, 2.749999999999999112 ) ;
#472 = ORIENTED_EDGE ( 'NONE', *, *, #179, .T. ) ;
#473 = DIRECTION ( 'NONE',  ( 0.000000000000000000, -3.841173411091566786E-15, -1.000000000000000000 ) ) ;
#474 = EDGE_CURVE ( 'NONE', #779, #581, #800, .T. ) ;
#475 = TOROIDAL_SURFACE ( 'NONE', #250, 1.750000000000000000, 1.000000000000000000 ) ;
#476 = VECTOR ( 'NONE', #917, 1000.000000000000000 ) ;
#477 = LINE ( 'NONE', #721, #1000 ) ;
#478 = EDGE_LOOP ( 'NONE', ( #956, #1012, #617, #729 ) ) ;
#479 =( NAMED_UNIT ( * ) SI_UNIT ( $, .STERADIAN. ) SOLID_ANGLE_UNIT ( ) );
#480 = DIRECTION ( 'NONE',  ( 1.000000000000000000, 0.000000000000000000, 0.000000000000000000 ) ) ;
#481 = ADVANCED_FACE ( 'NONE', ( #980 ), #605, .T. ) ;
#482 = EDGE_CURVE ( 'NONE', #17, #557, #574, .T. ) ;
#483 = EDGE_LOOP ( 'NONE', ( #521, #415, #905, #827 ) ) ;
#484 = ORIENTED_EDGE ( 'NONE', *, *, #172, .F. ) ;
#485 = CARTESIAN_POINT ( 'NONE',  ( -40.50000000000000000, 8.000000000000000000, -11.50000000000000000 ) ) ;
#486 = LINE ( 'NONE', #399, #332 ) ;
#487 = DIRECTION ( 'NONE',  ( 0.000000000000000000, -3.784851220313033947E-15, -1.000000000000000000 ) ) ;
#488 = CARTESIAN_POINT ( 'NONE',  ( 0.000000000000000000, 0.000000000000000000, 0.000000000000000000 ) ) ;
#489 = ORIENTED_EDGE ( 'NONE', *, *, #320, .T. ) ;
#490 = SURFACE_STYLE_FILL_AREA ( #899 ) ;
#491 = VECTOR ( 'NONE', #217, 1000.000000000000000 ) ;
#492 = AXIS2_PLACEMENT_3D ( 'NONE', #891, #990, #258 ) ;
#493 = CARTESIAN_POINT ( 'NONE',  ( 32.09999999999999432, 10.39564016522859191, 7.158333333333329662 ) ) ;
#494 = ADVANCED_FACE ( 'NONE', ( #65 ), #732, .F. ) ;
#495 = EDGE_LOOP ( 'NONE', ( #609, #421, #642, #1047 ) ) ;
#496 = EDGE_LOOP ( 'NONE', ( #803, #257, #79, #38 ) ) ;
#497 = CARTESIAN_POINT ( 'NONE',  ( -32.09999999999999432, 8.000000000000000000, 9.199999999999999289 ) ) ;
#498 = PLANE ( 'NONE',  #640 ) ;
#499 = ORIENTED_EDGE ( 'NONE', *, *, #271, .F. ) ;
#500 = ORIENTED_EDGE ( 'NONE', *, *, #634, .T. ) ;
#501 = DIRECTION ( 'NONE',  ( -1.000000000000000000, -0.000000000000000000, 0.000000000000000000 ) ) ;
#502 = ORIENTED_EDGE ( 'NONE', *, *, #872, .F. ) ;
#503 = ORIENTED_EDGE ( 'NONE', *, *, #80, .T. ) ;
#504 = LINE ( 'NONE', #819, #102 ) ;
#505 = CIRCLE ( 'NONE', #28, 6.999999999999880096 ) ;
#506 = VECTOR ( 'NONE', #594, 1000.000000000000000 ) ;
#507 = CARTESIAN_POINT ( 'NONE',  ( -29.60000000000000142, 8.000000000000000000, 11.50000000000000000 ) ) ;
#508 = VERTEX_POINT ( 'NONE', #96 ) ;
#509 = EDGE_CURVE ( 'NONE', #719, #450, #471, .T. ) ;
#510 = DIRECTION ( 'NONE',  ( -1.301042606982610054E-15, 0.000000000000000000, 1.000000000000000000 ) ) ;
#511 = EDGE_LOOP ( 'NONE', ( #1035, #698, #952, #651 ) ) ;
#512 = DIRECTION ( 'NONE',  ( 0.7071067811865474617, 0.000000000000000000, 0.7071067811865474617 ) ) ;
#513 = FACE_OUTER_BOUND ( 'NONE', #813, .T. ) ;
#514 = ADVANCED_FACE ( 'NONE', ( #36, #363, #103, #120 ), #700, .T. ) ;
#515 = ORIENTED_EDGE ( 'NONE', *, *, #389, .F. ) ;
#516 = DIRECTION ( 'NONE',  ( 0.000000000000000000, -3.854941057726240267E-15, -1.000000000000000000 ) ) ;
#517 = CARTESIAN_POINT ( 'NONE',  ( 30.09999999999999787, 8.000000000000000000, 12.00000000000000000 ) ) ;
#518 = AXIS2_PLACEMENT_3D ( 'NONE', #1063, #821, #487 ) ;
#519 = DIRECTION ( 'NONE',  ( 0.000000000000000000, -3.784851220313033947E-15, -1.000000000000000000 ) ) ;
#520 = AXIS2_PLACEMENT_3D ( 'NONE', #132, #298, #631 ) ;
#521 = ORIENTED_EDGE ( 'NONE', *, *, #340, .T. ) ;
#522 = DIRECTION ( 'NONE',  ( 0.000000000000000000, -1.000000000000000000, 3.854941057726240267E-15 ) ) ;
#523 = EDGE_CURVE ( 'NONE', #826, #779, #373, .T. ) ;
#524 = CARTESIAN_POINT ( 'NONE',  ( -32.09999999999999432, 10.39564016522859191, 7.158333333333329662 ) ) ;
#525 = DIRECTION ( 'NONE',  ( 0.000000000000000000, -1.000000000000000000, 0.000000000000000000 ) ) ;
#526 = VERTEX_POINT ( 'NONE', #599 ) ;
#527 = DIRECTION ( 'NONE',  ( 1.000000000000000000, 0.000000000000000000, 0.000000000000000000 ) ) ;
#528 = CARTESIAN_POINT ( 'NONE',  ( 40.50000000000000000, 8.000000000000000000, -11.50000000000000000 ) ) ;
#529 = ADVANCED_FACE ( 'NONE', ( #200 ), #441, .T. ) ;
#530 = CARTESIAN_POINT ( 'NONE',  ( -6.500000000000000000, 10.39564016522859191, -11.24166666666667069 ) ) ;
#531 = ORIENTED_EDGE ( 'NONE', *, *, #93, .F. ) ;
#532 = CARTESIAN_POINT ( 'NONE',  ( 34.10000000000000142, 8.000000000000000000, 12.00000000000000000 ) ) ;
#533 = VERTEX_POINT ( 'NONE', #289 ) ;
#534 = DIRECTION ( 'NONE',  ( 1.000000000000000000, 0.000000000000000000, 0.000000000000000000 ) ) ;
#535 = PRODUCT_DEFINITION_SHAPE ( 'NONE', 'NONE',  #1044 ) ;
#536 = VECTOR ( 'NONE', #638, 1000.000000000000000 ) ;
#537 = DIRECTION ( 'NONE',  ( 0.000000000000000000, 0.000000000000000000, -1.000000000000000000 ) ) ;
#538 = VECTOR ( 'NONE', #447, 1000.000000000000000 ) ;
#539 = VERTEX_POINT ( 'NONE', #524 ) ;
#540 = STYLED_ITEM ( 'NONE', ( #727 ), #756 ) ;
#541 = EDGE_LOOP ( 'NONE', ( #489, #457, #1042, #145 ) ) ;
#542 = CARTESIAN_POINT ( 'NONE',  ( 32.09999999999999432, 3.700000000000120082, 9.199999999999999289 ) ) ;
#543 = CARTESIAN_POINT ( 'NONE',  ( 34.60000000000000142, 8.000000000000000000, 11.50000000000000000 ) ) ;
#544 = ORIENTED_EDGE ( 'NONE', *, *, #580, .F. ) ;
#545 = DIRECTION ( 'NONE',  ( -1.000000000000000000, 0.000000000000000000, 0.000000000000000000 ) ) ;
#546 = CARTESIAN_POINT ( 'NONE',  ( -4.000000000000000000, 8.000000000000000000, -12.00000000000000000 ) ) ;
#547 = EDGE_CURVE ( 'NONE', #624, #33, #388, .T. ) ;
#548 = ORIENTED_EDGE ( 'NONE', *, *, #179, .F. ) ;
#549 = PLANE ( 'NONE',  #84 ) ;
#550 = ORIENTED_EDGE ( 'NONE', *, *, #825, .F. ) ;
#551 = CARTESIAN_POINT ( 'NONE',  ( -32.09999999999999432, 7.999999999999989342, 6.450000000000000178 ) ) ;
#552 = CARTESIAN_POINT ( 'NONE',  ( -6.500000000000000000, 7.999999999999989342, -11.94999999999999929 ) ) ;
#553 = EDGE_LOOP ( 'NONE', ( #898, #766, #7, #873, #116, #500, #613, #678, #635, #136, #1025, #671, #597, #310, #341, #707 ) ) ;
#554 = CARTESIAN_POINT ( 'NONE',  ( -40.50000000000000000, 8.000000000000000000, -11.50000000000000000 ) ) ;
#555 = CIRCLE ( 'NONE', #987, 2.750000000000000000 ) ;
#556 = AXIS2_PLACEMENT_3D ( 'NONE', #619, #945, #965 ) ;
#557 = VERTEX_POINT ( 'NONE', #195 ) ;
#558 = CARTESIAN_POINT ( 'NONE',  ( -6.500000000000000000, 10.70000000000000107, -9.200000000000027711 ) ) ;
#559 = EDGE_CURVE ( 'NONE', #575, #779, #283, .T. ) ;
#560 = AXIS2_PLACEMENT_3D ( 'NONE', #802, #790, #1030 ) ;
#561 = PRODUCT_DEFINITION_CONTEXT ( 'detailed design', #565, 'design' ) ;
#562 = DIRECTION ( 'NONE',  ( 1.000000000000000000, 0.000000000000000000, 0.000000000000000000 ) ) ;
#563 = DIRECTION ( 'NONE',  ( -1.000000000000000000, -0.000000000000000000, 0.000000000000000000 ) ) ;
#564 = LINE ( 'NONE', #311, #693 ) ;
#565 = APPLICATION_CONTEXT ( 'automotive_design' ) ;
#566 = ORIENTED_EDGE ( 'NONE', *, *, #354, .T. ) ;
#567 = DIRECTION ( 'NONE',  ( 0.000000000000000000, -3.784851220313033947E-15, -1.000000000000000000 ) ) ;
#568 = EDGE_CURVE ( 'NONE', #169, #557, #938, .T. ) ;
#569 = CARTESIAN_POINT ( 'NONE',  ( -40.50000000000000000, 8.000000000000000000, -11.50000000000000000 ) ) ;
#570 = EDGE_LOOP ( 'NONE', ( #226, #273, #162, #328 ) ) ;
#571 = ORIENTED_EDGE ( 'NONE', *, *, #1037, .F. ) ;
#572 = CARTESIAN_POINT ( 'NONE',  ( 30.09999999999999787, 8.000000000000000000, 12.00000000000000000 ) ) ;
#573 = ADVANCED_FACE ( 'NONE', ( #854 ), #187, .F. ) ;
#574 = LINE ( 'NONE', #316, #368 ) ;
#575 = VERTEX_POINT ( 'NONE', #763 ) ;
#576 = DIRECTION ( 'NONE',  ( -1.000000000000000000, 0.000000000000000000, 0.000000000000000000 ) ) ;
#577 = AXIS2_PLACEMENT_3D ( 'NONE', #276, #82, #420 ) ;
#578 = FACE_OUTER_BOUND ( 'NONE', #478, .T. ) ;
#579 = CARTESIAN_POINT ( 'NONE',  ( -6.500000000000000000, 9.439120141624499638, -9.199999999999999289 ) ) ;
#580 = EDGE_CURVE ( 'NONE', #822, #1060, #270, .T. ) ;
#581 = VERTEX_POINT ( 'NONE', #603 ) ;
#582 = UNCERTAINTY_MEASURE_WITH_UNIT (LENGTH_MEASURE( 1.000000000000000082E-05 ), #422, 'distance_accuracy_value', 'NONE');
#583 = ORIENTED_EDGE ( 'NONE', *, *, #377, .T. ) ;
#584 = EDGE_CURVE ( 'NONE', #739, #85, #708, .T. ) ;
#585 = ORIENTED_EDGE ( 'NONE', *, *, #216, .T. ) ;
#586 = FACE_OUTER_BOUND ( 'NONE', #734, .T. ) ;
#587 = ORIENTED_EDGE ( 'NONE', *, *, #547, .F. ) ;
#588 = DIRECTION ( 'NONE',  ( 0.7071067811865474617, 0.000000000000000000, 0.7071067811865474617 ) ) ;
#589 = EDGE_CURVE ( 'NONE', #581, #1064, #918, .T. ) ;
#590 = ADVANCED_FACE ( 'NONE', ( #183 ), #1014, .T. ) ;
#591 = CARTESIAN_POINT ( 'NONE',  ( -9.000000000000000000, 0.000000000000000000, -12.00000000000000000 ) ) ;
#592 = ORIENTED_EDGE ( 'NONE', *, *, #692, .T. ) ;
#593 = FACE_OUTER_BOUND ( 'NONE', #668, .T. ) ;
#594 = DIRECTION ( 'NONE',  ( 0.000000000000000000, -1.000000000000000000, 0.000000000000000000 ) ) ;
#595 = ADVANCED_FACE ( 'NONE', ( #205 ), #838, .T. ) ;
#596 = LINE ( 'NONE', #924, #432 ) ;
#597 = ORIENTED_EDGE ( 'NONE', *, *, #138, .T. ) ;
#598 = DIRECTION ( 'NONE',  ( 0.000000000000000000, 0.000000000000000000, -1.000000000000000000 ) ) ;
#599 = CARTESIAN_POINT ( 'NONE',  ( -29.60000000000000142, 8.000000000000000000, 11.50000000000000000 ) ) ;
#600 = CARTESIAN_POINT ( 'NONE',  ( 32.09999999999999432, 8.000000000000000000, 9.199999999999999289 ) ) ;
#601 = ORIENTED_EDGE ( 'NONE', *, *, #653, .F. ) ;
#602 = CARTESIAN_POINT ( 'NONE',  ( 34.60000000000000142, 0.000000000000000000, 11.50000000000000000 ) ) ;
#603 = CARTESIAN_POINT ( 'NONE',  ( -30.09999999999999787, 0.000000000000000000, 12.00000000000000000 ) ) ;
#604 = AXIS2_PLACEMENT_3D ( 'NONE', #507, #427, #188 ) ;
#605 = TOROIDAL_SURFACE ( 'NONE', #1039, 1.750000000000000000, 1.000000000000000000 ) ;
#606 = CARTESIAN_POINT ( 'NONE',  ( -6.500000000000000000, 8.000000000000000000, -9.199999999999999289 ) ) ;
#607 = AXIS2_PLACEMENT_3D ( 'NONE', #497, #747, #912 ) ;
#608 = ADVANCED_FACE ( 'NONE', ( #858 ), #787, .T. ) ;
#609 = ORIENTED_EDGE ( 'NONE', *, *, #979, .F. ) ;
#610 = CARTESIAN_POINT ( 'NONE',  ( -9.000000000000000000, 8.000000000000000000, -12.00000000000000000 ) ) ;
#611 = DIRECTION ( 'NONE',  ( 0.000000000000000000, -1.000000000000000000, 0.000000000000000000 ) ) ;
#612 = DIRECTION ( 'NONE',  ( 0.000000000000000000, -1.000000000000000000, 3.854941057726240267E-15 ) ) ;
#613 = ORIENTED_EDGE ( 'NONE', *, *, #934, .T. ) ;
#614 = CARTESIAN_POINT ( 'NONE',  ( 32.09999999999999432, 9.439120141624492533, 7.450000000000000178 ) ) ;
#615 = CARTESIAN_POINT ( 'NONE',  ( -34.10000000000000142, 8.000000000000000000, 12.00000000000000000 ) ) ;
#616 = CARTESIAN_POINT ( 'NONE',  ( -9.500000000000000000, 8.000000000000000000, -11.50000000000000000 ) ) ;
#617 = ORIENTED_EDGE ( 'NONE', *, *, #824, .T. ) ;
#618 = SURFACE_STYLE_USAGE ( .BOTH. , #964 ) ;
#619 = CARTESIAN_POINT ( 'NONE',  ( -6.500000000000000000, 8.000000000000000000, -9.199999999999999289 ) ) ;
#620 = UNCERTAINTY_MEASURE_WITH_UNIT (LENGTH_MEASURE( 1.000000000000000082E-05 ), #227, 'distance_accuracy_value', 'NONE');
#621 = EDGE_CURVE ( 'NONE', #910, #17, #885, .T. ) ;
#622 = DIRECTION ( 'NONE',  ( 1.000000000000000000, -4.720941227246152480E-31, -1.224646799147353207E-16 ) ) ;
#623 = AXIS2_PLACEMENT_3D ( 'NONE', #975, #396, #76 ) ;
#624 = VERTEX_POINT ( 'NONE', #379 ) ;
#625 = CIRCLE ( 'NONE', #520, 2.041666666666670071 ) ;
#626 = CIRCLE ( 'NONE', #336, 0.9999999999999991118 ) ;
#627 = DIRECTION ( 'NONE',  ( 0.000000000000000000, -4.248302390147275983E-15, -1.000000000000000000 ) ) ;
#628 = PLANE ( 'NONE',  #724 ) ;
#629 = VERTEX_POINT ( 'NONE', #224 ) ;
#630 = ORIENTED_EDGE ( 'NONE', *, *, #568, .F. ) ;
#631 = DIRECTION ( 'NONE',  ( 0.000000000000000000, -4.248302390147275983E-15, -1.000000000000000000 ) ) ;
#632 = FACE_OUTER_BOUND ( 'NONE', #56, .T. ) ;
#633 = EDGE_LOOP ( 'NONE', ( #515, #472, #99 ) ) ;
#634 = EDGE_CURVE ( 'NONE', #526, #629, #864, .T. ) ;
#635 = ORIENTED_EDGE ( 'NONE', *, *, #894, .T. ) ;
#636 = CARTESIAN_POINT ( 'NONE',  ( -32.09999999999999432, 9.439120141624519178, 11.94999999999999929 ) ) ;
#637 = DIRECTION ( 'NONE',  ( 0.000000000000000000, 0.000000000000000000, 1.000000000000000000 ) ) ;
#638 = DIRECTION ( 'NONE',  ( -1.000000000000000000, 0.000000000000000000, 0.000000000000000000 ) ) ;
#639 = DIRECTION ( 'NONE',  ( 0.000000000000000000, -1.000000000000000000, 0.000000000000000000 ) ) ;
#640 = AXIS2_PLACEMENT_3D ( 'NONE', #569, #893, #876 ) ;
#641 = VECTOR ( 'NONE', #1043, 1000.000000000000000 ) ;
#642 = ORIENTED_EDGE ( 'NONE', *, *, #872, .T. ) ;
#643 = CARTESIAN_POINT ( 'NONE',  ( 32.09999999999999432, 9.439120141624499638, 9.199999999999999289 ) ) ;
#644 = DIRECTION ( 'NONE',  ( 0.000000000000000000, 0.000000000000000000, -1.000000000000000000 ) ) ;
#645 = ORIENTED_EDGE ( 'NONE', *, *, #680, .F. ) ;
#646 = EDGE_LOOP ( 'NONE', ( #45, #866, #571, #181 ) ) ;
#647 = FILL_AREA_STYLE_COLOUR ( '', #725 ) ;
#648 = EDGE_CURVE ( 'NONE', #629, #127, #308, .T. ) ;
#649 = CARTESIAN_POINT ( 'NONE',  ( 32.09999999999999432, 8.000000000000000000, 9.199999999999999289 ) ) ;
#650 = ORIENTED_EDGE ( 'NONE', *, *, #400, .T. ) ;
#651 = ORIENTED_EDGE ( 'NONE', *, *, #860, .T. ) ;
#652 = LINE ( 'NONE', #572, #1002 ) ;
#653 = EDGE_CURVE ( 'NONE', #730, #236, #741, .T. ) ;
#654 = DIRECTION ( 'NONE',  ( 0.000000000000000000, -3.784851220313033947E-15, -1.000000000000000000 ) ) ;
#655 = ORIENTED_EDGE ( 'NONE', *, *, #743, .F. ) ;
#656 = EDGE_LOOP ( 'NONE', ( #663, #167, #393, #1032 ) ) ;
#657 = TOROIDAL_SURFACE ( 'NONE', #230, 1.750000000000000000, 1.000000000000000000 ) ;
#658 = CARTESIAN_POINT ( 'NONE',  ( 32.09999999999999432, 10.70000000000000107, 9.199999999999972644 ) ) ;
#659 = CIRCLE ( 'NONE', #774, 0.9999999999999991118 ) ;
#660 = CIRCLE ( 'NONE', #492, 2.750000000000000000 ) ;
#661 = AXIS2_PLACEMENT_3D ( 'NONE', #610, #440, #767 ) ;
#662 = EDGE_CURVE ( 'NONE', #539, #26, #625, .T. ) ;
#663 = ORIENTED_EDGE ( 'NONE', *, *, #32, .T. ) ;
#664 = DIRECTION ( 'NONE',  ( 1.000000000000000000, 0.000000000000000000, 0.000000000000000000 ) ) ;
#665 = VERTEX_POINT ( 'NONE', #485 ) ;
#666 = DIRECTION ( 'NONE',  ( 0.000000000000000000, 0.000000000000000000, 1.000000000000000000 ) ) ;
#667 = CARTESIAN_POINT ( 'NONE',  ( -6.500000000000000000, 8.000000000000010658, -6.450000000000000178 ) ) ;
#668 = EDGE_LOOP ( 'NONE', ( #10, #645, #994, #49 ) ) ;
#669 = DIRECTION ( 'NONE',  ( -0.7071067811865460184, 0.000000000000000000, 0.7071067811865489050 ) ) ;
#670 = CARTESIAN_POINT ( 'NONE',  ( -32.09999999999999432, 9.439120141624499638, 6.450000000000000178 ) ) ;
#671 = ORIENTED_EDGE ( 'NONE', *, *, #925, .T. ) ;
#672 = CARTESIAN_POINT ( 'NONE',  ( 32.09999999999999432, 10.39564016522860967, 11.24166666666667069 ) ) ;
#673 = CARTESIAN_POINT ( 'NONE',  ( -4.000000000000000000, 8.000000000000000000, -12.00000000000000000 ) ) ;
#674 = CIRCLE ( 'NONE', #577, 6.999999999999880984 ) ;
#675 = AXIS2_PLACEMENT_3D ( 'NONE', #868, #953, #567 ) ;
#676 = VECTOR ( 'NONE', #669, 1000.000000000000114 ) ;
#677 = FACE_OUTER_BOUND ( 'NONE', #483, .T. ) ;
#678 = ORIENTED_EDGE ( 'NONE', *, *, #580, .T. ) ;
#679 = LINE ( 'NONE', #23, #282 ) ;
#680 = EDGE_CURVE ( 'NONE', #526, #1064, #63, .T. ) ;
#681 = DIRECTION ( 'NONE',  ( 0.000000000000000000, -3.784851220313033947E-15, -1.000000000000000000 ) ) ;
#682 = LINE ( 'NONE', #667, #911 ) ;
#683 = ORIENTED_EDGE ( 'NONE', *, *, #80, .F. ) ;
#684 = CARTESIAN_POINT ( 'NONE',  ( 34.10000000000000142, 0.000000000000000000, 12.00000000000000000 ) ) ;
#685 = ORIENTED_EDGE ( 'NONE', *, *, #769, .T. ) ;
#686 = LINE ( 'NONE', #927, #1005 ) ;
#687 = DIRECTION ( 'NONE',  ( 1.000000000000000000, 0.000000000000000000, 0.000000000000000000 ) ) ;
#688 = CIRCLE ( 'NONE', #228, 2.041666666666670071 ) ;
#689 = AXIS2_PLACEMENT_3D ( 'NONE', #760, #510, #1006 ) ;
#690 = VECTOR ( 'NONE', #562, 1000.000000000000000 ) ;
#691 = CARTESIAN_POINT ( 'NONE',  ( -32.09999999999999432, 8.000000000000000000, 9.199999999999999289 ) ) ;
#692 = EDGE_CURVE ( 'NONE', #857, #239, #213, .T. ) ;
#693 = VECTOR ( 'NONE', #50, 1000.000000000000000 ) ;
#694 = ORIENTED_EDGE ( 'NONE', *, *, #172, .T. ) ;
#695 = LINE ( 'NONE', #345, #1023 ) ;
#696 = CARTESIAN_POINT ( 'NONE',  ( -32.09999999999999432, 9.439120141624510296, 9.199999999999999289 ) ) ;
#697 = DIRECTION ( 'NONE',  ( 1.000000000000000000, 0.000000000000000000, 0.000000000000000000 ) ) ;
#698 = ORIENTED_EDGE ( 'NONE', *, *, #1004, .F. ) ;
#699 = EDGE_CURVE ( 'NONE', #26, #539, #349, .T. ) ;
#700 = PLANE ( 'NONE',  #280 ) ;
#701 = FACE_OUTER_BOUND ( 'NONE', #252, .T. ) ;
#702 = EDGE_LOOP ( 'NONE', ( #212, #307, #375, #244 ) ) ;
#703 = VERTEX_POINT ( 'NONE', #128 ) ;
#704 = CARTESIAN_POINT ( 'NONE',  ( -29.60000000000000142, 8.000000000000000000, 11.50000000000000000 ) ) ;
#705 = PLANE ( 'NONE',  #946 ) ;
#706 = AXIS2_PLACEMENT_3D ( 'NONE', #600, #360, #519 ) ;
#707 = ORIENTED_EDGE ( 'NONE', *, *, #13, .T. ) ;
#708 = CIRCLE ( 'NONE', #140, 2.750000000000000000 ) ;
#709 = FILL_AREA_STYLE_COLOUR ( '', #1041 ) ;
#710 = DIRECTION ( 'NONE',  ( 1.000000000000000000, 0.000000000000000000, 0.000000000000000000 ) ) ;
#711 = EDGE_CURVE ( 'NONE', #1029, #107, #404, .T. ) ;
#712 = DIRECTION ( 'NONE',  ( 0.000000000000000000, -1.000000000000000000, 3.854941057726240267E-15 ) ) ;
#713 = EDGE_LOOP ( 'NONE', ( #143, #378, #484, #889 ) ) ;
#714 = CARTESIAN_POINT ( 'NONE',  ( -3.499999999999940048, 8.000000000000000000, -11.50000000000000000 ) ) ;
#715 = EDGE_LOOP ( 'NONE', ( #337, #944, #761, #818 ) ) ;
#716 = SPHERICAL_SURFACE ( 'NONE', #1022, 6.999999999999880096 ) ;
#717 = CARTESIAN_POINT ( 'NONE',  ( -32.09999999999999432, 8.000000000000000000, 9.199999999999999289 ) ) ;
#718 = DIRECTION ( 'NONE',  ( -1.000000000000000000, -0.000000000000000000, 0.000000000000000000 ) ) ;
#719 = VERTEX_POINT ( 'NONE', #973 ) ;
#720 = CARTESIAN_POINT ( 'NONE',  ( -32.09999999999999432, 9.439120141624492533, 7.450000000000000178 ) ) ;
#721 = CARTESIAN_POINT ( 'NONE',  ( -4.000000000000000000, 8.000000000000000000, -12.00000000000000000 ) ) ;
#722 = ADVANCED_FACE ( 'NONE', ( #387 ), #759, .T. ) ;
#723 = LINE ( 'NONE', #810, #536 ) ;
#724 = AXIS2_PLACEMENT_3D ( 'NONE', #546, #304, #295 ) ;
#725 = COLOUR_RGB ( '',1.000000000000000000, 1.000000000000000000, 1.000000000000000000 ) ;
#726 = VERTEX_POINT ( 'NONE', #551 ) ;
#727 = PRESENTATION_STYLE_ASSIGNMENT (( #324 ) ) ;
#728 = CYLINDRICAL_SURFACE ( 'NONE', #403, 2.750000000000000000 ) ;
#729 = ORIENTED_EDGE ( 'NONE', *, *, #778, .F. ) ;
#730 = VERTEX_POINT ( 'NONE', #558 ) ;
#731 = FACE_OUTER_BOUND ( 'NONE', #940, .T. ) ;
#732 = PLANE ( 'NONE',  #830 ) ;
#733 = DIRECTION ( 'NONE',  ( 0.000000000000000000, -1.000000000000000000, 3.854941057726240267E-15 ) ) ;
#734 = EDGE_LOOP ( 'NONE', ( #583, #771, #382, #286 ) ) ;
#735 = CYLINDRICAL_SURFACE ( 'NONE', #607, 2.750000000000000000 ) ;
#736 = EDGE_CURVE ( 'NONE', #296, #17, #237, .T. ) ;
#737 = CARTESIAN_POINT ( 'NONE',  ( 32.09999999999999432, 3.700000000000120082, 9.199999999999999289 ) ) ;
#738 = CARTESIAN_POINT ( 'NONE',  ( 0.000000000000000000, 0.000000000000000000, 0.000000000000000000 ) ) ;
#739 = VERTEX_POINT ( 'NONE', #636 ) ;
#740 = PLANE ( 'NONE',  #299 ) ;
#741 = CIRCLE ( 'NONE', #797, 6.999999999999880984 ) ;
#742 = VECTOR ( 'NONE', #512, 1000.000000000000114 ) ;
#743 = EDGE_CURVE ( 'NONE', #703, #453, #874, .T. ) ;
#744 = ADVANCED_FACE ( 'NONE', ( #460 ), #716, .T. ) ;
#745 = FACE_OUTER_BOUND ( 'NONE', #646, .T. ) ;
#746 = ORIENTED_EDGE ( 'NONE', *, *, #6, .T. ) ;
#747 = DIRECTION ( 'NONE',  ( 0.000000000000000000, -1.000000000000000000, 3.854941057726240267E-15 ) ) ;
#748 = DIRECTION ( 'NONE',  ( 0.000000000000000000, -1.000000000000000000, 3.854941057726240267E-15 ) ) ;
#749 = ADVANCED_FACE ( 'NONE', ( #52 ), #804, .T. ) ;
#750 = EDGE_LOOP ( 'NONE', ( #462, #789, #43, #234 ) ) ;
#751 = LINE ( 'NONE', #203, #476 ) ;
#752 = DIRECTION ( 'NONE',  ( 1.000000000000000000, 0.000000000000000000, 0.000000000000000000 ) ) ;
#753 = EDGE_CURVE ( 'NONE', #539, #85, #795, .T. ) ;
#754 = VERTEX_POINT ( 'NONE', #86 ) ;
#755 = DIRECTION ( 'NONE',  ( -0.7071067811865080488, 0.000000000000000000, -0.7071067811865869857 ) ) ;
#756 = MANIFOLD_SOLID_BREP ( 'Imported1', #892 ) ;
#757 = CARTESIAN_POINT ( 'NONE',  ( -32.09999999999999432, 3.700000000000120082, 9.199999999999999289 ) ) ;
#758 = CIRCLE ( 'NONE', #297, 2.750000000000000000 ) ;
#759 = TOROIDAL_SURFACE ( 'NONE', #776, 1.750000000000000000, 1.000000000000000000 ) ;
#760 = CARTESIAN_POINT ( 'NONE',  ( 40.50000000000000000, 8.000000000000000000, -11.50000000000000000 ) ) ;
#761 = ORIENTED_EDGE ( 'NONE', *, *, #934, .F. ) ;
#762 = CARTESIAN_POINT ( 'NONE',  ( -32.09999999999999432, 9.439120141624506743, 10.94999999999999929 ) ) ;
#763 = CARTESIAN_POINT ( 'NONE',  ( -34.10000000000000142, 8.000000000000000000, 12.00000000000000000 ) ) ;
#764 = ADVANCED_FACE ( 'NONE', ( #731 ), #71, .F. ) ;
#765 = CARTESIAN_POINT ( 'NONE',  ( -6.500000000000000000, 9.439120141624499638, -9.199999999999999289 ) ) ;
#766 = ORIENTED_EDGE ( 'NONE', *, *, #93, .T. ) ;
#767 = DIRECTION ( 'NONE',  ( 0.000000000000000000, -1.000000000000000000, 0.000000000000000000 ) ) ;
#768 = CARTESIAN_POINT ( 'NONE',  ( -6.500000000000000000, 9.439120141624510296, -9.199999999999999289 ) ) ;
#769 = EDGE_CURVE ( 'NONE', #822, #58, #652, .T. ) ;
#770 = CARTESIAN_POINT ( 'NONE',  ( 32.09999999999999432, 9.439120141624510296, 9.199999999999999289 ) ) ;
#771 = ORIENTED_EDGE ( 'NONE', *, *, #648, .F. ) ;
#772 = CARTESIAN_POINT ( 'NONE',  ( -30.09999999999999787, 8.000000000000000000, 12.00000000000000000 ) ) ;
#773 = DIRECTION ( 'NONE',  ( 0.000000000000000000, -3.841173411091566786E-15, -1.000000000000000000 ) ) ;
#774 = AXIS2_PLACEMENT_3D ( 'NONE', #322, #563, #883 ) ;
#775 = EDGE_CURVE ( 'NONE', #508, #575, #163, .T. ) ;
#776 = AXIS2_PLACEMENT_3D ( 'NONE', #643, #1033, #799 ) ;
#777 = DIRECTION ( 'NONE',  ( 0.000000000000000000, -3.784851220313033947E-15, -1.000000000000000000 ) ) ;
#778 = EDGE_CURVE ( 'NONE', #836, #801, #660, .T. ) ;
#779 = VERTEX_POINT ( 'NONE', #168 ) ;
#780 = CARTESIAN_POINT ( 'NONE',  ( -29.60000000000000142, 0.000000000000000000, 11.50000000000000000 ) ) ;
#781 = DIRECTION ( 'NONE',  ( 0.000000000000000000, -3.784851220313034736E-15, -1.000000000000000000 ) ) ;
#782 = LINE ( 'NONE', #461, #1052 ) ;
#783 = ADVANCED_FACE ( 'NONE', ( #907 ), #740, .F. ) ;
#784 = ORIENTED_EDGE ( 'NONE', *, *, #464, .F. ) ;
#785 = FACE_OUTER_BOUND ( 'NONE', #570, .T. ) ;
#786 = EDGE_LOOP ( 'NONE', ( #134, #655, #935, #391, #412, #218, #397, #890, #367, #185, #468, #386, #429, #459, #153, #465 ) ) ;
#787 = SPHERICAL_SURFACE ( 'NONE', #315, 6.999999999999880096 ) ;
#788 = CARTESIAN_POINT ( 'NONE',  ( -6.500000000000000000, 8.000000000000000000, -9.199999999999999289 ) ) ;
#789 = ORIENTED_EDGE ( 'NONE', *, *, #559, .F. ) ;
#790 = DIRECTION ( 'NONE',  ( 0.000000000000000000, -1.000000000000000000, 3.854941057726240267E-15 ) ) ;
#791 = ORIENTED_EDGE ( 'NONE', *, *, #135, .T. ) ;
#792 = CARTESIAN_POINT ( 'NONE',  ( -9.500000000000000000, 0.000000000000000000, -11.50000000000000000 ) ) ;
#793 = VECTOR ( 'NONE', #89, 1000.000000000000000 ) ;
#794 = FACE_OUTER_BOUND ( 'NONE', #976, .T. ) ;
#795 = CIRCLE ( 'NONE', #877, 0.9999999999999991118 ) ;
#796 = ORIENTED_EDGE ( 'NONE', *, *, #894, .F. ) ;
#797 = AXIS2_PLACEMENT_3D ( 'NONE', #146, #808, #394 ) ;
#798 = VECTOR ( 'NONE', #639, 1000.000000000000000 ) ;
#799 = DIRECTION ( 'NONE',  ( 0.000000000000000000, -3.854941057726240267E-15, -1.000000000000000000 ) ) ;
#800 = LINE ( 'NONE', #55, #690 ) ;
#801 = VERTEX_POINT ( 'NONE', #171 ) ;
#802 = CARTESIAN_POINT ( 'NONE',  ( -32.09999999999999432, 9.439120141624499638, 9.199999999999999289 ) ) ;
#803 = ORIENTED_EDGE ( 'NONE', *, *, #887, .F. ) ;
#804 = CYLINDRICAL_SURFACE ( 'NONE', #556, 2.749999999999999112 ) ;
#805 = DIRECTION ( 'NONE',  ( 0.000000000000000000, -3.841173411091566786E-15, -1.000000000000000000 ) ) ;
#806 = DIRECTION ( 'NONE',  ( 0.000000000000000000, -1.000000000000000000, 3.854941057726240267E-15 ) ) ;
#807 = ORIENTED_EDGE ( 'NONE', *, *, #456, .T. ) ;
#808 = DIRECTION ( 'NONE',  ( 1.000000000000000000, -4.720941227246152480E-31, -1.224646799147353207E-16 ) ) ;
#809 = CARTESIAN_POINT ( 'NONE',  ( -40.50000000000000000, 8.000000000000000000, -11.50000000000000000 ) ) ;
#810 = CARTESIAN_POINT ( 'NONE',  ( -9.500000000000000000, 8.000000000000000000, -11.50000000000000000 ) ) ;
#811 = AXIS2_PLACEMENT_3D ( 'NONE', #259, #933, #525 ) ;
#812 = VECTOR ( 'NONE', #313, 1000.000000000000000 ) ;
#813 = EDGE_LOOP ( 'NONE', ( #926, #70, #544, #685 ) ) ;
#814 = VECTOR ( 'NONE', #269, 1000.000000000000114 ) ;
#815 = LINE ( 'NONE', #1058, #262 ) ;
#816 = VERTEX_POINT ( 'NONE', #658 ) ;
#817 = ADVANCED_FACE ( 'NONE', ( #246 ), #735, .T. ) ;
#818 = ORIENTED_EDGE ( 'NONE', *, *, #648, .T. ) ;
#819 = CARTESIAN_POINT ( 'NONE',  ( 32.09999999999999432, 7.999999999999989342, 6.450000000000000178 ) ) ;
#820 = DIRECTION ( 'NONE',  ( 0.000000000000000000, -3.784851220313033947E-15, -1.000000000000000000 ) ) ;
#821 = DIRECTION ( 'NONE',  ( 0.000000000000000000, -1.000000000000000000, 3.854941057726240267E-15 ) ) ;
#822 = VERTEX_POINT ( 'NONE', #178 ) ;
#823 = SURFACE_SIDE_STYLE ('',( #490 ) ) ;
#824 = EDGE_CURVE ( 'NONE', #107, #801, #504, .T. ) ;
#825 = EDGE_CURVE ( 'NONE', #958, #439, #831, .T. ) ;
#826 = VERTEX_POINT ( 'NONE', #329 ) ;
#827 = ORIENTED_EDGE ( 'NONE', *, *, #568, .T. ) ;
#828 = VECTOR ( 'NONE', #301, 1000.000000000000000 ) ;
#829 = LINE ( 'NONE', #342, #676 ) ;
#830 = AXIS2_PLACEMENT_3D ( 'NONE', #1062, #437, #109 ) ;
#831 = CIRCLE ( 'NONE', #196, 2.041666666666670071 ) ;
#832 = PLANE ( 'NONE',  #314 ) ;
#833 = ORIENTED_EDGE ( 'NONE', *, *, #1004, .T. ) ;
#834 = LINE ( 'NONE', #91, #949 ) ;
#835 = CARTESIAN_POINT ( 'NONE',  ( -40.50000000000000000, 0.000000000000000000, 11.50000000000000000 ) ) ;
#836 = VERTEX_POINT ( 'NONE', #4 ) ;
#837 = LINE ( 'NONE', #532, #814 ) ;
#838 = SPHERICAL_SURFACE ( 'NONE', #988, 6.999999999999880096 ) ;
#839 = DIRECTION ( 'NONE',  ( -1.000000000000000000, -0.000000000000000000, 0.000000000000000000 ) ) ;
#840 = EDGE_CURVE ( 'NONE', #112, #703, #829, .T. ) ;
#841 = ORIENTED_EDGE ( 'NONE', *, *, #653, .T. ) ;
#842 = DIRECTION ( 'NONE',  ( 0.000000000000000000, 0.000000000000000000, 1.000000000000000000 ) ) ;
#843 = DIRECTION ( 'NONE',  ( 1.000000000000000000, 0.000000000000000000, 0.000000000000000000 ) ) ;
#844 = VECTOR ( 'NONE', #355, 1000.000000000000000 ) ;
#845 = AXIS2_PLACEMENT_3D ( 'NONE', #768, #1021, #781 ) ;
#846 = VECTOR ( 'NONE', #880, 1000.000000000000000 ) ;
#847 = CARTESIAN_POINT ( 'NONE',  ( 40.50000000000000000, 8.000000000000000000, -11.50000000000000000 ) ) ;
#848 = EDGE_LOOP ( 'NONE', ( #601, #503, #863 ) ) ;
#849 = CARTESIAN_POINT ( 'NONE',  ( 29.60000000000000142, 8.000000000000000000, 11.50000000000000000 ) ) ;
#850 = DIRECTION ( 'NONE',  ( 0.7071067811865474617, 0.000000000000000000, 0.7071067811865474617 ) ) ;
#851 = DIRECTION ( 'NONE',  ( 0.000000000000000000, -1.000000000000000000, 3.854941057726240267E-15 ) ) ;
#852 = ORIENTED_EDGE ( 'NONE', *, *, #320, .F. ) ;
#853 = DIRECTION ( 'NONE',  ( 0.000000000000000000, -1.000000000000000000, 0.000000000000000000 ) ) ;
#854 = FACE_OUTER_BOUND ( 'NONE', #51, .T. ) ;
#855 = EDGE_CURVE ( 'NONE', #508, #826, #834, .T. ) ;
#856 = DIRECTION ( 'NONE',  ( -1.000000000000000000, 0.000000000000000000, 0.000000000000000000 ) ) ;
#857 = VERTEX_POINT ( 'NONE', #319 ) ;
#858 = FACE_OUTER_BOUND ( 'NONE', #148, .T. ) ;
#859 = AXIS2_PLACEMENT_3D ( 'NONE', #156, #901, #326 ) ;
#860 = EDGE_CURVE ( 'NONE', #219, #703, #686, .T. ) ;
#861 = VECTOR ( 'NONE', #942, 1000.000000000000000 ) ;
#862 = CYLINDRICAL_SURFACE ( 'NONE', #100, 2.750000000000000000 ) ;
#863 = ORIENTED_EDGE ( 'NONE', *, *, #456, .F. ) ;
#864 = LINE ( 'NONE', #704, #1069 ) ;
#865 = CARTESIAN_POINT ( 'NONE',  ( -30.09999999999999787, 8.000000000000000000, 12.00000000000000000 ) ) ;
#866 = ORIENTED_EDGE ( 'NONE', *, *, #736, .F. ) ;
#867 = PLANE ( 'NONE',  #122 ) ;
#868 = CARTESIAN_POINT ( 'NONE',  ( 32.09999999999999432, 9.439120141624510296, 9.199999999999999289 ) ) ;
#869 = DIRECTION ( 'NONE',  ( 0.000000000000000000, -1.000000000000000000, 0.000000000000000000 ) ) ;
#870 = ORIENTED_EDGE ( 'NONE', *, *, #919, .T. ) ;
#871 = DIRECTION ( 'NONE',  ( 0.000000000000000000, 1.000000000000000000, 0.000000000000000000 ) ) ;
#872 = EDGE_CURVE ( 'NONE', #439, #107, #626, .T. ) ;
#873 = ORIENTED_EDGE ( 'NONE', *, *, #972, .T. ) ;
#874 = LINE ( 'NONE', #792, #930 ) ;
#875 = CIRCLE ( 'NONE', #1020, 2.750000000000000000 ) ;
#876 = DIRECTION ( 'NONE',  ( 0.000000000000000000, 1.000000000000000000, 0.000000000000000000 ) ) ;
#877 = AXIS2_PLACEMENT_3D ( 'NONE', #720, #501, #666 ) ;
#878 = EDGE_LOOP ( 'NONE', ( #592, #444, #268, #585 ) ) ;
#879 = AXIS2_PLACEMENT_3D ( 'NONE', #362, #922, #936 ) ;
#880 = DIRECTION ( 'NONE',  ( 1.000000000000000000, 0.000000000000000000, 0.000000000000000000 ) ) ;
#881 = DIRECTION ( 'NONE',  ( 0.000000000000000000, -3.841173411091566786E-15, -1.000000000000000000 ) ) ;
#882 = SPHERICAL_SURFACE ( 'NONE', #896, 6.999999999999880096 ) ;
#883 = DIRECTION ( 'NONE',  ( 0.000000000000000000, 0.000000000000000000, 1.000000000000000000 ) ) ;
#884 = VERTEX_POINT ( 'NONE', #941 ) ;
#885 = LINE ( 'NONE', #150, #968 ) ;
#886 = UNCERTAINTY_MEASURE_WITH_UNIT (LENGTH_MEASURE( 1.000000000000000082E-05 ), #223, 'distance_accuracy_value', 'NONE');
#887 = EDGE_CURVE ( 'NONE', #739, #754, #751, .T. ) ;
#888 = DIRECTION ( 'NONE',  ( 0.000000000000000000, -1.000000000000000000, 0.000000000000000000 ) ) ;
#889 = ORIENTED_EDGE ( 'NONE', *, *, #919, .F. ) ;
#890 = ORIENTED_EDGE ( 'NONE', *, *, #621, .F. ) ;
#891 = CARTESIAN_POINT ( 'NONE',  ( 32.09999999999999432, 8.000000000000000000, 9.199999999999999289 ) ) ;
#892 = CLOSED_SHELL ( 'NONE', ( #595, #722, #166, #428, #110, #749, #744, #1015, #206, #817, #955, #590, #288, #53, #529, #395, #481, #608, #54, #514, #87, #962, #204, #1017, #130, #764, #190, #783, #88, #494, #98, #961, #573, #1050, #256, #365 ) ) ;
#893 = DIRECTION ( 'NONE',  ( 1.000000000000000000, 0.000000000000000000, 0.000000000000000000 ) ) ;
#894 = EDGE_CURVE ( 'NONE', #1060, #435, #837, .T. ) ;
#895 = FACE_OUTER_BOUND ( 'NONE', #786, .T. ) ;
#896 = AXIS2_PLACEMENT_3D ( 'NONE', #413, #1067, #805 ) ;
#897 = VECTOR ( 'NONE', #843, 1000.000000000000000 ) ;
#898 = ORIENTED_EDGE ( 'NONE', *, *, #464, .T. ) ;
#899 = FILL_AREA_STYLE ('',( #647 ) ) ;
#900 = STYLED_ITEM ( 'NONE', ( #34 ), #448 ) ;
#901 = DIRECTION ( 'NONE',  ( 0.000000000000000000, -1.000000000000000000, 3.854941057726240267E-15 ) ) ;
#902 = DIRECTION ( 'NONE',  ( 0.000000000000000000, -1.000000000000000000, 3.854941057726240267E-15 ) ) ;
#903 = EDGE_CURVE ( 'NONE', #208, #526, #101, .T. ) ;
#904 = ORIENTED_EDGE ( 'NONE', *, *, #908, .T. ) ;
#905 = ORIENTED_EDGE ( 'NONE', *, *, #925, .F. ) ;
#906 = ORIENTED_EDGE ( 'NONE', *, *, #159, .F. ) ;
#907 = FACE_OUTER_BOUND ( 'NONE', #916, .T. ) ;
#908 = EDGE_CURVE ( 'NONE', #977, #910, #436, .T. ) ;
#909 = DIRECTION ( 'NONE',  ( 0.000000000000000000, 0.000000000000000000, 1.000000000000000000 ) ) ;
#910 = VERTEX_POINT ( 'NONE', #602 ) ;
#911 = VECTOR ( 'NONE', #748, 1000.000000000000000 ) ;
#912 = DIRECTION ( 'NONE',  ( 0.000000000000000000, -3.784851220313033947E-15, -1.000000000000000000 ) ) ;
#913 = PRESENTATION_LAYER_ASSIGNMENT (  '', '', ( #540 ) ) ;
#914 = EDGE_CURVE ( 'NONE', #26, #739, #932, .T. ) ;
#915 = CARTESIAN_POINT ( 'NONE',  ( 34.60000000000000142, 8.000000000000000000, 11.50000000000000000 ) ) ;
#916 = EDGE_LOOP ( 'NONE', ( #904, #90, #796, #1059 ) ) ;
#917 = DIRECTION ( 'NONE',  ( 0.000000000000000000, -1.000000000000000000, 3.854941057726240267E-15 ) ) ;
#918 = LINE ( 'NONE', #358, #861 ) ;
#919 = EDGE_CURVE ( 'NONE', #624, #450, #695, .T. ) ;
#920 = CARTESIAN_POINT ( 'NONE',  ( -6.500000000000000000, 3.700000000000120082, -9.199999999999999289 ) ) ;
#921 = VERTEX_POINT ( 'NONE', #182 ) ;
#922 = DIRECTION ( 'NONE',  ( 1.000000000000000000, -4.720941227246152480E-31, -1.224646799147353207E-16 ) ) ;
#923 = DIRECTION ( 'NONE',  ( 0.000000000000000000, -1.000000000000000000, 3.854941057726240267E-15 ) ) ;
#924 = CARTESIAN_POINT ( 'NONE',  ( -40.50000000000000000, 8.000000000000000000, 11.50000000000000000 ) ) ;
#925 = EDGE_CURVE ( 'NONE', #169, #533, #281, .T. ) ;
#926 = ORIENTED_EDGE ( 'NONE', *, *, #242, .T. ) ;
#927 = CARTESIAN_POINT ( 'NONE',  ( -9.500000000000000000, 8.000000000000000000, -11.50000000000000000 ) ) ;
#928 = AXIS2_PLACEMENT_3D ( 'NONE', #129, #622, #1045 ) ;
#929 = DIRECTION ( 'NONE',  ( -0.000000000000000000, 1.000000000000000000, 0.000000000000000000 ) ) ;
#930 = VECTOR ( 'NONE', #545, 1000.000000000000000 ) ;
#931 = VECTOR ( 'NONE', #18, 1000.000000000000000 ) ;
#932 = CIRCLE ( 'NONE', #1055, 0.9999999999999991118 ) ;
#933 = DIRECTION ( 'NONE',  ( 0.000000000000000000, 0.000000000000000000, -1.000000000000000000 ) ) ;
#934 = EDGE_CURVE ( 'NONE', #629, #822, #1013, .T. ) ;
#935 = ORIENTED_EDGE ( 'NONE', *, *, #840, .F. ) ;
#936 = DIRECTION ( 'NONE',  ( 0.000000000000000000, 0.000000000000000000, -1.000000000000000000 ) ) ;
#937 = EDGE_CURVE ( 'NONE', #296, #169, #27, .T. ) ;
#938 = LINE ( 'NONE', #528, #506 ) ;
#939 = DIRECTION ( 'NONE',  ( 0.000000000000000000, -1.000000000000000000, 3.854941057726240267E-15 ) ) ;
#940 = EDGE_LOOP ( 'NONE', ( #131, #630, #1071, #963 ) ) ;
#941 = CARTESIAN_POINT ( 'NONE',  ( -4.000000000000000000, 8.000000000000000000, -12.00000000000000000 ) ) ;
#942 = DIRECTION ( 'NONE',  ( 0.7071067811865869857, 0.000000000000000000, -0.7071067811865080488 ) ) ;
#943 = DIRECTION ( 'NONE',  ( -1.000000000000000000, 0.000000000000000000, -1.301042606982610054E-15 ) ) ;
#944 = ORIENTED_EDGE ( 'NONE', *, *, #769, .F. ) ;
#945 = DIRECTION ( 'NONE',  ( 0.000000000000000000, -1.000000000000000000, 3.854941057726240267E-15 ) ) ;
#946 = AXIS2_PLACEMENT_3D ( 'NONE', #543, #537, #207 ) ;
#947 = VECTOR ( 'NONE', #220, 1000.000000000000000 ) ;
#948 = CARTESIAN_POINT ( 'NONE',  ( -9.000000000000000000, 8.000000000000000000, -12.00000000000000000 ) ) ;
#949 = VECTOR ( 'NONE', #1057, 1000.000000000000000 ) ;
#950 = EDGE_LOOP ( 'NONE', ( #35, #344, #587, #356 ) ) ;
#951 = DIRECTION ( 'NONE',  ( -0.7071067811865080488, 0.000000000000000000, 0.7071067811865869857 ) ) ;
#952 = ORIENTED_EDGE ( 'NONE', *, *, #13, .F. ) ;
#953 = DIRECTION ( 'NONE',  ( 0.000000000000000000, -1.000000000000000000, 3.854941057726240267E-15 ) ) ;
#954 = LINE ( 'NONE', #42, #247 ) ;
#955 = ADVANCED_FACE ( 'NONE', ( #287 ), #475, .T. ) ;
#956 = ORIENTED_EDGE ( 'NONE', *, *, #331, .F. ) ;
#957 = DIRECTION ( 'NONE',  ( 0.000000000000000000, -1.000000000000000000, 0.000000000000000000 ) ) ;
#958 = VERTEX_POINT ( 'NONE', #672 ) ;
#959 = CARTESIAN_POINT ( 'NONE',  ( -32.09999999999999432, 10.39564016522860079, 9.199999999999999289 ) ) ;
#960 = CARTESIAN_POINT ( 'NONE',  ( -40.50000000000000000, 8.000000000000000000, 11.50000000000000000 ) ) ;
#961 = ADVANCED_FACE ( 'NONE', ( #593 ), #95, .F. ) ;
#962 = ADVANCED_FACE ( 'NONE', ( #108 ), #357, .F. ) ;
#963 = ORIENTED_EDGE ( 'NONE', *, *, #736, .T. ) ;
#964 = SURFACE_SIDE_STYLE ('',( #235 ) ) ;
#965 = DIRECTION ( 'NONE',  ( 0.000000000000000000, -3.784851220313034736E-15, -1.000000000000000000 ) ) ;
#966 = AXIS2_PLACEMENT_3D ( 'NONE', #364, #939, #201 ) ;
#967 = DIRECTION ( 'NONE',  ( -0.7071067811865460184, 0.000000000000000000, 0.7071067811865489050 ) ) ;
#968 = VECTOR ( 'NONE', #710, 1000.000000000000000 ) ;
#969 = CARTESIAN_POINT ( 'NONE',  ( 40.50000000000000000, 0.000000000000000000, 11.50000000000000000 ) ) ;
#970 = MECHANICAL_DESIGN_GEOMETRIC_PRESENTATION_REPRESENTATION (  '', ( #900 ), #69 ) ;
#971 = FILL_AREA_STYLE ('',( #709 ) ) ;
#972 = EDGE_CURVE ( 'NONE', #575, #208, #12, .T. ) ;
#973 = CARTESIAN_POINT ( 'NONE',  ( -6.500000000000000000, 8.000000000000010658, -6.450000000000000178 ) ) ;
#974 = EDGE_CURVE ( 'NONE', #208, #581, #679, .T. ) ;
#975 = CARTESIAN_POINT ( 'NONE',  ( -32.09999999999999432, 3.700000000000120082, 9.199999999999999289 ) ) ;
#976 = EDGE_LOOP ( 'NONE', ( #906, #245, #870, #74 ) ) ;
#977 = VERTEX_POINT ( 'NONE', #1008 ) ;
#978 = DIRECTION ( 'NONE',  ( 0.000000000000000000, -1.000000000000000000, 3.854941057726240267E-15 ) ) ;
#979 = EDGE_CURVE ( 'NONE', #958, #1029, #141, .T. ) ;
#980 = FACE_OUTER_BOUND ( 'NONE', #495, .T. ) ;
#981 = FACE_OUTER_BOUND ( 'NONE', #372, .T. ) ;
#982 = VERTEX_POINT ( 'NONE', #186 ) ;
#983 = CARTESIAN_POINT ( 'NONE',  ( 34.10000000000000142, 8.000000000000000000, 12.00000000000000000 ) ) ;
#984 = AXIS2_PLACEMENT_3D ( 'NONE', #401, #806, #407 ) ;
#985 = LINE ( 'NONE', #673, #155 ) ;
#986 = ORIENTED_EDGE ( 'NONE', *, *, #1, .F. ) ;
#987 = AXIS2_PLACEMENT_3D ( 'NONE', #343, #92, #267 ) ;
#988 = AXIS2_PLACEMENT_3D ( 'NONE', #353, #1009, #881 ) ;
#989 = ORIENTED_EDGE ( 'NONE', *, *, #972, .F. ) ;
#990 = DIRECTION ( 'NONE',  ( 0.000000000000000000, -1.000000000000000000, 3.854941057726240267E-15 ) ) ;
#991 = VECTOR ( 'NONE', #458, 1000.000000000000000 ) ;
#992 = APPLICATION_CONTEXT ( 'automotive_design' ) ;
#993 = ORIENTED_EDGE ( 'NONE', *, *, #1010, .T. ) ;
#994 = ORIENTED_EDGE ( 'NONE', *, *, #903, .F. ) ;
#995 = FACE_OUTER_BOUND ( 'NONE', #511, .T. ) ;
#996 = ORIENTED_EDGE ( 'NONE', *, *, #979, .T. ) ;
#997 = DIRECTION ( 'NONE',  ( -0.7071067811865475727, 0.000000000000000000, -0.7071067811865475727 ) ) ;
#998 = CARTESIAN_POINT ( 'NONE',  ( 30.09999999999999787, 0.000000000000000000, 12.00000000000000000 ) ) ;
#999 = ORIENTED_EDGE ( 'NONE', *, *, #20, .T. ) ;
#1000 = VECTOR ( 'NONE', #147, 1000.000000000000000 ) ;
#1001 = DIRECTION ( 'NONE',  ( 0.000000000000000000, 0.000000000000000000, -1.000000000000000000 ) ) ;
#1002 = VECTOR ( 'NONE', #416, 1000.000000000000000 ) ;
#1003 = DIRECTION ( 'NONE',  ( 1.000000000000000000, -4.720941227246152480E-31, -1.224646799147353207E-16 ) ) ;
#1004 = EDGE_CURVE ( 'NONE', #665, #453, #199, .T. ) ;
#1005 = VECTOR ( 'NONE', #113, 1000.000000000000000 ) ;
#1006 = DIRECTION ( 'NONE',  ( 1.000000000000000000, 0.000000000000000000, 1.301042606982610054E-15 ) ) ;
#1007 = EDGE_LOOP ( 'NONE', ( #222, #566, #191 ) ) ;
#1008 = CARTESIAN_POINT ( 'NONE',  ( 34.10000000000000142, 0.000000000000000000, 12.00000000000000000 ) ) ;
#1009 = DIRECTION ( 'NONE',  ( 1.000000000000000000, 0.000000000000000000, 0.000000000000000000 ) ) ;
#1010 = EDGE_CURVE ( 'NONE', #279, #1056, #463, .T. ) ;
#1011 = CYLINDRICAL_SURFACE ( 'NONE', #706, 2.750000000000000000 ) ;
#1012 = ORIENTED_EDGE ( 'NONE', *, *, #711, .T. ) ;
#1013 = LINE ( 'NONE', #849, #742 ) ;
#1014 = SPHERICAL_SURFACE ( 'NONE', #83, 6.999999999999880096 ) ;
#1015 = ADVANCED_FACE ( 'NONE', ( #785 ), #419, .T. ) ;
#1016 = DIRECTION ( 'NONE',  ( 0.000000000000000000, -3.784851220313034736E-15, -1.000000000000000000 ) ) ;
#1017 = ADVANCED_FACE ( 'NONE', ( #376 ), #549, .F. ) ;
#1018 = ORIENTED_EDGE ( 'NONE', *, *, #855, .F. ) ;
#1019 = CARTESIAN_POINT ( 'NONE',  ( 40.50000000000000000, 8.000000000000000000, -11.50000000000000000 ) ) ;
#1020 = AXIS2_PLACEMENT_3D ( 'NONE', #770, #612, #777 ) ;
#1021 = DIRECTION ( 'NONE',  ( 0.000000000000000000, -1.000000000000000000, 3.854941057726240267E-15 ) ) ;
#1022 = AXIS2_PLACEMENT_3D ( 'NONE', #1048, #480, #294 ) ;
#1023 = VECTOR ( 'NONE', #522, 1000.000000000000000 ) ;
#1024 = DIRECTION ( 'NONE',  ( 0.000000000000000000, -3.784851220313033947E-15, -1.000000000000000000 ) ) ;
#1025 = ORIENTED_EDGE ( 'NONE', *, *, #937, .T. ) ;
#1026 = DIRECTION ( 'NONE',  ( 0.7071067811865869857, 0.000000000000000000, -0.7071067811865080488 ) ) ;
#1027 = DIRECTION ( 'NONE',  ( 0.000000000000000000, -1.000000000000000000, 0.000000000000000000 ) ) ;
#1028 = PLANE ( 'NONE',  #278 ) ;
#1029 = VERTEX_POINT ( 'NONE', #292 ) ;
#1030 = DIRECTION ( 'NONE',  ( 0.000000000000000000, -3.854941057726240267E-15, -1.000000000000000000 ) ) ;
#1031 = EDGE_CURVE ( 'NONE', #85, #726, #564, .T. ) ;
#1032 = ORIENTED_EDGE ( 'NONE', *, *, #1031, .F. ) ;
#1033 = DIRECTION ( 'NONE',  ( 0.000000000000000000, -1.000000000000000000, 3.854941057726240267E-15 ) ) ;
#1034 = CARTESIAN_POINT ( 'NONE',  ( -40.50000000000000000, 0.000000000000000000, -11.50000000000000000 ) ) ;
#1035 = ORIENTED_EDGE ( 'NONE', *, *, #743, .T. ) ;
#1036 = DIRECTION ( 'NONE',  ( 1.000000000000000000, 0.000000000000000000, 0.000000000000000000 ) ) ;
#1037 = EDGE_CURVE ( 'NONE', #435, #296, #57, .T. ) ;
#1038 = AXIS2_PLACEMENT_3D ( 'NONE', #765, #433, #180 ) ;
#1039 = AXIS2_PLACEMENT_3D ( 'NONE', #60, #1053, #243 ) ;
#1040 = LINE ( 'NONE', #25, #828 ) ;
#1041 = COLOUR_RGB ( '',1.000000000000000000, 1.000000000000000000, 1.000000000000000000 ) ;
#1042 = ORIENTED_EDGE ( 'NONE', *, *, #67, .F. ) ;
#1043 = DIRECTION ( 'NONE',  ( 0.000000000000000000, -1.000000000000000000, 0.000000000000000000 ) ) ;
#1044 = PRODUCT_DEFINITION ( 'UNKNOWN', '', #215, #561 ) ;
#1045 = DIRECTION ( 'NONE',  ( 0.000000000000000000, 0.000000000000000000, -1.000000000000000000 ) ) ;
#1046 = ORIENTED_EDGE ( 'NONE', *, *, #474, .T. ) ;
#1047 = ORIENTED_EDGE ( 'NONE', *, *, #711, .F. ) ;
#1048 = CARTESIAN_POINT ( 'NONE',  ( -32.09999999999999432, 3.700000000000120082, 9.199999999999999289 ) ) ;
#1049 = CARTESIAN_POINT ( 'NONE',  ( -32.09999999999999432, 10.39564016522860967, 11.24166666666667069 ) ) ;
#1050 = ADVANCED_FACE ( 'NONE', ( #117 ), #867, .F. ) ;
#1051 = DIRECTION ( 'NONE',  ( 0.000000000000000000, -1.000000000000000000, 0.000000000000000000 ) ) ;
#1052 = VECTOR ( 'NONE', #856, 1000.000000000000000 ) ;
#1053 = DIRECTION ( 'NONE',  ( 0.000000000000000000, -1.000000000000000000, 3.854941057726240267E-15 ) ) ;
#1054 = CARTESIAN_POINT ( 'NONE',  ( -6.500000000000000000, 9.439120141624519178, -6.450000000000000178 ) ) ;
#1055 = AXIS2_PLACEMENT_3D ( 'NONE', #762, #8, #1001 ) ;
#1056 = VERTEX_POINT ( 'NONE', #209 ) ;
#1057 = DIRECTION ( 'NONE',  ( 0.000000000000000000, -1.000000000000000000, 0.000000000000000000 ) ) ;
#1058 = CARTESIAN_POINT ( 'NONE',  ( -29.60000000000000142, 0.000000000000000000, 11.50000000000000000 ) ) ;
#1059 = ORIENTED_EDGE ( 'NONE', *, *, #285, .T. ) ;
#1060 = VERTEX_POINT ( 'NONE', #383 ) ;
#1061 = DIRECTION ( 'NONE',  ( 0.000000000000000000, 0.000000000000000000, 1.000000000000000000 ) ) ;
#1062 = CARTESIAN_POINT ( 'NONE',  ( 29.60000000000000142, 8.000000000000000000, 11.50000000000000000 ) ) ;
#1063 = CARTESIAN_POINT ( 'NONE',  ( -32.09999999999999432, 9.439120141624510296, 9.199999999999999289 ) ) ;
#1064 = VERTEX_POINT ( 'NONE', #780 ) ;
#1065 = DIRECTION ( 'NONE',  ( 0.000000000000000000, -1.000000000000000000, 3.854941057726240267E-15 ) ) ;
#1066 = PRODUCT_RELATED_PRODUCT_CATEGORY ( 'part', '', ( #106 ) ) ;
#1067 = DIRECTION ( 'NONE',  ( 1.000000000000000000, 0.000000000000000000, 0.000000000000000000 ) ) ;
#1068 = DIRECTION ( 'NONE',  ( -0.000000000000000000, 1.000000000000000000, 0.000000000000000000 ) ) ;
#1069 = VECTOR ( 'NONE', #1036, 1000.000000000000000 ) ;
#1070 = AXIS2_PLACEMENT_3D ( 'NONE', #430, #755, #274 ) ;
#1071 = ORIENTED_EDGE ( 'NONE', *, *, #937, .F. ) ;
#1072 = DIRECTION ( 'NONE',  ( -0.7071067811865475727, 0.000000000000000000, 0.7071067811865475727 ) ) ;
ENDSEC;
END-ISO-10303-21;
